<svg width="1307" height="219" viewBox="0 0 1307 219" fill="none" xmlns="http://www.w3.org/2000/svg">
<path d="M25.9683 174.846C25.9683 172.465 26.4858 169.152 27.521 164.908C28.5562 160.561 29.9536 157.196 31.7134 154.815C36.1646 148.501 40.2534 142.704 43.98 137.425C47.7065 132.146 51.019 127.591 53.9175 123.761C56.8159 119.931 59.7144 116.515 62.6128 113.513C80.314 94.3623 92.9946 80.0771 100.655 70.6572C108.315 61.1338 112.145 54.5088 112.145 50.7822C112.145 48.2979 111.006 46.3828 108.729 45.0371C106.452 43.5879 103.45 42.8633 99.7231 42.8633C92.063 42.8633 82.436 45.6064 70.8423 51.0928C59.2485 56.4756 45.688 63.5146 30.1606 72.21C14.7368 80.9053 6.14502 85.2529 4.38525 85.2529C1.59033 85.2529 0.192871 83.2344 0.192871 79.1973C0.192871 75.7812 1.27979 70.916 3.45361 64.6016C5.10986 57.7695 6.45557 52.4902 7.49072 48.7637C8.52588 44.9336 10.2339 41.5176 12.6147 38.5156C15.0991 35.5137 19.1362 32.2529 24.7261 28.7334C30.4194 25.2139 39.1147 20.4004 50.812 14.293L52.3647 20.0381C62.0952 16.1045 71.2563 13.1025 79.8481 11.0322C88.5435 8.96191 95.9448 7.92676 102.052 7.92676C114.06 7.92676 122.548 9.99707 127.517 14.1377C132.589 18.1748 135.125 27.0254 135.125 40.6895C135.125 48.1426 134.039 54.3535 131.865 59.3223C129.691 64.291 125.447 71.2266 119.132 80.1289C104.744 101.039 93.9263 115.531 86.6802 123.605C65.6665 147.621 55.1597 161.647 55.1597 165.685C55.1597 167.962 56.6606 169.101 59.6626 169.101C62.147 169.101 65.6665 167.341 70.2212 163.821C74.7759 160.302 80.2622 155.229 86.6802 148.604C93.0981 141.979 102 132.508 113.387 120.189C125.499 107.146 135.695 95.6562 143.976 85.7188C152.361 75.6777 159.245 67.1377 164.627 60.0986C170.01 52.9561 172.857 49.126 173.167 48.6084C178.757 41.7764 184.502 36.1865 190.403 31.8389C196.407 27.3877 200.237 25.1621 201.893 25.1621C203.135 25.1621 204.584 26.3008 206.241 28.5781C207.897 30.8555 209.294 33.5469 210.433 36.6523C211.675 39.7578 212.296 42.1387 212.296 43.7949C212.296 44.3125 211.054 46.8486 208.57 51.4033C206.085 55.8545 203.394 60.5127 200.496 65.3779C197.597 70.1396 192.939 77.4893 186.521 87.4268C172.443 109.269 161.677 127.643 154.224 142.549C146.771 157.352 143.044 167.082 143.044 171.74C143.044 173.396 143.614 174.949 144.752 176.398C145.995 177.744 147.237 178.417 148.479 178.417C150.135 178.417 153.137 177.123 157.485 174.535C161.833 171.844 166.646 168.014 171.925 163.045C178.861 156.42 185.175 149.536 190.869 142.394C196.562 135.251 202.204 127.28 207.793 118.481C213.383 109.683 218.352 101.35 222.7 93.4824C227.047 85.6152 231.447 77.334 235.898 68.6387L233.258 60.7197C232.844 59.4775 232.637 57.873 232.637 55.9062C232.637 54.3535 235.691 49.333 241.798 40.8447C247.906 32.2529 251.943 27.957 253.91 27.957C256.083 27.957 257.895 29.5615 259.344 32.7705C260.897 35.876 261.673 39.0332 261.673 42.2422C261.673 45.7617 260.069 52.8008 256.86 63.3594C253.754 73.8145 248.837 86.4951 242.109 101.401C235.484 116.308 227.254 131.473 217.42 146.896C208.932 160.354 199.823 171.896 190.092 181.522C180.465 191.046 171.77 198.137 164.006 202.795C156.243 207.453 150.498 209.782 146.771 209.782C142.527 209.782 138.076 207.919 133.417 204.192C129.587 200.88 126.844 197.93 125.188 195.342C123.635 192.65 122.6 189.752 122.083 186.646C121.565 183.541 121.306 179.918 121.306 175.777C121.306 166.979 123.739 156.679 128.604 144.878C133.469 133.077 140.715 118.378 150.342 100.78C120.219 137.425 96.8765 164.08 80.314 180.746C63.855 197.412 51.7954 205.745 44.1353 205.745C39.063 205.745 34.7671 202.743 31.2476 196.739C27.728 190.632 25.9683 183.334 25.9683 174.846ZM259.35 156.679V160.561C259.35 166.668 260.851 171.43 263.853 174.846C266.855 178.262 270.789 179.97 275.654 179.97C280.726 179.97 285.954 178.779 291.337 176.398C296.823 174.018 302.258 170.86 307.64 166.927C313.023 162.993 319.597 157.714 327.36 151.089V160.561C315.663 174.639 304.69 185.456 294.442 193.013C284.194 200.466 273.791 204.192 263.232 204.192C254.019 204.192 246.722 200.621 241.339 193.479C235.956 186.336 233.265 176.554 233.265 164.132C233.265 153.263 235.801 143.429 240.873 134.63C245.945 125.728 254.226 116.359 265.717 106.525C273.584 99.7969 281.399 94.7246 289.163 91.3086C296.927 87.8926 303.862 86.1846 309.97 86.1846C314.835 86.1846 318.665 87.3232 321.46 89.6006C324.358 91.7744 325.807 95.0869 325.807 99.5381C325.807 106.06 323.375 112.581 318.51 119.103C313.644 125.521 306.191 131.938 296.15 138.356C286.213 144.671 273.946 150.778 259.35 156.679ZM260.903 146.586C270.22 142.963 278.19 138.46 284.815 133.077C291.44 127.694 296.306 122.57 299.411 117.705C302.62 112.736 304.224 109.113 304.224 106.836C304.224 104.455 303.138 103.265 300.964 103.265C299.1 103.265 296.047 104.455 291.803 106.836C287.662 109.217 283.418 112.322 279.07 116.152C274.826 119.982 270.996 124.485 267.58 129.661C264.164 134.837 261.938 140.479 260.903 146.586ZM395.221 149.381V160.871C373.586 189.545 355.988 203.882 342.428 203.882C335.078 203.882 329.281 199.896 325.037 191.926C320.897 183.852 318.826 173.293 318.826 160.25C318.826 149.691 321.311 137.166 326.28 122.674C331.248 108.078 337.873 93.3271 346.155 78.4209C354.539 63.4111 363.183 50.3682 372.085 39.292C381.091 28.1123 389.424 20.2969 397.084 15.8457C400.19 13.9824 402.622 13.0508 404.382 13.0508C406.556 13.0508 408.005 14.0342 408.73 16.001C409.454 17.8643 409.817 21.125 409.817 25.7832C409.817 40.1719 403.968 57.873 392.271 78.8867C380.573 99.7969 364.27 121.173 343.36 143.015C342.324 148.397 341.807 152.538 341.807 155.437C341.807 162.062 343.204 167.444 345.999 171.585C348.898 175.726 352.883 177.796 357.955 177.796C360.543 177.796 363.338 176.812 366.34 174.846C369.342 172.775 372.499 170.239 375.812 167.237C379.124 164.235 385.594 158.283 395.221 149.381ZM348.794 121.432C354.177 116.152 359.353 110.148 364.322 103.42C369.394 96.6914 374.155 89.4971 378.607 81.8369C383.058 74.1768 386.526 67.293 389.01 61.1855C391.598 55.0781 392.892 50.4717 392.892 47.3662C392.892 44.9854 392.064 43.7949 390.407 43.7949C389.786 43.7949 388.596 44.3643 386.836 45.5029C380.522 50.6787 373.431 60.8232 365.564 75.9365C357.697 90.9463 352.107 106.111 348.794 121.432ZM481.093 151.399V161.803C470.017 172.672 460.96 181.108 453.921 187.112C446.985 193.116 440.463 197.774 434.356 201.087C428.352 204.399 422.452 206.056 416.655 206.056C410.962 206.056 405.734 203.83 400.972 199.379C396.211 194.824 392.484 188.924 389.793 181.678C387.101 174.328 385.755 166.564 385.755 158.387C385.755 151.348 387.308 145.085 390.414 139.599C393.519 134.112 399.523 127.021 408.425 118.326C418.984 107.975 428.766 100.004 437.772 94.4141C446.881 88.7207 454.024 85.874 459.2 85.874C462.926 85.874 466.084 87.168 468.671 89.7559C471.259 92.3438 472.553 95.6045 472.553 99.5381C472.553 102.851 470.845 107.561 467.429 113.668C464.013 119.775 460.183 125.106 455.939 129.661C451.695 134.112 448.331 136.338 445.846 136.338C443.155 136.338 441.809 134.889 441.809 131.99C441.913 131.162 441.964 130.386 441.964 129.661C442.068 128.937 442.12 128.212 442.12 127.487C442.12 126.245 441.654 125.572 440.722 125.469C439.894 125.262 438.859 125.624 437.617 126.556C427.265 133.802 420.174 138.926 416.344 141.928C412.514 144.826 409.461 147.776 407.183 150.778C405.009 153.78 403.922 156.938 403.922 160.25C403.922 166.357 405.889 171.326 409.823 175.156C413.756 178.986 418.88 180.901 425.195 180.901C431.716 180.901 439.532 178.417 448.641 173.448C457.854 168.376 468.671 161.026 481.093 151.399ZM573.953 150.778V161.182C567.121 167.393 561.635 171.533 557.494 173.604C553.353 175.674 547.401 176.502 539.638 176.088C526.181 192.029 514.328 200 504.08 200C498.283 200 493.004 198.085 488.242 194.255C483.48 190.425 479.65 185.197 476.752 178.572C473.957 171.947 472.56 164.546 472.56 156.368C472.56 149.743 474.733 142.394 479.081 134.319C483.532 126.245 489.226 118.74 496.161 111.805C503.2 104.766 510.705 99.124 518.676 94.8799C526.646 90.5322 534.048 88.3584 540.88 88.3584C545.745 88.3584 549.575 89.1348 552.37 90.6875C555.165 92.1367 556.562 94.207 556.562 96.8984C556.562 98.9688 555.372 101.35 552.991 104.041C556.925 104.869 559.616 106.267 561.065 108.233C562.515 110.097 563.239 113.564 563.239 118.637C563.239 123.605 562.049 129.868 559.668 137.425C557.391 144.981 554.233 152.072 550.196 158.697L552.991 161.492H555.32C557.08 161.492 558.788 161.078 560.444 160.25C562.204 159.318 563.757 158.387 565.102 157.455C566.448 156.42 569.398 154.194 573.953 150.778ZM541.967 109.941C533.375 115.117 526.025 119.827 519.918 124.071C513.81 128.212 508.635 132.456 504.391 136.804C500.146 141.048 497.3 145.344 495.851 149.691C493.263 161.285 491.969 167.548 491.969 168.479C491.969 175.312 496.73 178.728 506.254 178.728C510.705 178.728 518.158 174.897 528.613 167.237C526.853 162.372 525.974 157.714 525.974 153.263C525.974 146.741 527.319 140.116 530.011 133.388C532.702 126.556 536.687 118.74 541.967 109.941ZM638.398 172.361C652.683 159.732 664.95 148.76 675.198 139.443C685.446 130.023 693.468 122.622 699.265 117.239C705.165 111.856 710.341 107.302 714.792 103.575C719.243 99.8486 722.09 97.9854 723.332 97.9854C725.713 97.8818 727.991 100.366 730.164 105.438C732.338 110.407 733.425 114.393 733.425 117.395C733.425 119.361 730.113 124.02 723.488 131.369C716.966 138.615 712.049 144.412 708.737 148.76C705.528 153.107 703.923 157.662 703.923 162.424C703.923 165.219 704.855 167.496 706.718 169.256C708.581 170.912 710.807 171.74 713.395 171.74C716.397 171.74 719.968 170.188 724.109 167.082C728.353 163.977 734.978 158.438 743.984 150.468V161.492C734.978 169.98 726.8 177.33 719.451 183.541C712.101 189.648 705.683 194.255 700.197 197.36C694.814 200.362 690.311 201.863 686.688 201.863C683.479 201.863 680.787 200.673 678.614 198.292C676.44 195.808 675.353 192.754 675.353 189.131C675.353 185.611 675.974 182.04 677.216 178.417C678.458 174.794 680.373 170.498 682.961 165.529C685.549 160.561 688.965 154.608 693.209 147.673C697.453 140.634 701.335 134.216 704.855 128.419C694.296 137.011 684.928 145.292 676.75 153.263C668.573 161.233 661.896 168.221 656.72 174.225C651.544 180.125 647.455 184.783 644.453 188.199C638.657 194.617 633.274 197.826 628.305 197.826C622.922 197.826 620.231 193.996 620.231 186.336C620.231 183.23 622.249 177.692 626.286 169.722C630.324 161.647 636.069 151.399 643.522 138.978C644.143 138.149 644.453 136.855 644.453 135.096C644.453 133.025 643.418 131.99 641.348 131.99C639.071 131.99 635.758 134.164 631.41 138.512C627.166 142.756 618.885 151.71 606.567 165.374C603.151 169.204 599.269 174.225 594.921 180.436C590.677 186.543 587.623 190.632 585.76 192.702C583.897 194.772 582.034 195.808 580.17 195.808C576.444 195.808 572.976 192.495 569.767 185.87C566.558 179.245 564.953 171.533 564.953 162.734C564.953 156.316 565.989 150.778 568.059 146.12C570.233 141.462 573.545 135.665 577.996 128.729C584.932 118.688 590.574 111.546 594.921 107.302C599.372 102.954 604.031 100.78 608.896 100.78C611.898 100.78 614.434 101.401 616.504 102.644C618.575 103.782 619.61 105.387 619.61 107.457C619.61 109.631 617.695 113.202 613.865 118.171C610.138 123.14 605.376 128.264 599.579 133.543C596.474 136.545 593.524 140.271 590.729 144.723C587.934 149.07 586.536 152.228 586.536 154.194C586.536 156.989 587.623 158.387 589.797 158.387C591.557 158.387 596.008 154.764 603.151 147.518C610.293 140.271 618.109 132.404 626.597 123.916C635.189 115.324 643.108 108.233 650.354 102.644C657.703 96.9502 663.914 94.1035 668.987 94.1035C672.092 94.1035 674.628 95.2939 676.595 97.6748C678.665 99.9521 679.701 102.799 679.701 106.215C679.701 108.492 678.148 112.633 675.042 118.637C671.937 124.537 667.382 131.887 661.378 140.686C655.478 149.381 647.818 159.939 638.398 172.361ZM761.381 156.679V160.561C761.381 166.668 762.882 171.43 765.883 174.846C768.885 178.262 772.819 179.97 777.684 179.97C782.757 179.97 787.984 178.779 793.367 176.398C798.853 174.018 804.288 170.86 809.671 166.927C815.053 162.993 821.627 157.714 829.39 151.089V160.561C817.693 174.639 806.72 185.456 796.472 193.013C786.224 200.466 775.821 204.192 765.262 204.192C756.049 204.192 748.752 200.621 743.369 193.479C737.986 186.336 735.295 176.554 735.295 164.132C735.295 153.263 737.831 143.429 742.903 134.63C747.975 125.728 756.257 116.359 767.747 106.525C775.614 99.7969 783.429 94.7246 791.193 91.3086C798.957 87.8926 805.892 86.1846 812 86.1846C816.865 86.1846 820.695 87.3232 823.49 89.6006C826.388 91.7744 827.838 95.0869 827.838 99.5381C827.838 106.06 825.405 112.581 820.54 119.103C815.674 125.521 808.221 131.938 798.18 138.356C788.243 144.671 775.976 150.778 761.381 156.679ZM762.933 146.586C772.25 142.963 780.22 138.46 786.845 133.077C793.47 127.694 798.336 122.57 801.441 117.705C804.65 112.736 806.255 109.113 806.255 106.836C806.255 104.455 805.168 103.265 802.994 103.265C801.131 103.265 798.077 104.455 793.833 106.836C789.692 109.217 785.448 112.322 781.1 116.152C776.856 119.982 773.026 124.485 769.61 129.661C766.194 134.837 763.968 140.479 762.933 146.586ZM841.042 203.882C837.729 202.64 835.556 201.708 834.521 201.087C833.589 200.466 833.123 199.172 833.123 197.205C833.123 194.41 834.728 190.735 837.937 186.181C841.249 181.522 844.976 177.485 849.116 174.069C853.257 170.55 856.621 168.79 859.209 168.79C863.039 168.79 864.954 171.119 864.954 175.777C864.954 181.057 861.797 188.096 855.482 196.895C849.271 205.59 843.63 211.594 838.558 214.906C835.142 217.184 833.434 217.494 833.434 215.838C833.434 215.113 833.692 214.389 834.21 213.664C834.831 213.043 835.866 211.697 837.315 209.627C838.868 207.66 840.11 205.745 841.042 203.882ZM932.66 123.295C948.394 109.01 963.662 98.3994 978.465 91.4639C993.268 84.5283 1004.71 81.0605 1012.78 81.0605C1014.95 81.0605 1016.97 81.9922 1018.84 83.8555C1020.7 85.6152 1022.15 87.6855 1023.18 90.0664C1024.32 92.4473 1024.89 94.207 1024.89 95.3457C1024.89 97.209 1024.17 98.6064 1022.72 99.5381C1021.27 100.366 1018.73 101.401 1015.11 102.644C1015.83 104.3 1016.77 106.422 1017.9 109.01C1019.04 111.598 1019.92 113.72 1020.54 115.376C1021.17 116.929 1021.48 118.326 1021.48 119.568C1021.48 122.053 1018.94 126.711 1013.87 133.543C1008.9 140.271 1005.38 145.24 1003.31 148.449C1001.34 151.658 1000.36 155.592 1000.36 160.25C1000.36 167.91 1003.88 171.74 1010.92 171.74C1018.16 171.74 1029.5 164.96 1044.92 151.399V160.871C1018.73 189.959 999.996 204.503 988.713 204.503C984.676 204.503 981.778 203.157 980.018 200.466C978.362 197.878 977.534 193.996 977.534 188.82C977.534 180.643 980.484 168.79 986.384 153.263C971.271 170.032 960.039 181.988 952.69 189.131C945.34 196.17 939.285 199.689 934.523 199.689C932.245 199.689 929.399 197.723 925.983 193.789C922.567 189.855 919.513 184.783 916.822 178.572C914.234 172.258 912.94 165.736 912.94 159.008C912.94 154.143 913.406 150.105 914.337 146.896C915.269 143.584 917.08 140.22 919.772 136.804C922.463 133.388 926.759 128.885 932.66 123.295ZM1007.04 106.215C980.121 118.533 960.919 128.988 949.429 137.58C938.042 146.172 932.349 155.022 932.349 164.132C932.349 167.444 932.918 170.188 934.057 172.361C935.196 174.432 936.748 175.467 938.715 175.467C939.854 175.467 941.872 174.742 944.771 173.293C955.64 166.875 965.578 158.542 974.583 148.294C983.589 137.942 994.407 123.916 1007.04 106.215ZM1111.54 149.381V160.871C1089.91 189.545 1072.31 203.882 1058.75 203.882C1051.4 203.882 1045.6 199.896 1041.36 191.926C1037.22 183.852 1035.15 173.293 1035.15 160.25C1035.15 149.691 1037.63 137.166 1042.6 122.674C1047.57 108.078 1054.19 93.3271 1062.47 78.4209C1070.86 63.4111 1079.5 50.3682 1088.41 39.292C1097.41 28.1123 1105.74 20.2969 1113.4 15.8457C1116.51 13.9824 1118.94 13.0508 1120.7 13.0508C1122.88 13.0508 1124.32 14.0342 1125.05 16.001C1125.77 17.8643 1126.14 21.125 1126.14 25.7832C1126.14 40.1719 1120.29 57.873 1108.59 78.8867C1096.89 99.7969 1080.59 121.173 1059.68 143.015C1058.64 148.397 1058.13 152.538 1058.13 155.437C1058.13 162.062 1059.52 167.444 1062.32 171.585C1065.22 175.726 1069.2 177.796 1074.28 177.796C1076.86 177.796 1079.66 176.812 1082.66 174.846C1085.66 172.775 1088.82 170.239 1092.13 167.237C1095.44 164.235 1101.91 158.283 1111.54 149.381ZM1065.11 121.432C1070.5 116.152 1075.67 110.148 1080.64 103.42C1085.71 96.6914 1090.48 89.4971 1094.93 81.8369C1099.38 74.1768 1102.85 67.293 1105.33 61.1855C1107.92 55.0781 1109.21 50.4717 1109.21 47.3662C1109.21 44.9854 1108.38 43.7949 1106.73 43.7949C1106.11 43.7949 1104.92 44.3643 1103.16 45.5029C1096.84 50.6787 1089.75 60.8232 1081.88 75.9365C1074.02 90.9463 1068.43 106.111 1065.11 121.432ZM1178.16 149.381V160.871C1156.52 189.545 1138.93 203.882 1125.37 203.882C1118.02 203.882 1112.22 199.896 1107.98 191.926C1103.84 183.852 1101.76 173.293 1101.76 160.25C1101.76 149.691 1104.25 137.166 1109.22 122.674C1114.19 108.078 1120.81 93.3271 1129.09 78.4209C1137.48 63.4111 1146.12 50.3682 1155.02 39.292C1164.03 28.1123 1172.36 20.2969 1180.02 15.8457C1183.13 13.9824 1185.56 13.0508 1187.32 13.0508C1189.49 13.0508 1190.94 14.0342 1191.67 16.001C1192.39 17.8643 1192.76 21.125 1192.76 25.7832C1192.76 40.1719 1186.91 57.873 1175.21 78.8867C1163.51 99.7969 1147.21 121.173 1126.3 143.015C1125.26 148.397 1124.75 152.538 1124.75 155.437C1124.75 162.062 1126.14 167.444 1128.94 171.585C1131.84 175.726 1135.82 177.796 1140.89 177.796C1143.48 177.796 1146.28 176.812 1149.28 174.846C1152.28 172.775 1155.44 170.239 1158.75 167.237C1162.06 164.235 1168.53 158.283 1178.16 149.381ZM1131.73 121.432C1137.12 116.152 1142.29 110.148 1147.26 103.42C1152.33 96.6914 1157.09 89.4971 1161.55 81.8369C1166 74.1768 1169.46 67.293 1171.95 61.1855C1174.54 55.0781 1175.83 50.4717 1175.83 47.3662C1175.83 44.9854 1175 43.7949 1173.35 43.7949C1172.72 43.7949 1171.53 44.3643 1169.77 45.5029C1163.46 50.6787 1156.37 60.8232 1148.5 75.9365C1140.63 90.9463 1135.05 106.111 1131.73 121.432ZM1278.78 0.939453C1280.96 0.318359 1282.87 0.0078125 1284.53 0.0078125C1287.94 0.0078125 1291.67 1.09473 1295.71 3.26855C1299.85 5.44238 1303.32 8.49609 1306.11 12.4297C1301.25 19.5723 1293.33 31.2695 1282.35 47.5215C1271.48 63.7734 1263.36 75.9365 1257.98 84.0107C1252.59 92.085 1247.06 100.47 1241.36 109.165C1235.67 117.86 1231.37 124.589 1228.47 129.351C1230.44 129.765 1231.42 130.955 1231.42 132.922C1231.42 134.164 1230.18 136.286 1227.7 139.288C1225.32 142.29 1223.14 143.791 1221.18 143.791C1218.9 143.791 1216 141.721 1212.48 137.58C1208.96 133.439 1207.2 129.868 1207.2 126.866C1207.2 125.417 1207.98 122.933 1209.53 119.413C1211.19 115.894 1214.03 110.614 1218.07 103.575C1222.11 96.4326 1226.61 88.5654 1231.58 79.9736C1236.65 71.3818 1242.81 60.8232 1250.06 48.2979C1264.24 23.9717 1273.81 8.18555 1278.78 0.939453ZM1202.08 198.758C1198.97 198.758 1195.92 197.412 1192.92 194.721C1189.91 191.926 1188.41 188.044 1188.41 183.075C1188.41 176.554 1190.07 169.204 1193.38 161.026C1196.8 152.849 1200.32 148.76 1203.94 148.76C1206.22 148.76 1208.5 149.588 1210.77 151.244C1213.15 152.797 1215.17 155.022 1216.83 157.921C1218.48 160.819 1219.31 164.028 1219.31 167.548C1219.31 173.241 1217.4 179.866 1213.57 187.423C1209.74 194.979 1205.91 198.758 1202.08 198.758Z" fill="#FF4527"/>
</svg>
