<?xml version="1.0" standalone="no"?>
<!DOCTYPE svg PUBLIC "-//W3C//DTD SVG 1.1//EN" "http://www.w3.org/Graphics/SVG/1.1/DTD/svg11.dtd" >
<svg>
<metadata>
Created by FontForge 20110222 at Sat Dec 14 05:24:28 2013
 By Orthosie Webhosting
Typeface (c) The Monotype Corporation plc. Data (c) The Monotype Corporation plc/Type Solutions Inc.1990-1991 All Rights Reserved.
</metadata>
<defs>
<font id="ArialNarrowRegular" horiz-adv-x="934" >
  <font-face 
    font-family="ArialNarrowRegular"
    font-weight="400"
    font-stretch="condensed"
    units-per-em="2048"
    panose-1="2 11 5 6 2 2 2 3 2 4"
    ascent="1638"
    descent="-410"
    x-height="1062"
    cap-height="1466"
    bbox="-373 -628 2047 2224"
    underline-thickness="150"
    underline-position="-142"
    unicode-range="U+0020-F010"
  />
<missing-glyph horiz-adv-x="467" 
d="M44 0v1280h389v-1280h-389zM91 53h296v1184h-296v-1184z" />
    <glyph glyph-name=".notdef" horiz-adv-x="467" 
d="M44 0v1280h389v-1280h-389zM91 53h296v1184h-296v-1184z" />
    <glyph glyph-name=".null" horiz-adv-x="0" 
 />
    <glyph glyph-name="nonmarkingreturn" horiz-adv-x="467" 
 />
    <glyph glyph-name="space" unicode=" " horiz-adv-x="467" 
 />
    <glyph glyph-name="space" unicode="&#xa0;" horiz-adv-x="467" 
 />
    <glyph glyph-name="exclam" unicode="!" horiz-adv-x="467" 
d="M193 364l-45 777v325h183v-325l-42 -777h-96zM155 0v205h169v-205h-169z" />
    <glyph glyph-name="quotedbl" unicode="&#x22;" horiz-adv-x="596" 
d="M117 947l-41 279v240h168v-240l-37 -279h-90zM388 947l-39 279v240h168v-240l-40 -279h-89z" />
    <glyph glyph-name="numbersign" unicode="#" 
d="M82 -25l71 426h-138v149h163l61 363h-224v149h248l72 429h123l-72 -429h259l71 429h124l-72 -429h143v-149h-167l-61 -363h228v-149h-253l-71 -426h-124l71 426h-258l-71 -426h-123zM301 550h258l61 363h-258z" />
    <glyph glyph-name="dollar" unicode="$" 
d="M415 -211v180q-120 19 -189 67.5t-115 142.5t-54 228l149 34q19 -162 76.5 -236.5t132.5 -83.5v573q-98 22 -194 92q-64 46 -101 128.5t-37 192.5q0 113 42 205.5t110 140.5t180 62v86h88v-86q93 -11 156.5 -53t106.5 -118.5t57 -189.5l-152 -28q-25 201 -168 237v-519
q101 -31 130 -45q66 -31 114.5 -82t77 -127.5t28.5 -172.5q0 -195 -101 -316t-249 -130v-182h-88zM415 1365q-84 -16 -134.5 -82t-50.5 -169q0 -178 185 -247v498zM503 121q83 13 140.5 88.5t57.5 198.5q0 99 -42.5 158t-155.5 103v-548z" />
    <glyph glyph-name="percent" unicode="%" horiz-adv-x="1493" 
d="M94 1114q0 183 73 280t179 97q110 0 186 -97t76 -290q0 -189 -76 -288.5t-184 -99.5q-106 0 -180 98.5t-74 299.5zM351 1367q-55 0 -91.5 -58.5t-36.5 -205.5t36.5 -205t94.5 -58q53 0 89.5 58.5t36.5 204.5t-37 205t-92 59zM351 -54l658 1545h120l-655 -1545h-123z
M872 344q0 183 73 280t178 97q111 0 187 -96.5t76 -289.5q0 -190 -76.5 -289.5t-183.5 -99.5q-106 0 -180 99t-74 299zM1129 597q-56 0 -92.5 -58.5t-36.5 -205.5t37 -205t95 -58q52 0 88.5 59t36.5 205t-36.5 204.5t-91.5 58.5z" />
    <glyph glyph-name="ampersand" unicode="&#x26;" horiz-adv-x="1120" 
d="M799 173q-146 -198 -344 -198q-179 0 -280.5 134t-101.5 296q0 271 286 437q-79 111 -107 182.5t-28 139.5q0 139 87.5 233t210.5 94q118 0 199 -88.5t81 -224.5q0 -209 -227 -357l216 -335q35 86 57 204l153 -40q-39 -190 -106 -316q81 -132 187 -225l-99 -143
q-89 71 -184 207zM499 937q92 67 122 118t30 118q0 78 -40 124t-96 46q-57 0 -98.5 -45t-41.5 -117q0 -69 58 -151zM706 315l-270 409q-114 -83 -159 -156.5t-45 -151.5q0 -100 62 -191t162 -91q64 0 135 49t115 132z" />
    <glyph glyph-name="quotesingle" unicode="'" horiz-adv-x="322" 
d="M109 947l-38 274v245h168v-245l-39 -274h-91z" />
    <glyph glyph-name="parenleft" unicode="(" horiz-adv-x="559" 
d="M392 -431q-110 172 -200.5 424t-90.5 539q0 486 291 959h106q-112 -235 -154.5 -364.5t-67 -284.5t-24.5 -312q0 -480 246 -961h-106z" />
    <glyph glyph-name="parenright" unicode=")" horiz-adv-x="559" 
d="M167 -431h-106q245 481 245 961q0 157 -24.5 312t-66.5 284.5t-154 364.5h106q291 -473 291 -959q0 -279 -87 -530.5t-204 -432.5z" />
    <glyph glyph-name="asterisk" unicode="*" horiz-adv-x="653" 
d="M50 1197l38 142q130 -56 189 -97q-15 184 -16 249h119q-2 -96 -19 -248q83 51 193 96l38 -142q-105 -42 -204 -56q50 -53 141 -189l-98 -85q-46 76 -113 215q-61 -141 -107 -215l-96 85q90 138 136 189q-107 25 -201 56z" />
    <glyph glyph-name="plus" unicode="+" horiz-adv-x="981" 
d="M419 237v402h-327v168h327v399h140v-399h327v-168h-327v-402h-140z" />
    <glyph glyph-name="comma" unicode="," horiz-adv-x="467" 
d="M152 0v205h168v-205q0 -119 -35 -186.5t-102 -103.5l-41 77q45 24 68 71.5t25 141.5h-83z" />
    <glyph glyph-name="hyphen" unicode="-" horiz-adv-x="559" 
d="M53 440v181h453v-181h-453z" />
    <glyph glyph-name="hyphen" unicode="&#xad;" horiz-adv-x="559" 
d="M53 440v181h453v-181h-453z" />
    <glyph glyph-name="period" unicode="." horiz-adv-x="467" 
d="M155 0v205h168v-205h-168z" />
    <glyph glyph-name="slash" unicode="/" horiz-adv-x="467" 
d="M0 -25l348 1516h119l-349 -1516h-118z" />
    <glyph glyph-name="zero" unicode="0" 
d="M67 723q0 369 99.5 559t293.5 190q172 0 271 -154q120 -186 120 -595q0 -367 -99 -557.5t-294 -190.5q-172 0 -281.5 168t-109.5 580zM218 723q0 -357 68.5 -478.5t175.5 -121.5q101 0 169 123t68 477q0 358 -68.5 479t-177.5 121q-100 0 -167.5 -123t-67.5 -477z" />
    <glyph glyph-name="one" unicode="1" 
d="M623 0h-148v1147q-51 -60 -137 -122.5t-158 -94.5v174q122 70 215.5 171t131.5 197h96v-1472z" />
    <glyph glyph-name="two" unicode="2" 
d="M845 173v-173h-795q-3 105 63.5 235t243.5 307q207 206 271 318.5t64 209.5q0 112 -65.5 182.5t-161.5 70.5q-103 0 -169 -76t-66 -218l-152 19q16 211 119.5 317.5t272.5 106.5q184 0 278.5 -124t94.5 -282q0 -140 -74 -268.5t-281 -342.5q-132 -135 -170.5 -184
t-62.5 -98h590z" />
    <glyph glyph-name="three" unicode="3" 
d="M68 387l148 24q46 -288 233 -288q101 0 175 85.5t74 221.5q0 128 -68 206t-167 78q-42 0 -104 -20l17 158l23 -2q109 0 177 67t68 179q0 103 -57 165.5t-139 62.5q-85 0 -143.5 -65.5t-74.5 -198.5l-147 32q28 188 126 284t237 96q146 0 248 -108t102 -272
q0 -100 -43.5 -177t-121.5 -121q72 -20 119 -66t76 -123t29 -172q0 -202 -119 -330.5t-285 -128.5q-154 0 -261 112t-122 301z" />
    <glyph glyph-name="four" unicode="4" 
d="M540 0v351h-521v165l549 950h120v-950h163v-165h-163v-351h-148zM540 516v661l-376 -661h376z" />
    <glyph glyph-name="five" unicode="5" 
d="M67 384l155 16q18 -140 81.5 -208.5t147.5 -68.5q105 0 181 96.5t76 263.5q0 157 -73.5 243.5t-184.5 86.5q-67 0 -125.5 -37.5t-92.5 -104.5l-139 22l117 753h597v-172h-479l-65 -394q107 92 227 92q151 0 262.5 -128.5t111.5 -346.5q0 -215 -111.5 -368.5
t-299.5 -153.5q-156 0 -263.5 108.5t-122.5 300.5z" />
    <glyph glyph-name="six" unicode="6" 
d="M833 1107l-147 -14q-21 113 -62 161q-59 70 -142 70q-129 0 -207 -160q-67 -138 -68 -408q51 96 128 145.5t163 49.5q143 0 249.5 -129.5t106.5 -346.5q0 -147 -53.5 -266.5t-137.5 -176.5t-185 -57q-182 0 -300 164t-118 547q0 425 121 605.5t310 180.5
q137 0 229.5 -93.5t112.5 -271.5zM230 475q0 -159 75 -255.5t174 -96.5q87 0 155.5 91t68.5 250q0 156 -68 242t-166 86q-96 0 -167.5 -85.5t-71.5 -231.5z" />
    <glyph glyph-name="seven" unicode="7" 
d="M77 1274v173h778v-140q-174 -226 -306 -588.5t-152 -718.5h-152q3 184 58.5 429t152.5 467t209 378h-588z" />
    <glyph glyph-name="eight" unicode="8" 
d="M294 795q-89 40 -134.5 114.5t-45.5 185.5q0 167 98.5 272t247.5 105q150 0 249.5 -107t99.5 -276q0 -106 -44 -179.5t-133 -114.5q109 -43 167.5 -139t58.5 -238q0 -196 -113.5 -319.5t-281.5 -123.5q-170 0 -283.5 123.5t-113.5 324.5q0 147 60.5 242.5t167.5 129.5z
M266 1100q0 -108 57 -172t140 -64q81 0 138 63t57 163q0 103 -58.5 168.5t-138.5 65.5t-137.5 -64t-57.5 -160zM217 423q0 -135 72.5 -217.5t173.5 -82.5q102 0 173 80t71 214q0 135 -73 217.5t-175 82.5q-101 0 -171.5 -82t-70.5 -212z" />
    <glyph glyph-name="nine" unicode="9" 
d="M89 339l142 16q34 -232 200 -232q74 0 134.5 50.5t102.5 179.5t42 301v36q-46 -89 -124 -141t-159 -52q-147 0 -253.5 128.5t-106.5 351.5q0 230 110.5 362.5t268.5 132.5q112 0 209 -74t150 -218t53 -415q0 -302 -57 -469t-154.5 -244t-218.5 -77q-137 0 -229 93.5
t-110 270.5zM694 986q0 157 -70 247t-161 90q-95 0 -169.5 -96t-74.5 -256q0 -144 71 -229.5t170 -85.5q98 0 166 86t68 244z" />
    <glyph glyph-name="colon" unicode=":" horiz-adv-x="467" 
d="M155 857v205h168v-205h-168zM155 0v205h168v-205h-168z" />
    <glyph glyph-name="semicolon" unicode=";" horiz-adv-x="467" 
d="M152 857v205h168v-205h-168zM152 0v205h168v-205q0 -119 -35 -186.5t-102 -103.5l-41 77q45 24 68 71.5t25 141.5h-83z" />
    <glyph glyph-name="semicolon" unicode="&#x37e;" horiz-adv-x="467" 
d="M152 857v205h168v-205h-168zM152 0v205h168v-205q0 -119 -35 -186.5t-102 -103.5l-41 77q45 24 68 71.5t25 141.5h-83z" />
    <glyph glyph-name="less" unicode="&#x3c;" horiz-adv-x="981" 
d="M90 641v168l796 410v-179l-631 -316l631 -319v-179z" />
    <glyph glyph-name="equal" unicode="=" horiz-adv-x="981" 
d="M886 862h-794v168h794v-168zM886 417h-794v168h794v-168z" />
    <glyph glyph-name="greater" unicode="&#x3e;" horiz-adv-x="981" 
d="M886 641l-796 -415v179l631 319l-631 316v179l796 -410v-168z" />
    <glyph glyph-name="question" unicode="?" 
d="M385 361l-2 54q0 145 49 243q34 68 143 185q74 79 97 128.5t23 107.5q0 110 -70 187t-161 77q-93 0 -157.5 -71t-83.5 -226l-152 22q22 212 125.5 317.5t266.5 105.5q164 0 273.5 -112.5t109.5 -287.5q0 -96 -36 -176t-144 -198q-92 -99 -114.5 -156.5t-25.5 -199.5h-141
zM375 0v205h168v-205h-168z" />
    <glyph glyph-name="at" unicode="@" horiz-adv-x="1704" 
d="M950 163q-58 -82 -124.5 -124t-123.5 -42q-120 0 -202 109q-99 132 -99 340q0 168 71 327.5t168 235t190 75.5q68 0 133 -46t112 -138l27 155h148l-119 -671q-24 -139 -24 -155q0 -29 17 -47.5t40 -18.5q44 0 125 70t136 203.5t55 282.5q0 178 -77 322t-212.5 225
t-294.5 81q-189 0 -342 -102t-248.5 -303.5t-95.5 -460.5q0 -244 86 -415t245.5 -260t378.5 -89q197 0 346.5 82.5t227.5 219.5h148q-49 -121 -161.5 -231.5t-248.5 -164.5t-313 -54q-259 0 -440 104t-285.5 306.5t-104.5 487.5q0 303 115 549t290.5 361.5t409.5 115.5
q196 0 352.5 -96t251 -278.5t94.5 -403.5q0 -300 -174 -527q-147 -192 -320 -192q-82 0 -116.5 40.5t-41.5 126.5zM553 434q0 -138 54.5 -213.5t122.5 -75.5q58 0 128 58.5t120 182.5t50 261q0 140 -56 214t-135 74q-61 0 -122.5 -52t-111.5 -186t-50 -263z" />
    <glyph glyph-name="A" unicode="A" horiz-adv-x="1120" 
d="M-2 0l462 1466h171l492 -1466h-182l-140 444h-502l-132 -444h-169zM345 602h407l-125 406q-58 187 -85 304q-23 -141 -65 -280z" />
    <glyph glyph-name="B" unicode="B" horiz-adv-x="1120" 
d="M124 0v1466h451q137 0 217 -42.5t131 -132.5t51 -199q0 -101 -44 -182t-124 -130q105 -38 165.5 -129.5t60.5 -225.5q0 -133 -54.5 -233.5t-145.5 -146t-250 -45.5h-458zM283 850h260q102 0 145 14q62 21 95.5 70.5t33.5 134.5q0 79 -30.5 131.5t-81 72.5t-181.5 20h-241
v-443zM283 173h299q99 0 146 18q68 26 103.5 85.5t35.5 149.5q0 83 -34 140.5t-91.5 84t-180.5 26.5h-278v-504z" />
    <glyph glyph-name="C" unicode="C" horiz-adv-x="1212" 
d="M983 514l160 -49q-53 -247 -185.5 -368.5t-322.5 -121.5q-167 0 -285.5 81.5t-194 261.5t-75.5 425q0 242 75.5 409.5t204.5 253t288 85.5q174 0 299 -108.5t175 -318.5l-156 -45q-80 306 -321 306q-120 0 -208 -61.5t-140.5 -191.5t-52.5 -329q0 -301 106 -451.5
t282 -150.5q130 0 224.5 92.5t126.5 280.5z" />
    <glyph glyph-name="D" unicode="D" horiz-adv-x="1212" 
d="M126 0v1466h415q154 0 234 -27q105 -35 182 -128t120 -234.5t43 -335.5q0 -249 -73 -422.5t-187.5 -246t-299.5 -72.5h-434zM285 173h256q155 0 235 50.5t123 162.5q57 149 57 357q0 223 -60.5 350.5t-155.5 170.5q-64 29 -203 29h-252v-1120z" />
    <glyph glyph-name="E" unicode="E" horiz-adv-x="1120" 
d="M133 0v1466h869v-173h-710v-449h665v-172h-665v-499h738v-173h-897z" />
    <glyph glyph-name="F" unicode="F" horiz-adv-x="1026" 
d="M141 0v1466h811v-173h-652v-454h564v-173h-564v-666h-159z" />
    <glyph glyph-name="G" unicode="G" horiz-adv-x="1307" 
d="M696 575v172l509 1v-544q-117 -114 -242 -171.5t-257 -57.5q-176 0 -314 88t-218.5 257t-80.5 406q0 240 81 418t212 262.5t310 84.5q132 0 231 -49t163 -139t96 -247l-143 -48q-29 124 -73 185.5t-116 96.5t-162 35q-131 0 -225.5 -63.5t-152 -197.5t-57.5 -327
q0 -294 123 -440.5t320 -146.5q94 0 192.5 45t156.5 107v273h-353z" />
    <glyph glyph-name="H" unicode="H" horiz-adv-x="1212" 
d="M129 0v1466h159v-602h625v602h159v-1466h-159v691h-625v-691h-159z" />
    <glyph glyph-name="I" unicode="I" horiz-adv-x="467" 
d="M160 0v1466h159v-1466h-159z" />
    <glyph glyph-name="J" unicode="J" horiz-adv-x="840" 
d="M45 416l143 24q6 -168 52 -230t127 -62q57 0 100.5 31.5t58.5 79.5q21 65 21 197v1010h159v-999q0 -270 -88.5 -381t-249.5 -111q-157 0 -234 100q-89 114 -89 341z" />
    <glyph glyph-name="K" unicode="K" horiz-adv-x="1120" 
d="M124 0v1466h159v-727l597 727h216l-505 -594l527 -872h-210l-428 742l-197 -234v-508h-159z" />
    <glyph glyph-name="L" unicode="L" 
d="M120 0v1466h159v-1293h592v-173h-751z" />
    <glyph glyph-name="M" unicode="M" horiz-adv-x="1399" 
d="M125 0v1466h239l285 -1038l57 -217q21 81 64 235l288 1020h214v-1466h-153v1227l-350 -1227h-143l-348 1248v-1248h-153z" />
    <glyph glyph-name="N" unicode="N" horiz-adv-x="1212" 
d="M125 0v1466h163l632 -1151v1151h152v-1466h-163l-631 1152v-1152h-153z" />
    <glyph glyph-name="O" unicode="O" horiz-adv-x="1307" 
d="M85 714q0 375 165 576.5t411 201.5q159 0 290 -90t207.5 -261.5t76.5 -408.5q0 -326 -148 -531q-163 -226 -427 -226q-266 0 -428 232q-147 210 -147 507zM249 711q0 -271 119.5 -420.5t290.5 -149.5q175 0 293.5 151t118.5 444q0 189 -61 338q-47 114 -141.5 182.5
t-206.5 68.5q-180 0 -296.5 -150t-116.5 -464z" />
    <glyph glyph-name="P" unicode="P" horiz-adv-x="1120" 
d="M130 0v1466h453q160 0 236 -28q104 -38 166 -141t62 -253q0 -198 -101 -323t-349 -125h-308v-596h-159zM289 769h311q147 0 215 66.5t68 200.5q0 87 -33.5 149t-81 85t-171.5 23h-308v-524z" />
    <glyph glyph-name="Q" unicode="Q" horiz-adv-x="1307" 
d="M1045 157q111 -93 204 -136l-47 -135q-132 58 -258 180q-133 -91 -294 -91q-264 0 -427 231q-147 208 -147 526q0 238 79 412.5t207.5 261t289.5 86.5q159 0 289.5 -89.5t207.5 -261t77 -405.5q0 -183 -47.5 -331t-133.5 -248zM694 405q137 -46 227 -140q140 158 140 471
q0 189 -53.5 321t-148 200t-206.5 68q-178 0 -295.5 -149.5t-117.5 -443.5q0 -290 119 -440.5t294 -150.5q84 0 160 39q-74 59 -158 84z" />
    <glyph glyph-name="R" unicode="R" horiz-adv-x="1212" 
d="M129 0v1466h533q167 0 246.5 -41t130.5 -136.5t51 -221.5q0 -166 -86.5 -269t-251.5 -131q67 -40 102 -81q71 -84 125 -187l210 -399h-200l-160 305q-93 179 -140.5 241t-92 83.5t-124.5 21.5h-184v-651h-159zM288 819h342q112 0 170 27t92 85t34 135q0 111 -65 174.5
t-193 63.5h-380v-485z" />
    <glyph glyph-name="S" unicode="S" horiz-adv-x="1120" 
d="M76 471l150 16q12 -121 54.5 -188.5t121.5 -108.5t178 -41q142 0 220.5 69.5t78.5 180.5q0 65 -28.5 113.5t-86 79.5t-248.5 87q-170 50 -242 101t-112 129.5t-40 177.5q0 178 115 291t310 113q134 0 234.5 -53t156 -152t59.5 -233l-153 -14q-12 143 -85.5 212t-206.5 69
q-135 0 -206 -60.5t-71 -156.5q0 -89 52 -138t234 -99q178 -49 250 -85q110 -56 166 -147.5t56 -218.5q0 -126 -59 -229.5t-160.5 -157.5t-244.5 -54q-223 0 -355.5 134t-137.5 363z" />
    <glyph glyph-name="T" unicode="T" horiz-adv-x="1026" 
d="M438 0v1293h-396v173h953v-173h-398v-1293h-159z" />
    <glyph glyph-name="U" unicode="U" horiz-adv-x="1212" 
d="M915 1466h160v-847q0 -213 -41.5 -349.5t-151 -215.5t-278.5 -79q-238 0 -356.5 142t-118.5 502v847h159v-846q0 -199 31 -288t101.5 -135.5t171.5 -46.5q170 0 246.5 96t76.5 374v846z" />
    <glyph glyph-name="V" unicode="V" horiz-adv-x="1120" 
d="M474 0l-466 1466h172l313 -1065q36 -124 63 -240q28 121 64 240l325 1065h162l-470 -1466h-163z" />
    <glyph glyph-name="W" unicode="W" horiz-adv-x="1585" 
d="M342 0l-319 1466h163l183 -961q29 -148 51 -300l54 271l229 990h192l172 -742q63 -271 94 -519q23 143 59 319l189 942h160l-330 -1466h-153l-254 1117l-38 172q-17 -96 -35 -172l-255 -1117h-162z" />
    <glyph glyph-name="X" unicode="X" horiz-adv-x="1120" 
d="M8 0l465 764l-410 702h189l219 -376q67 -116 96 -180q39 78 95 167l243 389h172l-422 -691l455 -775h-196l-303 523q-25 44 -52 98q-41 -80 -58 -110l-302 -511h-191z" />
    <glyph glyph-name="Y" unicode="Y" horiz-adv-x="1120" 
d="M468 0v621l-463 845h194l236 -442q70 -131 123 -248q53 115 131 259l233 431h185l-480 -845v-621h-159z" />
    <glyph glyph-name="Z" unicode="Z" horiz-adv-x="1026" 
d="M36 0v180l616 939q64 98 125 174h-672v173h861v-173l-674 -1017l-73 -103h767v-173h-950z" />
    <glyph glyph-name="bracketleft" unicode="[" horiz-adv-x="467" 
d="M117 -407v1873h326v-149h-179v-1575h179v-149h-326z" />
    <glyph glyph-name="backslash" unicode="\" horiz-adv-x="467" 
d="M348 -25l-348 1516h119l348 -1516h-119z" />
    <glyph glyph-name="bracketright" unicode="]" horiz-adv-x="467" 
d="M362 -407h-326v149h178v1575h-178v149h326v-1873z" />
    <glyph glyph-name="asciicircum" unicode="^" horiz-adv-x="788" 
d="M196 690h-151l290 801h119l290 -801h-148l-203 597z" />
    <glyph glyph-name="underscore" unicode="_" 
d="M-12 -154h955v-102h-955v102z" />
    <glyph glyph-name="grave" unicode="`" horiz-adv-x="559" 
d="M381 1194h-119l-189 280h198z" />
    <glyph glyph-name="a" unicode="a" 
d="M676 131q-74 -77 -154 -116t-166 -39q-136 0 -217 82t-81 221q0 92 38 163t104 111t200 59q180 26 264 62l1 46q0 109 -39 153q-55 64 -169 64q-103 0 -154 -42.5t-75 -159.5l-145 24q31 171 125.5 249t270.5 78q137 0 215 -51.5t98.5 -127.5t20.5 -222v-240
q0 -252 9.5 -317.5t37.5 -127.5h-154q-23 55 -30 131zM664 533q-81 -40 -241 -68q-93 -16 -130 -36.5t-57.5 -58t-20.5 -86.5q0 -76 47 -121.5t130 -45.5q79 0 143.5 41t96.5 109.5t32 199.5v66z" />
    <glyph glyph-name="b" unicode="b" 
d="M244 0h-137v1466h147v-523q47 72 106.5 107.5t132.5 35.5q102 0 185.5 -61t133.5 -185t50 -301q0 -270 -113 -416.5t-264 -146.5q-76 0 -136.5 39.5t-104.5 117.5v-133zM242 539q0 -165 30 -247t85 -125t122 -43q91 0 161.5 102.5t70.5 306.5q0 209 -68 307t-167 98
q-91 0 -162.5 -102.5t-71.5 -296.5z" />
    <glyph glyph-name="c" unicode="c" horiz-adv-x="840" 
d="M679 389l145 -23q-25 -190 -125.5 -290t-241.5 -100q-171 0 -281.5 140.5t-110.5 415.5q0 277 111.5 415.5t286.5 138.5q135 0 227.5 -84t118.5 -252l-143 -27q-21 108 -73 161.5t-125 53.5q-109 0 -180.5 -96.5t-71.5 -306.5q0 -217 68.5 -314t175.5 -97
q84 0 143.5 64.5t75.5 200.5z" />
    <glyph glyph-name="d" unicode="d" 
d="M673 0v134q-40 -77 -103 -117.5t-136 -40.5q-154 0 -266.5 145.5t-112.5 409.5q0 181 50 307t133.5 187t185.5 61q73 0 135.5 -38.5t103.5 -107.5v526h148v-1466h-138zM206 530q0 -206 71.5 -306t166.5 -100q94 0 163 96t69 290q0 223 -69 325.5t-174 102.5
q-93 0 -160 -98.5t-67 -309.5z" />
    <glyph glyph-name="e" unicode="e" 
d="M704 342l152 -23q-38 -170 -137.5 -256.5t-246.5 -86.5q-185 0 -299.5 140.5t-114.5 405.5q0 275 115.5 419.5t292.5 144.5q169 0 282 -142t113 -411l-1 -48h-650q9 -179 83 -270t180 -91q166 0 231 218zM219 633h486q-10 138 -59 206q-71 99 -181 99q-99 0 -169 -82.5
t-77 -222.5z" />
    <glyph glyph-name="f" unicode="f" horiz-adv-x="467" 
d="M150 0v922h-131v140h131v113q0 125 26 187.5t79.5 95.5t134.5 33q63 0 138 -18l-22 -157q-46 10 -87 10q-66 0 -94.5 -34.5t-28.5 -131.5v-98h170v-140h-170v-922h-146z" />
    <glyph glyph-name="g" unicode="g" 
d="M80 -88l144 -26q10 -85 60 -126.5t139 -41.5q97 0 154.5 46.5t78.5 138.5q13 56 13 236q-48 -69 -108 -104t-133 -35q-156 0 -259 132q-118 152 -118 407q0 171 52 299t136.5 188t189.5 60q77 0 140.5 -38t112.5 -114v128h136v-918q0 -245 -40 -349.5t-131 -165
t-219 -60.5q-169 0 -260 91t-88 252zM203 550q0 -209 69 -305t169 -96t170 94t70 299q0 200 -72 297.5t-175 97.5q-92 0 -161.5 -97.5t-69.5 -289.5z" />
    <glyph glyph-name="h" unicode="h" 
d="M108 0v1466h147v-526q52 73 117.5 109.5t144.5 36.5q139 0 219.5 -88.5t80.5 -324.5v-673h-147v673q0 138 -49 198t-135 60q-96 0 -163.5 -77t-67.5 -273v-581h-147z" />
    <glyph glyph-name="i" unicode="i" horiz-adv-x="373" 
d="M108 1259v207h147v-207h-147zM108 0v1062h147v-1062h-147z" />
    <glyph glyph-name="j" unicode="j" horiz-adv-x="373" 
d="M107 1257v209h147v-209h-147zM-80 -412l28 153q44 -14 69 -14q47 0 68.5 37t21.5 182v1116h147v-1120q0 -217 -55.5 -295t-162.5 -78q-60 0 -116 19z" />
    <glyph glyph-name="k" unicode="k" horiz-adv-x="840" 
d="M112 0v1466h147v-836l350 432h191l-333 -394l366 -668h-181l-289 543l-104 -122v-421h-147z" />
    <glyph glyph-name="l" unicode="l" horiz-adv-x="373" 
d="M104 0v1466h147v-1466h-147z" />
    <glyph glyph-name="m" unicode="m" horiz-adv-x="1399" 
d="M110 0v1062h132v-149q44 83 113 128t151 45q92 0 155.5 -47.5t90.5 -138.5q52 93 119.5 139.5t149.5 46.5q125 0 197 -85t72 -272v-729h-147v669q0 114 -16.5 161.5t-53.5 73.5t-83 26q-95 0 -155 -75.5t-60 -237.5v-617h-148v690q0 132 -40.5 186t-111.5 54
q-101 0 -159.5 -81.5t-58.5 -297.5v-551h-147z" />
    <glyph glyph-name="n" unicode="n" 
d="M108 0v1062h133v-151q48 88 117.5 131.5t159.5 43.5q70 0 129.5 -27.5t96 -72t54.5 -115.5t18 -218v-653h-148v646q0 117 -20 171t-62.5 83.5t-98.5 29.5q-106 0 -169 -79t-63 -271v-580h-147z" />
    <glyph glyph-name="o" unicode="o" 
d="M53 531q0 275 115.5 415t292.5 140q174 0 291 -140t117 -404q0 -286 -115 -426t-293 -140q-175 0 -291.5 140.5t-116.5 414.5zM204 531q0 -206 75 -306.5t186 -100.5q104 0 178.5 101.5t74.5 305.5q0 205 -75 305.5t-186 100.5q-105 0 -179 -101t-74 -305z" />
    <glyph glyph-name="p" unicode="p" 
d="M108 -407v1469h135v-138q50 86 111 124t140 38q103 0 186 -61t133.5 -185.5t50.5 -299.5q0 -271 -113.5 -417.5t-266.5 -146.5q-68 0 -127 35t-102 99v-517h-147zM241 525q0 -206 69 -303.5t167 -97.5q94 0 165 101t71 312q0 208 -69 308t-168 100q-89 0 -162 -107.5
t-73 -312.5z" />
    <glyph glyph-name="q" unicode="q" 
d="M663 -407v520q-35 -61 -97.5 -99t-125.5 -38q-156 0 -270 148t-114 417q0 234 96 389.5t272 155.5q81 0 144 -41.5t109 -124.5v142h133v-1469h-147zM207 534q0 -207 72 -308.5t172 -101.5q89 0 158 97.5t69 290.5q0 219 -72.5 325.5t-172.5 106.5q-91 0 -158.5 -99.5
t-67.5 -310.5z" />
    <glyph glyph-name="r" unicode="r" horiz-adv-x="559" 
d="M108 0v1062h133v-161q51 112 93.5 148.5t95.5 36.5q74 0 151 -58l-50 -167q-55 39 -107 39q-47 0 -86 -33t-55 -92q-28 -103 -28 -219v-556h-147z" />
    <glyph glyph-name="s" unicode="s" horiz-adv-x="840" 
d="M52 317l146 28q13 -112 71 -166.5t154 -54.5t148.5 47.5t52.5 120.5q0 63 -45 98q-31 24 -150 60q-172 53 -230 90t-90 99t-32 141q0 136 87 221t241 85q97 0 170.5 -35t112.5 -94t54 -169l-144 -24q-20 174 -189 174q-96 0 -143 -38.5t-47 -98.5q0 -59 45 -93
q27 -20 160 -64q183 -59 237 -93.5t84 -94t30 -141.5q0 -152 -96.5 -246t-263.5 -94q-313 0 -363 342z" />
    <glyph glyph-name="t" unicode="t" horiz-adv-x="467" 
d="M437 161l20 -159q-61 -16 -110 -16q-77 0 -124 30.5t-64.5 83.5t-17.5 211v611h-108v140h108v263l147 108v-371h149v-140h-149v-621q0 -86 13 -111q19 -36 71 -36q25 0 65 7z" />
    <glyph glyph-name="u" unicode="u" 
d="M679 0v156q-51 -90 -120 -135t-156 -45q-103 0 -176 55.5t-97.5 140.5t-24.5 232v658h147v-589q0 -164 16.5 -219.5t61 -89t101.5 -33.5q106 0 174 87q58 75 58 275v569h148v-1062h-132z" />
    <glyph glyph-name="v" unicode="v" horiz-adv-x="840" 
d="M352 0l-331 1062h156l187 -636q32 -108 56 -214q19 84 54 202l194 648h152l-330 -1062h-138z" />
    <glyph glyph-name="w" unicode="w" horiz-adv-x="1212" 
d="M268 0l-266 1062h153l138 -613l51 -228l46 219l138 622h152l130 -616l44 -203l50 205l149 614h144l-273 -1062h-153l-139 636l-33 181l-176 -817h-155z" />
    <glyph glyph-name="x" unicode="x" horiz-adv-x="840" 
d="M12 0l318 552l-294 510h184l134 -249q37 -69 61 -119q37 68 66 117l147 251h176l-301 -500l324 -562h-181l-179 330l-47 89l-229 -419h-179z" />
    <glyph glyph-name="y" unicode="y" horiz-adv-x="840" 
d="M104 -409l-16 169q49 -16 84 -16q47 0 77.5 19t50.5 59q7 14 58 176l-331 1064h159l182 -615q34 -115 63 -246q25 124 60 242l186 619h148l-331 -1080q-65 -210 -102.5 -280.5t-85 -101.5t-107.5 -31q-42 0 -95 22z" />
    <glyph glyph-name="z" unicode="z" horiz-adv-x="840" 
d="M33 0v146l555 776q-95 -6 -167 -6h-355v146h712v-119l-472 -674l-91 -123q99 9 186 9h403v-155h-771z" />
    <glyph glyph-name="braceleft" unicode="{" horiz-adv-x="561" 
d="M46 612q56 1 96 35.5t56.5 100t17.5 251.5q1 182 7 242q11 97 50 161q28 47 75 68t127 21h46v-157h-26q-84 0 -112.5 -36.5t-28.5 -168.5q0 -276 -12 -350q-16 -100 -52 -153.5t-107 -95.5q87 -45 129 -138t42 -312q0 -221 7 -258q10 -53 37 -74.5t97 -21.5h26v-157h-46
q-86 0 -129 21.5t-70 62.5q-37 56 -48 131t-12 277q-1 186 -18 252.5t-56 100t-96 35.5v163z" />
    <glyph glyph-name="bar" unicode="|" horiz-adv-x="436" 
d="M156 -431v1922h129v-1922h-129z" />
    <glyph glyph-name="braceright" unicode="}" horiz-adv-x="561" 
d="M512 612v-163q-57 -2 -96.5 -36t-56 -100.5t-17.5 -251.5q-1 -181 -7 -240q-11 -97 -50 -162q-28 -48 -75 -69t-127 -21h-46v157h26q83 0 111.5 37t28.5 169q0 277 13 353q17 99 56.5 156t102.5 89q-94 55 -133 145t-39 305q0 221 -6 259q-10 53 -37 74t-97 21h-26v157
h46q86 0 129 -21.5t70 -62.5q37 -56 48 -131t12 -277q1 -185 18 -252t56 -100.5t96 -34.5z" />
    <glyph glyph-name="asciitilde" unicode="~" horiz-adv-x="981" 
d="M72 557v205q87 120 228 120q46 0 100.5 -17t156.5 -70q91 -47 142 -47q49 0 95 28q65 41 117 109v-212q-102 -114 -227 -114q-48 0 -92 13t-133 62q-108 59 -173 59q-50 0 -97 -27t-117 -109z" />
    <glyph glyph-name="exclamdown" unicode="&#xa1;" horiz-adv-x="559" 
d="M364 1062v-205h-169v205h169zM326 697l45 -776v-325h-183v325l42 776h96z" />
    <glyph glyph-name="cent" unicode="&#xa2;" 
d="M608 894l-183 -766q28 -9 51 -9q82 0 145.5 70.5t77.5 199.5l147 -20q-28 -190 -131 -293.5t-238 -103.5q-39 0 -84 14l-96 -395l-92 32l94 398q-94 55 -154 183.5t-60 325.5q0 185 50 307t141.5 185.5t199.5 63.5q28 0 77 -7l93 387l90 -32l-92 -387q151 -77 185 -297
l-143 -27q-21 113 -78 171zM520 940q-25 3 -40 3q-104 0 -174 -98t-70 -307q0 -269 102 -361z" />
    <glyph glyph-name="sterling" unicode="&#xa3;" 
d="M323 809h258v-148h-233q16 -44 16 -86q0 -89 -34.5 -186.5t-111.5 -197.5q65 22 118 22q68 0 153 -25q140 -41 191 -41q60 0 157 56l48 -165q-123 -64 -197 -64q-34 0 -70 8q-24 6 -107 37q-86 32 -113 38q-37 9 -71 9q-132 0 -250 -94l-57 173q86 57 137 157.5t51 234.5
q0 61 -13 124h-161v148h126q-42 177 -42 264q0 191 106.5 304.5t265.5 113.5q144 0 242.5 -97t121.5 -282l-147 -27q-13 123 -75.5 190.5t-143.5 67.5q-88 0 -150 -69t-62 -176q0 -111 47 -289z" />
    <glyph glyph-name="currency" unicode="&#xa4;" 
d="M172 961l-114 136l94 119l114 -139q43 36 91.5 54t103.5 18t103.5 -18t90.5 -54l114 139l95 -119l-114 -136q58 -110 58 -235t-58 -236l114 -136l-95 -119l-114 140q-42 -36 -90.5 -54.5t-103.5 -18.5t-103.5 18.5t-91.5 54.5l-114 -140l-94 119l114 136q-58 111 -58 236
t58 235zM247 726q0 -112 64 -186t149 -74t149 74t64 186q0 111 -64 185t-149 74t-149 -74t-64 -185z" />
    <glyph glyph-name="yen" unicode="&#xa5;" 
d="M389 0v325h-341v139h341v143h-341v148h280l-333 711h164l238 -516q41 -90 62 -154q18 52 68 163l224 507h175l-332 -711h280v-148h-338v-143h338v-139h-338v-325h-147z" />
    <glyph glyph-name="brokenbar" unicode="&#xa6;" horiz-adv-x="436" 
d="M285 1491v-790h-129v790h129zM285 360v-791h-129v791h129z" />
    <glyph glyph-name="section" unicode="&#xa7;" 
d="M114 -70l149 26q24 -132 75 -183.5t134 -51.5q79 0 128.5 50t49.5 124q0 29 -9.5 56t-29.5 51q-59 75 -269 232q-154 115 -200 180q-78 108 -78 230q0 100 50.5 176.5t133.5 106.5q-52 62 -78.5 124t-26.5 124q0 135 86 225.5t219 90.5q141 0 230 -86.5t107 -260.5
l-153 -19q-18 124 -62 171t-116 47q-70 0 -118.5 -47.5t-48.5 -113.5q0 -28 11.5 -56.5t33.5 -57.5q44 -58 236 -200q165 -124 214 -188q73 -96 73 -216q0 -108 -55 -186q-36 -51 -132 -100q66 -61 98.5 -131t32.5 -150q0 -143 -92.5 -235.5t-237.5 -92.5
q-146 0 -240.5 92.5t-114.5 268.5zM594 244q59 37 90 87t31 100q0 58 -42.5 120t-184.5 169q-113 84 -168 138q-68 -48 -95 -94t-27 -100q0 -63 38 -120.5t169 -151.5q113 -81 189 -148z" />
    <glyph glyph-name="dieresis" unicode="&#xa8;" horiz-adv-x="559" 
d="M50 1270v205h154v-205h-154zM356 1270v205h154v-205h-154z" />
    <glyph glyph-name="copyright" unicode="&#xa9;" horiz-adv-x="1237" 
d="M623 1491q263 0 441 -226t178 -529q0 -211 -88 -388t-230.5 -271.5t-300.5 -94.5q-263 0 -441 225.5t-178 528.5q0 212 88 389t230.5 271.5t300.5 94.5zM623 1366q-221 0 -374 -196q-142 -182 -142 -434q0 -271 162 -457q150 -172 354 -172q220 0 374 196
q142 181 142 433q0 271 -162 457q-150 173 -354 173zM822 614l100 -36q-25 -129 -106.5 -201.5t-190.5 -72.5q-140 0 -232.5 111t-92.5 319t91.5 317t240.5 109q103 0 177 -62t101 -174l-98 -29q-25 76 -73.5 114.5t-110.5 38.5q-93 0 -155 -81t-62 -240q0 -152 59 -229
t147 -77q72 0 129 50.5t76 142.5z" />
    <glyph glyph-name="ordfeminine" unicode="&#xaa;" horiz-adv-x="621" 
d="M453 853q-100 -107 -210 -107q-87 0 -144 59t-57 159q0 84 39 134t109 69l173 34q60 14 79 20q-1 85 -22 111q-34 42 -106 42q-122 0 -137 -125l-113 34q11 95 76 151.5t176 56.5q127 0 186 -58q58 -59 58 -184v-240l-1 -59q0 -135 33 -186h-121q-16 40 -18 89zM440 1104
q-43 -14 -157 -36q-71 -13 -92 -34q-27 -28 -27 -70q0 -43 29.5 -70.5t75.5 -27.5q57 0 102 36t62 95q7 23 7 107z" />
    <glyph glyph-name="guillemotleft" unicode="&#xab;" 
d="M276 528l213 -456h-121l-261 456l261 456h122zM593 528l216 -456h-124l-257 456l257 456h124z" />
    <glyph glyph-name="logicalnot" unicode="&#xac;" horiz-adv-x="981" 
d="M886 424h-140v438h-654v168h794v-606z" />
    <glyph glyph-name="registered" unicode="&#xae;" horiz-adv-x="1237" 
d="M623 1491q263 0 441 -226t178 -529q0 -211 -88 -388t-230.5 -271.5t-300.5 -94.5q-263 0 -441 225.5t-178 528.5q0 212 88 389t230.5 271.5t300.5 94.5zM623 1366q-221 0 -374 -196q-142 -182 -142 -434q0 -271 162 -457q150 -172 354 -172q220 0 374 196
q142 181 142 433q0 271 -162 457q-150 173 -354 173zM351 319v812h230q118 0 168 -22t83 -76t33 -122q0 -94 -53.5 -157.5t-136.5 -71.5q37 -19 59 -46q42 -52 96 -158l80 -159h-130l-60 128q-68 147 -109 187q-31 30 -88 30h-64v-345h-108zM459 776h131q88 0 124.5 31.5
t36.5 92.5q0 39 -18.5 68t-47.5 41t-104 12h-122v-245z" />
    <glyph glyph-name="overscore" unicode="&#xaf;" horiz-adv-x="1024" 
d="M-12 1722h1048v-103h-1048v103z" />
    <glyph glyph-name="degree" unicode="&#xb0;" horiz-adv-x="819" 
d="M128 1214q0 115 81.5 196t195.5 81q116 0 197 -81t81 -196t-81.5 -196.5t-196.5 -81.5q-114 0 -195.5 81t-81.5 197zM237 1214q0 -70 49.5 -119.5t119.5 -49.5q69 0 118.5 49.5t49.5 119.5t-49.5 119.5t-118.5 49.5q-70 0 -119.5 -49.5t-49.5 -119.5z" />
    <glyph glyph-name="plusminus" unicode="&#xb1;" horiz-adv-x="1124" 
d="M477 260v403h-399v167h399v399h170v-399h399v-167h-399v-403h-170zM1046 0h-968v168h968v-168z" />
    <glyph glyph-name="twosuperior" unicode="&#xb2;" horiz-adv-x="559" 
d="M20 733q12 131 212 308q120 106 143.5 141t23.5 73q0 52 -30 81.5t-83 29.5t-80 -23t-45 -91l-124 16q25 115 85 165.5t165 50.5q118 0 179 -55.5t61 -149.5q0 -84 -50 -159q-37 -55 -166 -169q-68 -61 -97 -97h317v-121h-511z" />
    <glyph glyph-name="threesuperior" unicode="&#xb3;" horiz-adv-x="559" 
d="M26 929l120 15q17 -62 48 -87t78 -25q55 0 91.5 37.5t36.5 95.5q0 53 -31 81.5t-98 28.5l-27 -2l-18 -1l18 110q61 -1 94.5 27t33.5 75q0 40 -26.5 64.5t-71.5 24.5t-71.5 -21.5t-45.5 -80.5l-117 23q35 109 86.5 149.5t149.5 40.5q110 0 167 -50.5t57 -135.5
q0 -59 -30 -101t-83 -60q142 -43 142 -191q0 -99 -68 -165t-179 -66q-220 0 -256 214z" />
    <glyph glyph-name="acute" unicode="&#xb4;" horiz-adv-x="559" 
d="M182 1194l109 280h193l-180 -280h-122z" />
    <glyph glyph-name="mu1" unicode="&#xb5;" horiz-adv-x="1180" 
d="M1018 1062v-1062h-161v126q-52 -80 -103 -110q-70 -41 -163 -41q-83 0 -147 33q-48 25 -106 99v-514h-178v1469h178v-450q0 -245 26 -317.5t84.5 -114.5t134.5 -42q80 0 143 44t89 113.5t26 313.5v453h177z" />
    <glyph glyph-name="paragraph" unicode="&#xb6;" horiz-adv-x="901" 
d="M337 -407v1045q-148 9 -240 117t-92 289q0 133 48 230t132.5 144.5t207.5 47.5h518v-173h-117v-1700h-140v1700h-182v-1700h-135z" />
    <glyph glyph-name="middot" unicode="&#xb7;" horiz-adv-x="559" 
d="M408 637v205h168v-205h-168z" />
    <glyph glyph-name="cedilla" unicode="&#xb8;" horiz-adv-x="559" 
d="M177 -154l43 177h110l-28 -107q68 -10 104.5 -51t36.5 -99q0 -78 -62.5 -132.5t-170.5 -54.5q-71 0 -122 12l9 117q53 -4 81 -4q67 0 97.5 21t30.5 54q0 31 -27.5 48.5t-101.5 18.5z" />
    <glyph glyph-name="onesuperior" unicode="&#xb9;" horiz-adv-x="559" 
d="M270 733v554q-84 -81 -184 -113v123q51 20 113.5 73.5t100.5 113.5h89v-751h-119z" />
    <glyph glyph-name="ordmasculine" unicode="&#xba;" horiz-adv-x="612" 
d="M306 1491q115 0 186 -90q83 -106 83 -286q0 -179 -83 -286q-70 -89 -186 -89q-115 0 -192 96t-77 275q0 184 83 290q70 90 186 90zM306 1358q-66 0 -106.5 -57t-40.5 -187q0 -126 41.5 -184t106.5 -58q64 0 105.5 58t41.5 186q0 126 -42 184t-106 58z" />
    <glyph glyph-name="guillemotright" unicode="&#xbb;" 
d="M646 528l-214 456h121l261 -456l-261 -456h-120zM328 528l-216 456h124l257 -456l-257 -456h-124z" />
    <glyph glyph-name="onequarter" unicode="&#xbc;" horiz-adv-x="1401" 
d="M270 733v554q-84 -81 -184 -113v123q51 20 113.5 73.5t100.5 113.5h89v-751h-119zM203 -57l903 1548h128l-902 -1548h-129zM1172 -31v154h-313v123l332 474h100v-489h85v-108h-85v-154h-119zM1172 231v263l-188 -263h188z" />
    <glyph glyph-name="onehalf" unicode="&#xbd;" horiz-adv-x="1401" 
d="M270 733v554q-84 -81 -184 -113v123q51 20 113.5 73.5t100.5 113.5h89v-751h-119zM183 -57l903 1548h128l-902 -1548h-129zM860 -31q12 131 212 308q120 106 143.5 141t23.5 73q0 52 -30 81.5t-83 29.5t-80 -23t-45 -91l-124 16q25 115 85 165.5t165 50.5
q118 0 179 -55.5t61 -149.5q0 -84 -50 -159q-37 -55 -166 -169q-68 -61 -97 -97h317v-121h-511z" />
    <glyph glyph-name="threequarters" unicode="&#xbe;" horiz-adv-x="1401" 
d="M26 929l120 15q17 -62 48 -87t78 -25q55 0 91.5 37.5t36.5 95.5q0 53 -31 81.5t-98 28.5l-27 -2l-18 -1l18 110q61 -1 94.5 27t33.5 75q0 40 -26.5 64.5t-71.5 24.5t-71.5 -21.5t-45.5 -80.5l-117 23q35 109 86.5 149.5t149.5 40.5q110 0 167 -50.5t57 -135.5
q0 -59 -30 -101t-83 -60q142 -43 142 -191q0 -99 -68 -165t-179 -66q-220 0 -256 214zM203 -57l903 1548h128l-902 -1548h-129zM1168 -31v154h-313v123l332 474h100v-489h85v-108h-85v-154h-119zM1168 231v263l-188 -263h188z" />
    <glyph glyph-name="questiondown" unicode="&#xbf;" horiz-adv-x="1026" 
d="M604 1062v-205h-168v205h168zM595 701l1 -51q0 -145 -47 -242q-34 -71 -144 -189q-75 -80 -98 -129t-23 -107q0 -111 70 -187.5t162 -76.5t156.5 71t84.5 225l151 -21q-21 -211 -125 -317t-266 -106q-164 0 -274 112t-110 287q0 97 36 177t145 197q91 99 114 157t25 200
h142z" />
    <glyph glyph-name="Agrave" unicode="&#xc0;" horiz-adv-x="1120" 
d="M-2 0l462 1466h171l492 -1466h-182l-140 444h-502l-132 -444h-169zM345 602h407l-125 406q-58 187 -85 304q-23 -141 -65 -280zM654 1566h-119l-189 280h198z" />
    <glyph glyph-name="Aacute" unicode="&#xc1;" horiz-adv-x="1120" 
d="M-2 0l462 1466h171l492 -1466h-182l-140 444h-502l-132 -444h-169zM345 602h407l-125 406q-58 187 -85 304q-23 -141 -65 -280zM391 1566l109 280h193l-180 -280h-122z" />
    <glyph glyph-name="Acircumflex" unicode="&#xc2;" horiz-adv-x="1120" 
d="M-2 0l462 1466h171l492 -1466h-182l-140 444h-502l-132 -444h-169zM345 602h407l-125 406q-58 187 -85 304q-23 -141 -65 -280zM546 1737l-92 -170h-169l177 280h158l184 -280h-167z" />
    <glyph glyph-name="Atilde" unicode="&#xc3;" horiz-adv-x="1120" 
d="M-2 0l462 1466h171l492 -1466h-182l-140 444h-502l-132 -444h-169zM345 602h407l-125 406q-58 187 -85 304q-23 -141 -65 -280zM260 1568q-1 107 48 168q48 60 118 60q52 0 139 -54q48 -30 77 -30q27 0 40.5 17.5t19.5 69.5h107q-3 -115 -48.5 -171.5t-113.5 -56.5
q-50 0 -135 56q-55 36 -80 36q-27 0 -45 -23.5t-18 -71.5h-109z" />
    <glyph glyph-name="Adieresis" unicode="&#xc4;" horiz-adv-x="1120" 
d="M-2 0l462 1466h171l492 -1466h-182l-140 444h-502l-132 -444h-169zM345 602h407l-125 406q-58 187 -85 304q-23 -141 -65 -280zM310 1642v205h154v-205h-154zM616 1642v205h154v-205h-154z" />
    <glyph glyph-name="Aring" unicode="&#xc5;" horiz-adv-x="1120" 
d="M-2 0l462 1466h171l492 -1466h-182l-140 444h-502l-132 -444h-169zM345 602h407l-125 406q-58 187 -85 304q-23 -141 -65 -280zM414 1709q0 75 44.5 127t103.5 52q58 0 102.5 -52t44.5 -131q0 -80 -44 -131.5t-103 -51.5t-103.5 52t-44.5 135zM477 1708q0 -49 26 -80
t60 -31t60.5 31t26.5 78t-26 78t-60 31q-35 0 -61 -31t-26 -76z" />
    <glyph glyph-name="AE" unicode="&#xc6;" horiz-adv-x="1679" 
d="M1 0l578 1466h987v-173h-605v-451h562v-172h-562v-497h627v-173h-786v423h-465l-164 -423h-172zM405 595h397v698h-120z" />
    <glyph glyph-name="Ccedilla" unicode="&#xc7;" horiz-adv-x="1212" 
d="M983 514l160 -49q-53 -247 -185.5 -368.5t-322.5 -121.5q-167 0 -285.5 81.5t-194 261.5t-75.5 425q0 242 75.5 409.5t204.5 253t288 85.5q174 0 299 -108.5t175 -318.5l-156 -45q-80 306 -321 306q-120 0 -208 -61.5t-140.5 -191.5t-52.5 -329q0 -301 106 -451.5
t282 -150.5q130 0 224.5 92.5t126.5 280.5zM507 -154l43 177h110l-28 -107q68 -10 104.5 -51t36.5 -99q0 -78 -62.5 -132.5t-170.5 -54.5q-71 0 -122 12l9 117q53 -4 81 -4q67 0 97.5 21t30.5 54q0 31 -27.5 48.5t-101.5 18.5z" />
    <glyph glyph-name="Egrave" unicode="&#xc8;" horiz-adv-x="1120" 
d="M133 0v1466h869v-173h-710v-449h665v-172h-665v-499h738v-173h-897zM653 1566h-119l-189 280h198z" />
    <glyph glyph-name="Eacute" unicode="&#xc9;" horiz-adv-x="1120" 
d="M133 0v1466h869v-173h-710v-449h665v-172h-665v-499h738v-173h-897zM462 1566l109 280h193l-180 -280h-122z" />
    <glyph glyph-name="Ecircumflex" unicode="&#xca;" horiz-adv-x="1120" 
d="M133 0v1466h869v-173h-710v-449h665v-172h-665v-499h738v-173h-897zM573 1737l-92 -170h-169l177 280h158l184 -280h-167z" />
    <glyph glyph-name="Edieresis" unicode="&#xcb;" horiz-adv-x="1120" 
d="M133 0v1466h869v-173h-710v-449h665v-172h-665v-499h738v-173h-897zM334 1642v205h154v-205h-154zM640 1642v205h154v-205h-154z" />
    <glyph glyph-name="Igrave" unicode="&#xcc;" horiz-adv-x="467" 
d="M160 0v1466h159v-1466h-159zM357 1566h-119l-189 280h198z" />
    <glyph glyph-name="Iacute" unicode="&#xcd;" horiz-adv-x="467" 
d="M160 0v1466h159v-1466h-159zM150 1566l109 280h193l-180 -280h-122z" />
    <glyph glyph-name="Icircumflex" unicode="&#xce;" horiz-adv-x="467" 
d="M160 0v1466h159v-1466h-159zM237 1737l-92 -170h-169l177 280h158l184 -280h-167z" />
    <glyph glyph-name="Idieresis" unicode="&#xcf;" horiz-adv-x="467" 
d="M160 0v1466h159v-1466h-159zM10 1642v205h154v-205h-154zM316 1642v205h154v-205h-154z" />
    <glyph glyph-name="Eth" unicode="&#xd0;" horiz-adv-x="1212" 
d="M126 0v667h-132v132h132v667h415q155 0 234 -27q105 -35 182 -128t120 -234.5t43 -336.5q0 -211 -53.5 -369t-132 -237.5t-189.5 -114.5q-62 -19 -185 -19h-434zM285 173h256q155 0 235 50.5t122 161.5q58 150 58 356q0 227 -61 354t-156 170q-64 28 -202 28h-252v-494
h332v-132h-332v-494z" />
    <glyph glyph-name="Ntilde" unicode="&#xd1;" horiz-adv-x="1212" 
d="M125 0v1466h163l632 -1151v1151h152v-1466h-163l-631 1152v-1152h-153zM336 1568q-1 107 48 168q48 60 118 60q52 0 139 -54q48 -30 77 -30q27 0 40.5 17.5t19.5 69.5h107q-3 -115 -48.5 -171.5t-113.5 -56.5q-50 0 -135 56q-55 36 -80 36q-27 0 -45 -23.5t-18 -71.5
h-109z" />
    <glyph glyph-name="Ograve" unicode="&#xd2;" horiz-adv-x="1307" 
d="M85 714q0 375 165 576.5t411 201.5q159 0 290 -90t207.5 -261.5t76.5 -408.5q0 -326 -148 -531q-163 -226 -427 -226q-266 0 -428 232q-147 210 -147 507zM249 711q0 -271 119.5 -420.5t290.5 -149.5q175 0 293.5 151t118.5 444q0 189 -61 338q-47 114 -141.5 182.5
t-206.5 68.5q-180 0 -296.5 -150t-116.5 -464zM768 1566h-119l-189 280h198z" />
    <glyph glyph-name="Oacute" unicode="&#xd3;" horiz-adv-x="1307" 
d="M85 714q0 375 165 576.5t411 201.5q159 0 290 -90t207.5 -261.5t76.5 -408.5q0 -326 -148 -531q-163 -226 -427 -226q-266 0 -428 232q-147 210 -147 507zM249 711q0 -271 119.5 -420.5t290.5 -149.5q175 0 293.5 151t118.5 444q0 189 -61 338q-47 114 -141.5 182.5
t-206.5 68.5q-180 0 -296.5 -150t-116.5 -464zM521 1566l109 280h193l-180 -280h-122z" />
    <glyph glyph-name="Ocircumflex" unicode="&#xd4;" horiz-adv-x="1307" 
d="M85 714q0 375 165 576.5t411 201.5q159 0 290 -90t207.5 -261.5t76.5 -408.5q0 -326 -148 -531q-163 -226 -427 -226q-266 0 -428 232q-147 210 -147 507zM249 711q0 -271 119.5 -420.5t290.5 -149.5q175 0 293.5 151t118.5 444q0 189 -61 338q-47 114 -141.5 182.5
t-206.5 68.5q-180 0 -296.5 -150t-116.5 -464zM660 1737l-92 -170h-169l177 280h158l184 -280h-167z" />
    <glyph glyph-name="Otilde" unicode="&#xd5;" horiz-adv-x="1307" 
d="M85 714q0 375 165 576.5t411 201.5q159 0 290 -90t207.5 -261.5t76.5 -408.5q0 -326 -148 -531q-163 -226 -427 -226q-266 0 -428 232q-147 210 -147 507zM249 711q0 -271 119.5 -420.5t290.5 -149.5q175 0 293.5 151t118.5 444q0 189 -61 338q-47 114 -141.5 182.5
t-206.5 68.5q-180 0 -296.5 -150t-116.5 -464zM380 1568q-1 107 48 168q48 60 118 60q52 0 139 -54q48 -30 77 -30q27 0 40.5 17.5t19.5 69.5h107q-3 -115 -48.5 -171.5t-113.5 -56.5q-50 0 -135 56q-55 36 -80 36q-27 0 -45 -23.5t-18 -71.5h-109z" />
    <glyph glyph-name="Odieresis" unicode="&#xd6;" horiz-adv-x="1307" 
d="M85 714q0 375 165 576.5t411 201.5q159 0 290 -90t207.5 -261.5t76.5 -408.5q0 -326 -148 -531q-163 -226 -427 -226q-266 0 -428 232q-147 210 -147 507zM249 711q0 -271 119.5 -420.5t290.5 -149.5q175 0 293.5 151t118.5 444q0 189 -61 338q-47 114 -141.5 182.5
t-206.5 68.5q-180 0 -296.5 -150t-116.5 -464zM412 1642v205h154v-205h-154zM718 1642v205h154v-205h-154z" />
    <glyph glyph-name="multiply" unicode="&#xd7;" horiz-adv-x="981" 
d="M130 409l259 315l-258 314l100 122l258 -314l256 313l99 -121l-257 -313l258 -314l-100 -122l-258 314l-258 -315z" />
    <glyph glyph-name="Oslash" unicode="&#xd8;" horiz-adv-x="1307" 
d="M1029 1332l137 188l82 -84l-145 -198q74 -134 101.5 -244t27.5 -260q0 -240 -78 -411.5t-209.5 -259.5t-289.5 -88q-102 0 -185.5 33.5t-178.5 120.5l-138 -188l-81 84l144 197q-81 153 -107.5 257t-26.5 248q0 243 78.5 417t207.5 260.5t292 86.5q103 0 187.5 -34.5
t181.5 -124.5zM930 1197q-77 76 -135.5 102t-134.5 26q-179 0 -296.5 -149.5t-117.5 -445.5q0 -111 15 -188.5t58 -179.5zM998 1094l-610 -832q65 -66 128.5 -93.5t138.5 -27.5q175 0 293.5 151t118.5 437q0 206 -69 365z" />
    <glyph glyph-name="Ugrave" unicode="&#xd9;" horiz-adv-x="1212" 
d="M915 1466h160v-847q0 -213 -41.5 -349.5t-151 -215.5t-278.5 -79q-238 0 -356.5 142t-118.5 502v847h159v-846q0 -199 31 -288t101.5 -135.5t171.5 -46.5q170 0 246.5 96t76.5 374v846zM703 1566h-119l-189 280h198z" />
    <glyph glyph-name="Uacute" unicode="&#xda;" horiz-adv-x="1212" 
d="M915 1466h160v-847q0 -213 -41.5 -349.5t-151 -215.5t-278.5 -79q-238 0 -356.5 142t-118.5 502v847h159v-846q0 -199 31 -288t101.5 -135.5t171.5 -46.5q170 0 246.5 96t76.5 374v846zM475 1566l109 280h193l-180 -280h-122z" />
    <glyph glyph-name="Ucircumflex" unicode="&#xdb;" horiz-adv-x="1212" 
d="M915 1466h160v-847q0 -213 -41.5 -349.5t-151 -215.5t-278.5 -79q-238 0 -356.5 142t-118.5 502v847h159v-846q0 -199 31 -288t101.5 -135.5t171.5 -46.5q170 0 246.5 96t76.5 374v846zM605 1737l-92 -170h-169l177 280h158l184 -280h-167z" />
    <glyph glyph-name="Udieresis" unicode="&#xdc;" horiz-adv-x="1212" 
d="M915 1466h160v-847q0 -213 -41.5 -349.5t-151 -215.5t-278.5 -79q-238 0 -356.5 142t-118.5 502v847h159v-846q0 -199 31 -288t101.5 -135.5t171.5 -46.5q170 0 246.5 96t76.5 374v846zM362 1642v205h154v-205h-154zM668 1642v205h154v-205h-154z" />
    <glyph glyph-name="Yacute" unicode="&#xdd;" horiz-adv-x="1120" 
d="M468 0v621l-463 845h194l236 -442q70 -131 123 -248q53 115 131 259l233 431h185l-480 -845v-621h-159zM414 1566l109 280h193l-180 -280h-122z" />
    <glyph glyph-name="Thorn" unicode="&#xde;" horiz-adv-x="1120" 
d="M130 0v1466h159v-298h294q161 0 237 -29q104 -38 166 -141t62 -252q0 -197 -101 -322.5t-350 -125.5h-308v-298h-159zM289 471h311q147 0 215 66.5t68 200.5q0 87 -33.5 148.5t-81 85t-171.5 23.5h-308v-524z" />
    <glyph glyph-name="germandbls" unicode="&#xdf;" horiz-adv-x="1026" 
d="M128 0v999q0 191 38.5 287.5t122 150.5t190.5 54q133 0 218 -82.5t85 -202.5q0 -50 -13.5 -103.5t-52.5 -136.5q-58 -124 -58 -167q0 -37 22 -73q15 -26 95 -89q125 -100 163 -167t38 -157q0 -147 -87 -242.5t-212 -95.5q-97 0 -176.5 63t-121.5 178l127 72
q73 -165 166 -165q61 0 107 50.5t46 123.5q0 50 -19 84t-99 100q-128 107 -164.5 165t-36.5 123q0 39 11 78t50 121q71 151 71 219q0 65 -46.5 110.5t-116.5 45.5q-97 0 -148.5 -72t-51.5 -280v-991h-147z" />
    <glyph glyph-name="agrave" unicode="&#xe0;" 
d="M676 131q-74 -77 -154 -116t-166 -39q-136 0 -217 82t-81 221q0 92 38 163t104 111t200 59q180 26 264 62l1 46q0 109 -39 153q-55 64 -169 64q-103 0 -154 -42.5t-75 -159.5l-145 24q31 171 125.5 249t270.5 78q137 0 215 -51.5t98.5 -127.5t20.5 -222v-240
q0 -252 9.5 -317.5t37.5 -127.5h-154q-23 55 -30 131zM664 533q-81 -40 -241 -68q-93 -16 -130 -36.5t-57.5 -58t-20.5 -86.5q0 -76 47 -121.5t130 -45.5q79 0 143.5 41t96.5 109.5t32 199.5v66zM567 1194h-119l-189 280h198z" />
    <glyph glyph-name="aacute" unicode="&#xe1;" 
d="M676 131q-74 -77 -154 -116t-166 -39q-136 0 -217 82t-81 221q0 92 38 163t104 111t200 59q180 26 264 62l1 46q0 109 -39 153q-55 64 -169 64q-103 0 -154 -42.5t-75 -159.5l-145 24q31 171 125.5 249t270.5 78q137 0 215 -51.5t98.5 -127.5t20.5 -222v-240
q0 -252 9.5 -317.5t37.5 -127.5h-154q-23 55 -30 131zM664 533q-81 -40 -241 -68q-93 -16 -130 -36.5t-57.5 -58t-20.5 -86.5q0 -76 47 -121.5t130 -45.5q79 0 143.5 41t96.5 109.5t32 199.5v66zM353 1194l109 280h193l-180 -280h-122z" />
    <glyph glyph-name="acircumflex" unicode="&#xe2;" 
d="M676 131q-74 -77 -154 -116t-166 -39q-136 0 -217 82t-81 221q0 92 38 163t104 111t200 59q180 26 264 62l1 46q0 109 -39 153q-55 64 -169 64q-103 0 -154 -42.5t-75 -159.5l-145 24q31 171 125.5 249t270.5 78q137 0 215 -51.5t98.5 -127.5t20.5 -222v-240
q0 -252 9.5 -317.5t37.5 -127.5h-154q-23 55 -30 131zM664 533q-81 -40 -241 -68q-93 -16 -130 -36.5t-57.5 -58t-20.5 -86.5q0 -76 47 -121.5t130 -45.5q79 0 143.5 41t96.5 109.5t32 199.5v66zM471 1364l-92 -170h-169l177 280h158l184 -280h-167z" />
    <glyph glyph-name="atilde" unicode="&#xe3;" 
d="M676 131q-74 -77 -154 -116t-166 -39q-136 0 -217 82t-81 221q0 92 38 163t104 111t200 59q180 26 264 62l1 46q0 109 -39 153q-55 64 -169 64q-103 0 -154 -42.5t-75 -159.5l-145 24q31 171 125.5 249t270.5 78q137 0 215 -51.5t98.5 -127.5t20.5 -222v-240
q0 -252 9.5 -317.5t37.5 -127.5h-154q-23 55 -30 131zM664 533q-81 -40 -241 -68q-93 -16 -130 -36.5t-57.5 -58t-20.5 -86.5q0 -76 47 -121.5t130 -45.5q79 0 143.5 41t96.5 109.5t32 199.5v66zM182 1195q-1 107 48 168q48 60 118 60q52 0 139 -54q48 -30 77 -30
q27 0 40.5 17.5t19.5 69.5h107q-3 -115 -48.5 -171.5t-113.5 -56.5q-50 0 -135 56q-55 36 -80 36q-27 0 -45 -23.5t-18 -71.5h-109z" />
    <glyph glyph-name="adieresis" unicode="&#xe4;" 
d="M676 131q-74 -77 -154 -116t-166 -39q-136 0 -217 82t-81 221q0 92 38 163t104 111t200 59q180 26 264 62l1 46q0 109 -39 153q-55 64 -169 64q-103 0 -154 -42.5t-75 -159.5l-145 24q31 171 125.5 249t270.5 78q137 0 215 -51.5t98.5 -127.5t20.5 -222v-240
q0 -252 9.5 -317.5t37.5 -127.5h-154q-23 55 -30 131zM664 533q-81 -40 -241 -68q-93 -16 -130 -36.5t-57.5 -58t-20.5 -86.5q0 -76 47 -121.5t130 -45.5q79 0 143.5 41t96.5 109.5t32 199.5v66zM224 1270v205h154v-205h-154zM530 1270v205h154v-205h-154z" />
    <glyph glyph-name="aring" unicode="&#xe5;" 
d="M676 131q-74 -77 -154 -116t-166 -39q-136 0 -217 82t-81 221q0 92 38 163t104 111t200 59q180 26 264 62l1 46q0 109 -39 153q-55 64 -169 64q-103 0 -154 -42.5t-75 -159.5l-145 24q31 171 125.5 249t270.5 78q137 0 215 -51.5t98.5 -127.5t20.5 -222v-240
q0 -252 9.5 -317.5t37.5 -127.5h-154q-23 55 -30 131zM664 533q-81 -40 -241 -68q-93 -16 -130 -36.5t-57.5 -58t-20.5 -86.5q0 -76 47 -121.5t130 -45.5q79 0 143.5 41t96.5 109.5t32 199.5v66zM303 1382q0 75 44.5 127t103.5 52q58 0 102.5 -52t44.5 -131
q0 -80 -44 -131.5t-103 -51.5t-103.5 52t-44.5 135zM366 1381q0 -49 26 -80t60 -31t60.5 31t26.5 78t-26 78t-60 31q-35 0 -61 -31t-26 -76z" />
    <glyph glyph-name="ae" unicode="&#xe6;" horiz-adv-x="1493" 
d="M1419 325q-42 -173 -141.5 -261t-242.5 -88q-101 0 -180 47t-144 151q-164 -198 -362 -198q-133 0 -214.5 85t-81.5 218q0 90 41 163.5t110.5 112.5t233.5 65q123 20 207 49l1 41q0 129 -44.5 178t-148.5 49q-109 0 -159.5 -42t-73.5 -162l-143 21q34 178 125.5 255
t254.5 77q121 0 192 -36t106 -107q108 143 279 143q112 0 196 -59t138 -188t54 -294l-1 -60h-629q1 -148 29.5 -213t90 -106.5t132.5 -41.5q80 0 139.5 58t81.5 167zM792 633h479q-12 160 -76 232t-159 72q-102 0 -169 -78t-75 -226zM647 533q-65 -35 -263 -73
q-90 -17 -125 -50q-50 -48 -50 -124q0 -75 45.5 -121.5t123.5 -46.5q95 0 166 57t92 146q12 50 11 212z" />
    <glyph glyph-name="ccedilla" unicode="&#xe7;" horiz-adv-x="840" 
d="M679 389l145 -23q-25 -190 -125.5 -290t-241.5 -100q-171 0 -281.5 140.5t-110.5 415.5q0 277 111.5 415.5t286.5 138.5q135 0 227.5 -84t118.5 -252l-143 -27q-21 108 -73 161.5t-125 53.5q-109 0 -180.5 -96.5t-71.5 -306.5q0 -217 68.5 -314t175.5 -97
q84 0 143.5 64.5t75.5 200.5zM369 -154l43 177h110l-28 -107q68 -10 104.5 -51t36.5 -99q0 -78 -62.5 -132.5t-170.5 -54.5q-71 0 -122 12l9 117q53 -4 81 -4q67 0 97.5 21t30.5 54q0 31 -27.5 48.5t-101.5 18.5z" />
    <glyph glyph-name="egrave" unicode="&#xe8;" 
d="M704 342l152 -23q-38 -170 -137.5 -256.5t-246.5 -86.5q-185 0 -299.5 140.5t-114.5 405.5q0 275 115.5 419.5t292.5 144.5q169 0 282 -142t113 -411l-1 -48h-650q9 -179 83 -270t180 -91q166 0 231 218zM219 633h486q-10 138 -59 206q-71 99 -181 99q-99 0 -169 -82.5
t-77 -222.5zM585 1194h-119l-189 280h198z" />
    <glyph glyph-name="eacute" unicode="&#xe9;" 
d="M704 342l152 -23q-38 -170 -137.5 -256.5t-246.5 -86.5q-185 0 -299.5 140.5t-114.5 405.5q0 275 115.5 419.5t292.5 144.5q169 0 282 -142t113 -411l-1 -48h-650q9 -179 83 -270t180 -91q166 0 231 218zM219 633h486q-10 138 -59 206q-71 99 -181 99q-99 0 -169 -82.5
t-77 -222.5zM355 1194l109 280h193l-180 -280h-122z" />
    <glyph glyph-name="ecircumflex" unicode="&#xea;" 
d="M704 342l152 -23q-38 -170 -137.5 -256.5t-246.5 -86.5q-185 0 -299.5 140.5t-114.5 405.5q0 275 115.5 419.5t292.5 144.5q169 0 282 -142t113 -411l-1 -48h-650q9 -179 83 -270t180 -91q166 0 231 218zM219 633h486q-10 138 -59 206q-71 99 -181 99q-99 0 -169 -82.5
t-77 -222.5zM490 1364l-92 -170h-169l177 280h158l184 -280h-167z" />
    <glyph glyph-name="edieresis" unicode="&#xeb;" 
d="M704 342l152 -23q-38 -170 -137.5 -256.5t-246.5 -86.5q-185 0 -299.5 140.5t-114.5 405.5q0 275 115.5 419.5t292.5 144.5q169 0 282 -142t113 -411l-1 -48h-650q9 -179 83 -270t180 -91q166 0 231 218zM219 633h486q-10 138 -59 206q-71 99 -181 99q-99 0 -169 -82.5
t-77 -222.5zM238 1270v205h154v-205h-154zM544 1270v205h154v-205h-154z" />
    <glyph glyph-name="igrave" unicode="&#xec;" horiz-adv-x="467" 
d="M166 0v1062h147v-1062h-147zM328 1194h-119l-189 280h198z" />
    <glyph glyph-name="iacute" unicode="&#xed;" horiz-adv-x="467" 
d="M166 0v1062h147v-1062h-147zM129 1194l109 280h193l-180 -280h-122z" />
    <glyph glyph-name="icircumflex" unicode="&#xee;" horiz-adv-x="467" 
d="M166 0v1062h147v-1062h-147zM247 1364l-92 -170h-169l177 280h158l184 -280h-167z" />
    <glyph glyph-name="idieresis" unicode="&#xef;" horiz-adv-x="467" 
d="M166 0v1062h147v-1062h-147zM4 1270v205h154v-205h-154zM310 1270v205h154v-205h-154z" />
    <glyph glyph-name="eth" unicode="&#xf0;" 
d="M250 1466h177q60 -54 103 -102l175 102l38 -102l-142 -83q262 -368 262 -758q0 -261 -115.5 -404.5t-287.5 -143.5q-115 0 -206.5 62t-144 177t-52.5 302q0 267 107.5 406.5t262.5 139.5q47 0 83.5 -12t90.5 -47q-47 116 -116 213l-226 -127l-36 103l197 109
q-80 90 -170 165zM711 529q0 192 -74.5 293.5t-182.5 101.5q-106 0 -176 -100.5t-70 -311.5q0 -197 72.5 -293.5t178.5 -96.5q105 0 178.5 103t73.5 304z" />
    <glyph glyph-name="ntilde" unicode="&#xf1;" 
d="M108 0v1062h133v-151q48 88 117.5 131.5t159.5 43.5q70 0 129.5 -27.5t96 -72t54.5 -115.5t18 -218v-653h-148v646q0 117 -20 171t-62.5 83.5t-98.5 29.5q-106 0 -169 -79t-63 -271v-580h-147zM209 1195q-1 107 48 168q48 60 118 60q52 0 139 -54q48 -30 77 -30
q27 0 40.5 17.5t19.5 69.5h107q-3 -115 -48.5 -171.5t-113.5 -56.5q-50 0 -135 56q-55 36 -80 36q-27 0 -45 -23.5t-18 -71.5h-109z" />
    <glyph glyph-name="ograve" unicode="&#xf2;" 
d="M53 531q0 275 115.5 415t292.5 140q174 0 291 -140t117 -404q0 -286 -115 -426t-293 -140q-175 0 -291.5 140.5t-116.5 414.5zM204 531q0 -206 75 -306.5t186 -100.5q104 0 178.5 101.5t74.5 305.5q0 205 -75 305.5t-186 100.5q-105 0 -179 -101t-74 -305zM575 1194h-119
l-189 280h198z" />
    <glyph glyph-name="oacute" unicode="&#xf3;" 
d="M53 531q0 275 115.5 415t292.5 140q174 0 291 -140t117 -404q0 -286 -115 -426t-293 -140q-175 0 -291.5 140.5t-116.5 414.5zM204 531q0 -206 75 -306.5t186 -100.5q104 0 178.5 101.5t74.5 305.5q0 205 -75 305.5t-186 100.5q-105 0 -179 -101t-74 -305zM353 1194
l109 280h193l-180 -280h-122z" />
    <glyph glyph-name="ocircumflex" unicode="&#xf4;" 
d="M53 531q0 275 115.5 415t292.5 140q174 0 291 -140t117 -404q0 -286 -115 -426t-293 -140q-175 0 -291.5 140.5t-116.5 414.5zM204 531q0 -206 75 -306.5t186 -100.5q104 0 178.5 101.5t74.5 305.5q0 205 -75 305.5t-186 100.5q-105 0 -179 -101t-74 -305zM461 1364
l-92 -170h-169l177 280h158l184 -280h-167z" />
    <glyph glyph-name="otilde" unicode="&#xf5;" 
d="M53 531q0 275 115.5 415t292.5 140q174 0 291 -140t117 -404q0 -286 -115 -426t-293 -140q-175 0 -291.5 140.5t-116.5 414.5zM204 531q0 -206 75 -306.5t186 -100.5q104 0 178.5 101.5t74.5 305.5q0 205 -75 305.5t-186 100.5q-105 0 -179 -101t-74 -305zM177 1195
q-1 107 48 168q48 60 118 60q52 0 139 -54q48 -30 77 -30q27 0 40.5 17.5t19.5 69.5h107q-3 -115 -48.5 -171.5t-113.5 -56.5q-50 0 -135 56q-55 36 -80 36q-27 0 -45 -23.5t-18 -71.5h-109z" />
    <glyph glyph-name="odieresis" unicode="&#xf6;" 
d="M53 531q0 275 115.5 415t292.5 140q174 0 291 -140t117 -404q0 -286 -115 -426t-293 -140q-175 0 -291.5 140.5t-116.5 414.5zM204 531q0 -206 75 -306.5t186 -100.5q104 0 178.5 101.5t74.5 305.5q0 205 -75 305.5t-186 100.5q-105 0 -179 -101t-74 -305zM224 1270v205
h154v-205h-154zM530 1270v205h154v-205h-154z" />
    <glyph glyph-name="divide" unicode="&#xf7;" horiz-adv-x="1124" 
d="M459 922v205h205v-205h-205zM1046 639h-968v168h968v-168zM459 319v205h205v-205h-205z" />
    <glyph glyph-name="oslash" unicode="&#xf8;" horiz-adv-x="1026" 
d="M761 999l81 128l79 -70l-88 -138q53 -89 72 -163q24 -97 24 -225q0 -277 -116 -416t-299 -139q-125 0 -225 80l-86 -135l-77 71l89 141q-53 74 -72 148q-30 111 -30 235q0 286 115 428t290 142q63 0 119 -19.5t124 -67.5zM678 867q-75 70 -157 70q-106 0 -181.5 -101
t-75.5 -301q0 -153 43 -255zM739 770l-367 -583q63 -63 144 -63q112 0 187 100.5t75 309.5q0 73 -8 122t-31 114z" />
    <glyph glyph-name="ugrave" unicode="&#xf9;" 
d="M679 0v156q-51 -90 -120 -135t-156 -45q-103 0 -176 55.5t-97.5 140.5t-24.5 232v658h147v-589q0 -164 16.5 -219.5t61 -89t101.5 -33.5q106 0 174 87q58 75 58 275v569h148v-1062h-132zM521 1194h-119l-189 280h198z" />
    <glyph glyph-name="uacute" unicode="&#xfa;" 
d="M679 0v156q-51 -90 -120 -135t-156 -45q-103 0 -176 55.5t-97.5 140.5t-24.5 232v658h147v-589q0 -164 16.5 -219.5t61 -89t101.5 -33.5q106 0 174 87q58 75 58 275v569h148v-1062h-132zM353 1194l109 280h193l-180 -280h-122z" />
    <glyph glyph-name="ucircumflex" unicode="&#xfb;" 
d="M679 0v156q-51 -90 -120 -135t-156 -45q-103 0 -176 55.5t-97.5 140.5t-24.5 232v658h147v-589q0 -164 16.5 -219.5t61 -89t101.5 -33.5q106 0 174 87q58 75 58 275v569h148v-1062h-132zM467 1364l-92 -170h-169l177 280h158l184 -280h-167z" />
    <glyph glyph-name="udieresis" unicode="&#xfc;" 
d="M679 0v156q-51 -90 -120 -135t-156 -45q-103 0 -176 55.5t-97.5 140.5t-24.5 232v658h147v-589q0 -164 16.5 -219.5t61 -89t101.5 -33.5q106 0 174 87q58 75 58 275v569h148v-1062h-132zM232 1270v205h154v-205h-154zM538 1270v205h154v-205h-154z" />
    <glyph glyph-name="yacute" unicode="&#xfd;" horiz-adv-x="840" 
d="M104 -409l-16 169q49 -16 84 -16q47 0 77.5 19t50.5 59q7 14 58 176l-331 1064h159l182 -615q34 -115 63 -246q25 124 60 242l186 619h148l-331 -1080q-65 -210 -102.5 -280.5t-85 -101.5t-107.5 -31q-42 0 -95 22zM311 1194l109 280h193l-180 -280h-122z" />
    <glyph glyph-name="thorn" unicode="&#xfe;" 
d="M108 -407v1873h147v-516q62 79 115.5 107.5t123.5 28.5q103 0 186 -61t133.5 -185.5t50.5 -299.5q0 -270 -113.5 -417t-265.5 -147q-65 0 -117 28t-113 106v-517h-147zM241 525q0 -206 69 -303.5t167 -97.5q94 0 165 101t71 312q0 208 -69 308t-167 100
q-90 0 -163 -107.5t-73 -312.5z" />
    <glyph glyph-name="ydieresis" unicode="&#xff;" horiz-adv-x="840" 
d="M104 -409l-16 169q49 -16 84 -16q47 0 77.5 19t50.5 59q7 14 58 176l-331 1064h159l182 -615q34 -115 63 -246q25 124 60 242l186 619h148l-331 -1080q-65 -210 -102.5 -280.5t-85 -101.5t-107.5 -31q-42 0 -95 22zM186 1270v205h154v-205h-154zM492 1270v205h154v-205
h-154z" />
    <glyph glyph-name="Amacron" unicode="&#x100;" horiz-adv-x="1120" 
d="M-2 0l462 1466h171l492 -1466h-182l-140 444h-502l-132 -444h-169zM345 602h407l-125 406q-58 187 -85 304q-23 -141 -65 -280zM297 1567v148h512v-148h-512z" />
    <glyph glyph-name="amacron" unicode="&#x101;" 
d="M676 131q-74 -77 -154 -116t-166 -39q-136 0 -217 82t-81 221q0 92 38 163t104 111t200 59q180 26 264 62l1 46q0 109 -39 153q-55 64 -169 64q-103 0 -154 -42.5t-75 -159.5l-145 24q31 171 125.5 249t270.5 78q137 0 215 -51.5t98.5 -127.5t20.5 -222v-240
q0 -252 9.5 -317.5t37.5 -127.5h-154q-23 55 -30 131zM664 533q-81 -40 -241 -68q-93 -16 -130 -36.5t-57.5 -58t-20.5 -86.5q0 -76 47 -121.5t130 -45.5q79 0 143.5 41t96.5 109.5t32 199.5v66zM194 1196v148h512v-148h-512z" />
    <glyph glyph-name="Abreve" unicode="&#x102;" horiz-adv-x="1120" 
d="M-2 0l462 1466h171l492 -1466h-182l-140 444h-502l-132 -444h-169zM345 602h407l-125 406q-58 187 -85 304q-23 -141 -65 -280zM686 1827h101q-13 -129 -78 -194t-165 -65t-164.5 65t-77.5 194h101q23 -135 137 -135q64 0 99 32t47 103z" />
    <glyph glyph-name="abreve" unicode="&#x103;" 
d="M676 131q-74 -77 -154 -116t-166 -39q-136 0 -217 82t-81 221q0 92 38 163t104 111t200 59q180 26 264 62l1 46q0 109 -39 153q-55 64 -169 64q-103 0 -154 -42.5t-75 -159.5l-145 24q31 171 125.5 249t270.5 78q137 0 215 -51.5t98.5 -127.5t20.5 -222v-240
q0 -252 9.5 -317.5t37.5 -127.5h-154q-23 55 -30 131zM664 533q-81 -40 -241 -68q-93 -16 -130 -36.5t-57.5 -58t-20.5 -86.5q0 -76 47 -121.5t130 -45.5q79 0 143.5 41t96.5 109.5t32 199.5v66zM594 1464h101q-13 -129 -78 -194t-165 -65t-164.5 65t-77.5 194h101
q23 -135 137 -135q64 0 99 32t47 103z" />
    <glyph glyph-name="Aogonek" unicode="&#x104;" horiz-adv-x="1120" 
d="M-2 0l462 1466h171l492 -1466h-182l-140 444h-502l-132 -444h-169zM345 602h407l-125 406q-58 187 -85 304q-23 -141 -65 -280zM975 24h101q-31 -89 -31 -165q0 -69 34 -110t84 -41q62 0 137 46v-119q-96 -60 -179 -60q-79 0 -129.5 58t-50.5 165q0 85 34 226z" />
    <glyph glyph-name="aogonek" unicode="&#x105;" 
d="M676 131q-74 -77 -154 -116t-166 -39q-136 0 -217 82t-81 221q0 92 38 163t104 111t200 59q180 26 264 62l1 46q0 109 -39 153q-55 64 -169 64q-103 0 -154 -42.5t-75 -159.5l-145 24q31 171 125.5 249t270.5 78q137 0 215 -51.5t98.5 -127.5t20.5 -222v-240
q0 -252 9.5 -317.5t37.5 -127.5h-154q-23 55 -30 131zM664 533q-81 -40 -241 -68q-93 -16 -130 -36.5t-57.5 -58t-20.5 -86.5q0 -76 47 -121.5t130 -45.5q79 0 143.5 41t96.5 109.5t32 199.5v66zM737 24h101q-31 -89 -31 -165q0 -69 34 -110t84 -41q62 0 137 46v-119
q-96 -60 -179 -60q-79 0 -129.5 58t-50.5 165q0 85 34 226z" />
    <glyph glyph-name="Cacute" unicode="&#x106;" horiz-adv-x="1212" 
d="M983 514l160 -49q-53 -247 -185.5 -368.5t-322.5 -121.5q-167 0 -285.5 81.5t-194 261.5t-75.5 425q0 242 75.5 409.5t204.5 253t288 85.5q174 0 299 -108.5t175 -318.5l-156 -45q-80 306 -321 306q-120 0 -208 -61.5t-140.5 -191.5t-52.5 -329q0 -301 106 -451.5
t282 -150.5q130 0 224.5 92.5t126.5 280.5zM485 1566l109 280h193l-180 -280h-122z" />
    <glyph glyph-name="cacute" unicode="&#x107;" horiz-adv-x="840" 
d="M679 389l145 -23q-25 -190 -125.5 -290t-241.5 -100q-171 0 -281.5 140.5t-110.5 415.5q0 277 111.5 415.5t286.5 138.5q135 0 227.5 -84t118.5 -252l-143 -27q-21 108 -73 161.5t-125 53.5q-109 0 -180.5 -96.5t-71.5 -306.5q0 -217 68.5 -314t175.5 -97
q84 0 143.5 64.5t75.5 200.5zM323 1194l109 280h193l-180 -280h-122z" />
    <glyph glyph-name="Ccircumflex" unicode="&#x108;" horiz-adv-x="1212" 
d="M983 514l160 -49q-53 -247 -185.5 -368.5t-322.5 -121.5q-167 0 -285.5 81.5t-194 261.5t-75.5 425q0 242 75.5 409.5t204.5 253t288 85.5q174 0 299 -108.5t175 -318.5l-156 -45q-80 306 -321 306q-120 0 -208 -61.5t-140.5 -191.5t-52.5 -329q0 -301 106 -451.5
t282 -150.5q130 0 224.5 92.5t126.5 280.5zM643 1737l-92 -170h-169l177 280h158l184 -280h-167z" />
    <glyph glyph-name="ccircumflex" unicode="&#x109;" horiz-adv-x="840" 
d="M679 389l145 -23q-25 -190 -125.5 -290t-241.5 -100q-171 0 -281.5 140.5t-110.5 415.5q0 277 111.5 415.5t286.5 138.5q135 0 227.5 -84t118.5 -252l-143 -27q-21 108 -73 161.5t-125 53.5q-109 0 -180.5 -96.5t-71.5 -306.5q0 -217 68.5 -314t175.5 -97
q84 0 143.5 64.5t75.5 200.5zM482 1364l-92 -170h-169l177 280h158l184 -280h-167z" />
    <glyph glyph-name="Cdot" unicode="&#x10a;" horiz-adv-x="1212" 
d="M983 514l160 -49q-53 -247 -185.5 -368.5t-322.5 -121.5q-167 0 -285.5 81.5t-194 261.5t-75.5 425q0 242 75.5 409.5t204.5 253t288 85.5q174 0 299 -108.5t175 -318.5l-156 -45q-80 306 -321 306q-120 0 -208 -61.5t-140.5 -191.5t-52.5 -329q0 -301 106 -451.5
t282 -150.5q130 0 224.5 92.5t126.5 280.5zM530 1567v224h183v-224h-183z" />
    <glyph glyph-name="cdot" unicode="&#x10b;" horiz-adv-x="840" 
d="M679 389l145 -23q-25 -190 -125.5 -290t-241.5 -100q-171 0 -281.5 140.5t-110.5 415.5q0 277 111.5 415.5t286.5 138.5q135 0 227.5 -84t118.5 -252l-143 -27q-21 108 -73 161.5t-125 53.5q-109 0 -180.5 -96.5t-71.5 -306.5q0 -217 68.5 -314t175.5 -97
q84 0 143.5 64.5t75.5 200.5zM362 1194v224h183v-224h-183z" />
    <glyph glyph-name="Ccaron" unicode="&#x10c;" horiz-adv-x="1212" 
d="M983 514l160 -49q-53 -247 -185.5 -368.5t-322.5 -121.5q-167 0 -285.5 81.5t-194 261.5t-75.5 425q0 242 75.5 409.5t204.5 253t288 85.5q174 0 299 -108.5t175 -318.5l-156 -45q-80 306 -321 306q-120 0 -208 -61.5t-140.5 -191.5t-52.5 -329q0 -301 106 -451.5
t282 -150.5q130 0 224.5 92.5t126.5 280.5zM625 1677l91 170h167l-184 -280h-158l-177 280h169z" />
    <glyph glyph-name="ccaron" unicode="&#x10d;" horiz-adv-x="840" 
d="M679 389l145 -23q-25 -190 -125.5 -290t-241.5 -100q-171 0 -281.5 140.5t-110.5 415.5q0 277 111.5 415.5t286.5 138.5q135 0 227.5 -84t118.5 -252l-143 -27q-21 108 -73 161.5t-125 53.5q-109 0 -180.5 -96.5t-71.5 -306.5q0 -217 68.5 -314t175.5 -97
q84 0 143.5 64.5t75.5 200.5zM471 1304l91 170h167l-184 -280h-158l-177 280h169z" />
    <glyph glyph-name="Dcaron" unicode="&#x10e;" horiz-adv-x="1212" 
d="M126 0v1466h415q154 0 234 -27q105 -35 182 -128t120 -234.5t43 -335.5q0 -249 -73 -422.5t-187.5 -246t-299.5 -72.5h-434zM285 173h256q155 0 235 50.5t123 162.5q57 149 57 357q0 223 -60.5 350.5t-155.5 170.5q-64 29 -203 29h-252v-1120zM582 1677l91 170h167
l-184 -280h-158l-177 280h169z" />
    <glyph glyph-name="dcaron" unicode="&#x10f;" horiz-adv-x="1032" 
d="M673 0v134q-40 -77 -103 -117.5t-136 -40.5q-154 0 -266.5 145.5t-112.5 409.5q0 181 50 307t133.5 187t185.5 61q73 0 135.5 -38.5t103.5 -107.5v526h148v-1466h-138zM206 530q0 -206 71.5 -306t166.5 -100q94 0 163 96t69 290q0 223 -69 325.5t-174 102.5
q-93 0 -160 -98.5t-67 -309.5zM885 1283v184h151v-184q0 -161 -123 -227l-37 69q78 43 84 158h-75z" />
    <glyph glyph-name="Dslash" unicode="&#x110;" horiz-adv-x="1212" 
d="M126 0v667h-132v132h132v667h415q155 0 234 -27q105 -35 182 -128t120 -234.5t43 -336.5q0 -211 -53.5 -369t-132 -237.5t-189.5 -114.5q-62 -19 -185 -19h-434zM285 173h256q155 0 235 50.5t122 161.5q58 150 58 356q0 227 -61 354t-156 170q-64 28 -202 28h-252v-494
h332v-132h-332v-494z" />
    <glyph glyph-name="dmacron" unicode="&#x111;" horiz-adv-x="928" 
d="M666 1224h-283v104h283v138h148v-138h118v-104h-118v-1224h-138v134q-40 -77 -103 -117.5t-136 -40.5q-154 0 -266.5 145.5t-112.5 409.5q0 181 50 307t133.5 187t185.5 61q73 0 135.5 -38.5t103.5 -107.5v284zM209 530q0 -206 71.5 -306t166.5 -100q94 0 163 96t69 290
q0 223 -69 325.5t-174 102.5q-93 0 -160 -98.5t-67 -309.5z" />
    <glyph glyph-name="Emacron" unicode="&#x112;" horiz-adv-x="1120" 
d="M133 0v1466h869v-173h-710v-449h665v-172h-665v-499h738v-173h-897zM324 1568v148h512v-148h-512z" />
    <glyph glyph-name="emacron" unicode="&#x113;" 
d="M704 342l152 -23q-38 -170 -137.5 -256.5t-246.5 -86.5q-185 0 -299.5 140.5t-114.5 405.5q0 275 115.5 419.5t292.5 144.5q169 0 282 -142t113 -411l-1 -48h-650q9 -179 83 -270t180 -91q166 0 231 218zM219 633h486q-10 138 -59 206q-71 99 -181 99q-99 0 -169 -82.5
t-77 -222.5zM198 1196v148h512v-148h-512z" />
    <glyph glyph-name="Ebreve" unicode="&#x114;" horiz-adv-x="1120" 
d="M133 0v1466h869v-173h-710v-449h665v-172h-665v-499h738v-173h-897zM705 1825h101q-13 -129 -78 -194t-165 -65t-164.5 65t-77.5 194h101q23 -135 137 -135q64 0 99 32t47 103z" />
    <glyph glyph-name="ebreve" unicode="&#x115;" 
d="M704 342l152 -23q-38 -170 -137.5 -256.5t-246.5 -86.5q-185 0 -299.5 140.5t-114.5 405.5q0 275 115.5 419.5t292.5 144.5q169 0 282 -142t113 -411l-1 -48h-650q9 -179 83 -270t180 -91q166 0 231 218zM219 633h486q-10 138 -59 206q-71 99 -181 99q-99 0 -169 -82.5
t-77 -222.5zM584 1452h101q-13 -129 -78 -194t-165 -65t-164.5 65t-77.5 194h101q23 -135 137 -135q64 0 99 32t47 103z" />
    <glyph glyph-name="Edot" unicode="&#x116;" horiz-adv-x="1120" 
d="M133 0v1466h869v-173h-710v-449h665v-172h-665v-499h738v-173h-897zM500 1567v224h183v-224h-183z" />
    <glyph glyph-name="edot" unicode="&#x117;" 
d="M704 342l152 -23q-38 -170 -137.5 -256.5t-246.5 -86.5q-185 0 -299.5 140.5t-114.5 405.5q0 275 115.5 419.5t292.5 144.5q169 0 282 -142t113 -411l-1 -48h-650q9 -179 83 -270t180 -91q166 0 231 218zM219 633h486q-10 138 -59 206q-71 99 -181 99q-99 0 -169 -82.5
t-77 -222.5zM374 1194v224h183v-224h-183z" />
    <glyph glyph-name="Eogonek" unicode="&#x118;" horiz-adv-x="1120" 
d="M133 0v1466h869v-173h-710v-449h665v-172h-665v-499h738v-173h-897zM621 24h101q-31 -89 -31 -165q0 -69 34 -110t84 -41q62 0 137 46v-119q-96 -60 -179 -60q-79 0 -129.5 58t-50.5 165q0 85 34 226z" />
    <glyph glyph-name="eogonek" unicode="&#x119;" 
d="M704 342l152 -23q-38 -170 -137.5 -256.5t-246.5 -86.5q-185 0 -299.5 140.5t-114.5 405.5q0 275 115.5 419.5t292.5 144.5q169 0 282 -142t113 -411l-1 -48h-650q9 -179 83 -270t180 -91q166 0 231 218zM219 633h486q-10 138 -59 206q-71 99 -181 99q-99 0 -169 -82.5
t-77 -222.5zM412 24h101q-31 -89 -31 -165q0 -69 34 -110t84 -41q62 0 137 46v-119q-96 -60 -179 -60q-79 0 -129.5 58t-50.5 165q0 85 34 226z" />
    <glyph glyph-name="Ecaron" unicode="&#x11a;" horiz-adv-x="1120" 
d="M133 0v1466h869v-173h-710v-449h665v-172h-665v-499h738v-173h-897zM588 1677l91 170h167l-184 -280h-158l-177 280h169z" />
    <glyph glyph-name="ecaron" unicode="&#x11b;" 
d="M704 342l152 -23q-38 -170 -137.5 -256.5t-246.5 -86.5q-185 0 -299.5 140.5t-114.5 405.5q0 275 115.5 419.5t292.5 144.5q169 0 282 -142t113 -411l-1 -48h-650q9 -179 83 -270t180 -91q166 0 231 218zM219 633h486q-10 138 -59 206q-71 99 -181 99q-99 0 -169 -82.5
t-77 -222.5zM460 1304l91 170h167l-184 -280h-158l-177 280h169z" />
    <glyph glyph-name="Gcircumflex" unicode="&#x11c;" horiz-adv-x="1307" 
d="M696 575v172l509 1v-544q-117 -114 -242 -171.5t-257 -57.5q-176 0 -314 88t-218.5 257t-80.5 406q0 240 81 418t212 262.5t310 84.5q132 0 231 -49t163 -139t96 -247l-143 -48q-29 124 -73 185.5t-116 96.5t-162 35q-131 0 -225.5 -63.5t-152 -197.5t-57.5 -327
q0 -294 123 -440.5t320 -146.5q94 0 192.5 45t156.5 107v273h-353zM693 1737l-92 -170h-169l177 280h158l184 -280h-167z" />
    <glyph glyph-name="gcircumflex" unicode="&#x11d;" 
d="M80 -88l144 -26q10 -85 60 -126.5t139 -41.5q97 0 154.5 46.5t78.5 138.5q13 56 13 236q-48 -69 -108 -104t-133 -35q-156 0 -259 132q-118 152 -118 407q0 171 52 299t136.5 188t189.5 60q77 0 140.5 -38t112.5 -114v128h136v-918q0 -245 -40 -349.5t-131 -165
t-219 -60.5q-169 0 -260 91t-88 252zM203 550q0 -209 69 -305t169 -96t170 94t70 299q0 200 -72 297.5t-175 97.5q-92 0 -161.5 -97.5t-69.5 -289.5zM461 1364l-92 -170h-169l177 280h158l184 -280h-167z" />
    <glyph glyph-name="Gbreve" unicode="&#x11e;" horiz-adv-x="1307" 
d="M696 575v172l509 1v-544q-117 -114 -242 -171.5t-257 -57.5q-176 0 -314 88t-218.5 257t-80.5 406q0 240 81 418t212 262.5t310 84.5q132 0 231 -49t163 -139t96 -247l-143 -48q-29 124 -73 185.5t-116 96.5t-162 35q-131 0 -225.5 -63.5t-152 -197.5t-57.5 -327
q0 -294 123 -440.5t320 -146.5q94 0 192.5 45t156.5 107v273h-353zM800 1826h101q-13 -129 -78 -194t-165 -65t-164.5 65t-77.5 194h101q23 -135 137 -135q64 0 99 32t47 103z" />
    <glyph glyph-name="gbreve" unicode="&#x11f;" 
d="M80 -88l144 -26q10 -85 60 -126.5t139 -41.5q97 0 154.5 46.5t78.5 138.5q13 56 13 236q-48 -69 -108 -104t-133 -35q-156 0 -259 132q-118 152 -118 407q0 171 52 299t136.5 188t189.5 60q77 0 140.5 -38t112.5 -114v128h136v-918q0 -245 -40 -349.5t-131 -165
t-219 -60.5q-169 0 -260 91t-88 252zM203 550q0 -209 69 -305t169 -96t170 94t70 299q0 200 -72 297.5t-175 97.5q-92 0 -161.5 -97.5t-69.5 -289.5zM576 1464h101q-13 -129 -78 -194t-165 -65t-164.5 65t-77.5 194h101q23 -135 137 -135q64 0 99 32t47 103z" />
    <glyph glyph-name="Gdot" unicode="&#x120;" horiz-adv-x="1307" 
d="M696 575v172l509 1v-544q-117 -114 -242 -171.5t-257 -57.5q-176 0 -314 88t-218.5 257t-80.5 406q0 240 81 418t212 262.5t310 84.5q132 0 231 -49t163 -139t96 -247l-143 -48q-29 124 -73 185.5t-116 96.5t-162 35q-131 0 -225.5 -63.5t-152 -197.5t-57.5 -327
q0 -294 123 -440.5t320 -146.5q94 0 192.5 45t156.5 107v273h-353zM590 1567v224h183v-224h-183z" />
    <glyph glyph-name="gdot" unicode="&#x121;" 
d="M80 -88l144 -26q10 -85 60 -126.5t139 -41.5q97 0 154.5 46.5t78.5 138.5q13 56 13 236q-48 -69 -108 -104t-133 -35q-156 0 -259 132q-118 152 -118 407q0 171 52 299t136.5 188t189.5 60q77 0 140.5 -38t112.5 -114v128h136v-918q0 -245 -40 -349.5t-131 -165
t-219 -60.5q-169 0 -260 91t-88 252zM203 550q0 -209 69 -305t169 -96t170 94t70 299q0 200 -72 297.5t-175 97.5q-92 0 -161.5 -97.5t-69.5 -289.5zM353 1194v224h183v-224h-183z" />
    <glyph glyph-name="Gcedilla" unicode="&#x122;" horiz-adv-x="1307" 
d="M696 575v172l509 1v-544q-117 -114 -242 -171.5t-257 -57.5q-176 0 -314 88t-218.5 257t-80.5 406q0 240 81 418t212 262.5t310 84.5q132 0 231 -49t163 -139t96 -247l-143 -48q-29 124 -73 185.5t-116 96.5t-162 35q-131 0 -225.5 -63.5t-152 -197.5t-57.5 -327
q0 -294 123 -440.5t320 -146.5q94 0 192.5 45t156.5 107v273h-353zM577 -154l43 177h110l-28 -107q68 -10 104.5 -51t36.5 -99q0 -78 -62.5 -132.5t-170.5 -54.5q-71 0 -122 12l9 117q53 -4 81 -4q67 0 97.5 21t30.5 54q0 31 -27.5 48.5t-101.5 18.5z" />
    <glyph glyph-name="gcedilla" unicode="&#x123;" 
d="M80 -88l144 -26q10 -85 60 -126.5t139 -41.5q97 0 154.5 46.5t78.5 138.5q13 56 13 236q-48 -69 -108 -104t-133 -35q-156 0 -259 132q-118 152 -118 407q0 171 52 299t136.5 188t189.5 60q77 0 140.5 -38t112.5 -114v128h136v-918q0 -245 -40 -349.5t-131 -165
t-219 -60.5q-169 0 -260 91t-88 252zM203 550q0 -209 69 -305t169 -96t170 94t70 299q0 200 -72 297.5t-175 97.5q-92 0 -161.5 -97.5t-69.5 -289.5zM495 1379v-184h-151v184q0 161 123 227l37 -69q-78 -43 -84 -158h75z" />
    <glyph glyph-name="Hcircumflex" unicode="&#x124;" horiz-adv-x="1212" 
d="M129 0v1466h159v-602h625v602h159v-1466h-159v691h-625v-691h-159zM599 1737l-92 -170h-169l177 280h158l184 -280h-167z" />
    <glyph glyph-name="hcircumflex" unicode="&#x125;" 
d="M108 0v1466h147v-526q52 73 117.5 109.5t144.5 36.5q139 0 219.5 -88.5t80.5 -324.5v-673h-147v673q0 138 -49 198t-135 60q-96 0 -163.5 -77t-67.5 -273v-581h-147zM482 1737l-92 -170h-169l177 280h158l184 -280h-167z" />
    <glyph glyph-name="Hbar" unicode="&#x126;" horiz-adv-x="1212" 
d="M1079 1127v-1127h-159v692h-625v-692h-160v1127h-111v148h111v191h160v-191h625v191h159v-191h113v-148h-113zM920 1127h-625v-263h625v263z" />
    <glyph glyph-name="hbar" unicode="&#x127;" 
d="M108 0v1187h-160v148h160v131h147v-131h205v-148h-205v-247q52 73 117.5 109.5t144.5 36.5q139 0 219.5 -88.5t80.5 -324.5v-673h-147v673q0 138 -49 198t-135 60q-96 0 -163.5 -77t-67.5 -273v-581h-147z" />
    <glyph glyph-name="Itilde" unicode="&#x128;" horiz-adv-x="467" 
d="M160 0v1466h159v-1466h-159zM-33 1568q-1 107 48 168q48 60 118 60q52 0 139 -54q48 -30 77 -30q27 0 40.5 17.5t19.5 69.5h107q-3 -115 -48.5 -171.5t-113.5 -56.5q-50 0 -135 56q-55 36 -80 36q-27 0 -45 -23.5t-18 -71.5h-109z" />
    <glyph glyph-name="itilde" unicode="&#x129;" horiz-adv-x="467" 
d="M166 0v1062h147v-1062h-147zM-42 1195q-1 107 48 168q48 60 118 60q52 0 139 -54q48 -30 77 -30q27 0 40.5 17.5t19.5 69.5h107q-3 -115 -48.5 -171.5t-113.5 -56.5q-50 0 -135 56q-55 36 -80 36q-27 0 -45 -23.5t-18 -71.5h-109z" />
    <glyph glyph-name="Imacron" unicode="&#x12a;" horiz-adv-x="467" 
d="M160 0v1466h159v-1466h-159zM-24 1568v148h512v-148h-512z" />
    <glyph glyph-name="imacron" unicode="&#x12b;" horiz-adv-x="467" 
d="M166 0v1062h147v-1062h-147zM-23 1195v148h512v-148h-512z" />
    <glyph glyph-name="Ibreve" unicode="&#x12c;" horiz-adv-x="467" 
d="M160 0v1466h159v-1466h-159zM382 1825h101q-13 -129 -78 -194t-165 -65t-164.5 65t-77.5 194h101q23 -135 137 -135q64 0 99 32t47 103z" />
    <glyph glyph-name="ibreve" unicode="&#x12d;" horiz-adv-x="467" 
d="M166 0v1062h147v-1062h-147zM380 1464h101q-13 -129 -78 -194t-165 -65t-164.5 65t-77.5 194h101q23 -135 137 -135q64 0 99 32t47 103z" />
    <glyph glyph-name="Iogonek" unicode="&#x12e;" horiz-adv-x="467" 
d="M160 0v1466h159v-1466h-159zM187 24h101q-31 -89 -31 -165q0 -69 34 -110t84 -41q62 0 137 46v-119q-96 -60 -179 -60q-79 0 -129.5 58t-50.5 165q0 85 34 226z" />
    <glyph glyph-name="iogonek" unicode="&#x12f;" horiz-adv-x="373" 
d="M108 1259v207h147v-207h-147zM108 0v1062h147v-1062h-147zM134 24h101q-31 -89 -31 -165q0 -69 34 -110t84 -41q62 0 137 46v-119q-96 -60 -179 -60q-79 0 -129.5 58t-50.5 165q0 85 34 226z" />
    <glyph glyph-name="Idot" unicode="&#x130;" horiz-adv-x="467" 
d="M160 0v1466h159v-1466h-159zM149 1567v224h183v-224h-183z" />
    <glyph glyph-name="dotlessi" unicode="&#x131;" horiz-adv-x="467" 
d="M166 0v1062h147v-1062h-147z" />
    <glyph glyph-name="IJ" unicode="&#x132;" horiz-adv-x="1307" 
d="M160 0v1466h159v-1466h-159zM513 416l143 24q6 -168 52 -230t127 -62q57 0 100.5 31.5t58.5 79.5q21 65 21 197v1010h159v-999q0 -270 -88.5 -381t-249.5 -111q-157 0 -234 100q-89 114 -89 341z" />
    <glyph glyph-name="ij" unicode="&#x133;" horiz-adv-x="746" 
d="M108 1259v207h147v-207h-147zM108 0v1062h147v-1062h-147zM479 1257v209h147v-209h-147zM292 -412l28 153q44 -14 69 -14q47 0 68.5 37t21.5 182v1116h147v-1120q0 -217 -55.5 -295t-162.5 -78q-60 0 -116 19z" />
    <glyph glyph-name="Jcircumflex" unicode="&#x134;" horiz-adv-x="840" 
d="M45 416l143 24q6 -168 52 -230t127 -62q57 0 100.5 31.5t58.5 79.5q21 65 21 197v1010h159v-999q0 -270 -88.5 -381t-249.5 -111q-157 0 -234 100q-89 114 -89 341zM635 1737l-92 -170h-169l177 280h158l184 -280h-167z" />
    <glyph glyph-name="jcircumflex" unicode="&#x135;" horiz-adv-x="373" 
d="M-80 -412l28 153q44 -14 69 -14q47 0 68.5 37t21.5 182v1116h147v-1120q0 -217 -55.5 -295t-162.5 -78q-60 0 -116 19zM189 1364l-92 -170h-169l177 280h158l184 -280h-167z" />
    <glyph glyph-name="Kcedilla" unicode="&#x136;" horiz-adv-x="1120" 
d="M124 0v1466h159v-727l597 727h216l-505 -594l527 -872h-210l-428 742l-197 -234v-508h-159zM520 -154l12 74q79 0 121 -6q61 -9 97 -49.5t36 -98.5q0 -78 -62.5 -132.5t-170.5 -54.5q-71 0 -122 12l9 117q53 -4 81 -4q67 0 97.5 21t30.5 54q0 31 -27.5 48.5t-101.5 18.5z
" />
    <glyph glyph-name="kcedilla" unicode="&#x137;" horiz-adv-x="840" 
d="M107 0v1466h147v-836l350 432h191l-333 -394l366 -668h-181l-289 543l-104 -122v-421h-147zM314 -154l12 74q79 0 121 -6q61 -9 97 -49.5t36 -98.5q0 -78 -62.5 -132.5t-170.5 -54.5q-71 0 -122 12l9 117q53 -4 81 -4q67 0 97.5 21t30.5 54q0 31 -27.5 48.5t-101.5 18.5z
" />
    <glyph glyph-name="kgreenlandic" unicode="&#x138;" horiz-adv-x="836" 
d="M109 0v1061h147v-416l352 416h197l-391 -440l424 -621h-189l-340 500l-53 -62v-438h-147z" />
    <glyph glyph-name="Lacute" unicode="&#x139;" 
d="M120 0v1466h159v-1293h592v-173h-751zM418 1566l109 280h193l-180 -280h-122z" />
    <glyph glyph-name="lacute" unicode="&#x13a;" horiz-adv-x="373" 
d="M104 0v1466h147v-1466h-147zM106 1566l109 280h193l-180 -280h-122z" />
    <glyph glyph-name="Lcedilla" unicode="&#x13b;" 
d="M120 0v1466h159v-1293h592v-173h-751zM406 -154l12 74q79 0 121 -6q61 -9 97 -49.5t36 -98.5q0 -78 -62.5 -132.5t-170.5 -54.5q-71 0 -122 12l9 117q53 -4 81 -4q67 0 97.5 21t30.5 54q0 31 -27.5 48.5t-101.5 18.5z" />
    <glyph glyph-name="lcedilla" unicode="&#x13c;" horiz-adv-x="373" 
d="M9 0v1466h147v-1466h-147zM5 -154l12 74q79 0 121 -6q61 -9 97 -49.5t36 -98.5q0 -78 -62.5 -132.5t-170.5 -54.5q-71 0 -122 12l9 117q53 -4 81 -4q67 0 97.5 21t30.5 54q0 31 -27.5 48.5t-101.5 18.5z" />
    <glyph glyph-name="Lcaron" unicode="&#x13d;" 
d="M120 0v1466h159v-1293h592v-173h-751zM577 1295v184h151v-184q0 -161 -123 -227l-37 69q78 43 84 158h-75z" />
    <glyph glyph-name="lcaron" unicode="&#x13e;" horiz-adv-x="489" 
d="M104 0v1466h147v-1466h-147zM337 1295v184h151v-184q0 -161 -123 -227l-37 69q78 43 84 158h-75z" />
    <glyph glyph-name="Ldot" unicode="&#x13f;" 
d="M120 0v1466h159v-1293h592v-173h-751zM631 637v205h168v-205h-168z" />
    <glyph glyph-name="ldot" unicode="&#x140;" horiz-adv-x="661" 
d="M104 0v1466h147v-1466h-147zM376 637v205h168v-205h-168z" />
    <glyph glyph-name="Lslash" unicode="&#x141;" 
d="M116 565l-119 -123v167l119 124v733h159v-568l163 166v-167l-163 -166v-558h597v-173h-756v565z" />
    <glyph glyph-name="lslash" unicode="&#x142;" horiz-adv-x="373" 
d="M105 574l-106 -110v158l106 110v734h148v-582l110 115v-157l-110 -115v-727h-148v574z" />
    <glyph glyph-name="Nacute" unicode="&#x143;" horiz-adv-x="1212" 
d="M125 0v1466h163l632 -1151v1151h152v-1466h-163l-631 1152v-1152h-153zM492 1566l109 280h193l-180 -280h-122z" />
    <glyph glyph-name="nacute" unicode="&#x144;" 
d="M108 0v1062h133v-151q48 88 117.5 131.5t159.5 43.5q70 0 129.5 -27.5t96 -72t54.5 -115.5t18 -218v-653h-148v646q0 117 -20 171t-62.5 83.5t-98.5 29.5q-106 0 -169 -79t-63 -271v-580h-147zM377 1194l109 280h193l-180 -280h-122z" />
    <glyph glyph-name="Ncedilla" unicode="&#x145;" horiz-adv-x="1212" 
d="M125 0v1466h163l632 -1151v1151h152v-1466h-163l-631 1152v-1152h-153zM519 -154l12 74q79 0 121 -6q61 -9 97 -49.5t36 -98.5q0 -78 -62.5 -132.5t-170.5 -54.5q-71 0 -122 12l9 117q53 -4 81 -4q67 0 97.5 21t30.5 54q0 31 -27.5 48.5t-101.5 18.5z" />
    <glyph glyph-name="ncedilla" unicode="&#x146;" 
d="M108 0v1062h133v-151q48 88 117.5 131.5t159.5 43.5q70 0 129.5 -27.5t96 -72t54.5 -115.5t18 -218v-653h-148v646q0 117 -20 171t-62.5 83.5t-98.5 29.5q-106 0 -169 -79t-63 -271v-580h-147zM374 -154l12 74q79 0 121 -6q61 -9 97 -49.5t36 -98.5q0 -78 -62.5 -132.5
t-170.5 -54.5q-71 0 -122 12l9 117q53 -4 81 -4q67 0 97.5 21t30.5 54q0 31 -27.5 48.5t-101.5 18.5z" />
    <glyph glyph-name="Ncaron" unicode="&#x147;" horiz-adv-x="1212" 
d="M125 0v1466h163l632 -1151v1151h152v-1466h-163l-631 1152v-1152h-153zM599 1677l91 170h167l-184 -280h-158l-177 280h169z" />
    <glyph glyph-name="ncaron" unicode="&#x148;" 
d="M108 0v1062h133v-151q48 88 117.5 131.5t159.5 43.5q70 0 129.5 -27.5t96 -72t54.5 -115.5t18 -218v-653h-148v646q0 117 -20 171t-62.5 83.5t-98.5 29.5q-106 0 -169 -79t-63 -271v-580h-147zM473 1304l91 170h167l-184 -280h-158l-177 280h169z" />
    <glyph glyph-name="napostrophe" unicode="&#x149;" horiz-adv-x="1173" 
d="M92 1260v205h168v-205q0 -119 -35 -186.5t-102 -103.5l-41 77q45 24 68 71.5t25 141.5h-83zM356 0v1062h133v-151q48 88 117.5 131.5t159.5 43.5q70 0 129.5 -27.5t96 -72t54.5 -115.5t18 -218v-653h-148v646q0 117 -20 171t-62.5 83.5t-98.5 29.5q-106 0 -169 -79
t-63 -271v-580h-147z" />
    <glyph glyph-name="Eng" unicode="&#x14a;" horiz-adv-x="1212" 
d="M133 0v1466h160v-88q90 88 254 88q294 0 436.5 -173t142.5 -550q0 -359 -127 -558.5t-352 -199.5q-43 0 -160 23v166q68 -8 155 -23q171 15 246 150.5t75 443.5q0 310 -103.5 429.5t-314.5 119.5q-155 0 -252 -100v-1194h-160z" />
    <glyph glyph-name="eng" unicode="&#x14b;" 
d="M492 -412l28 154q52 -14 72 -14q45 0 65 36t18 145v615q1 208 -15 272t-57 99t-111 35q-83 0 -156.5 -68t-73.5 -282v-580h-147v1061h133v-150q97 174 276 174q107 0 182.5 -58.5t96 -142t20.5 -231.5v-707q2 -206 -48.5 -290t-162.5 -84q-75 0 -120 16z" />
    <glyph glyph-name="Omacron" unicode="&#x14c;" horiz-adv-x="1307" 
d="M85 714q0 375 165 576.5t411 201.5q159 0 290 -90t207.5 -261.5t76.5 -408.5q0 -326 -148 -531q-163 -226 -427 -226q-266 0 -428 232q-147 210 -147 507zM249 711q0 -271 119.5 -420.5t290.5 -149.5q175 0 293.5 151t118.5 444q0 189 -61 338q-47 114 -141.5 182.5
t-206.5 68.5q-180 0 -296.5 -150t-116.5 -464zM390 1568v148h512v-148h-512z" />
    <glyph glyph-name="omacron" unicode="&#x14d;" 
d="M53 531q0 275 115.5 415t292.5 140q174 0 291 -140t117 -404q0 -286 -115 -426t-293 -140q-175 0 -291.5 140.5t-116.5 414.5zM204 531q0 -206 75 -306.5t186 -100.5q104 0 178.5 101.5t74.5 305.5q0 205 -75 305.5t-186 100.5q-105 0 -179 -101t-74 -305zM207 1195v148
h512v-148h-512z" />
    <glyph glyph-name="Obreve" unicode="&#x14e;" horiz-adv-x="1307" 
d="M85 714q0 375 165 576.5t411 201.5q159 0 290 -90t207.5 -261.5t76.5 -408.5q0 -326 -148 -531q-163 -226 -427 -226q-266 0 -428 232q-147 210 -147 507zM249 711q0 -271 119.5 -420.5t290.5 -149.5q175 0 293.5 151t118.5 444q0 189 -61 338q-47 114 -141.5 182.5
t-206.5 68.5q-180 0 -296.5 -150t-116.5 -464zM784 1825h101q-13 -129 -78 -194t-165 -65t-164.5 65t-77.5 194h101q23 -135 137 -135q64 0 99 32t47 103z" />
    <glyph glyph-name="obreve" unicode="&#x14f;" 
d="M53 531q0 275 115.5 415t292.5 140q174 0 291 -140t117 -404q0 -286 -115 -426t-293 -140q-175 0 -291.5 140.5t-116.5 414.5zM204 531q0 -206 75 -306.5t186 -100.5q104 0 178.5 101.5t74.5 305.5q0 205 -75 305.5t-186 100.5q-105 0 -179 -101t-74 -305zM606 1452h101
q-13 -129 -78 -194t-165 -65t-164.5 65t-77.5 194h101q23 -135 137 -135q64 0 99 32t47 103z" />
    <glyph glyph-name="Odblacute" unicode="&#x150;" horiz-adv-x="1307" 
d="M85 714q0 375 165 576.5t411 201.5q159 0 290 -90t207.5 -261.5t76.5 -408.5q0 -326 -148 -531q-163 -226 -427 -226q-266 0 -428 232q-147 210 -147 507zM249 711q0 -271 119.5 -420.5t290.5 -149.5q175 0 293.5 151t118.5 444q0 189 -61 338q-47 114 -141.5 182.5
t-206.5 68.5q-180 0 -296.5 -150t-116.5 -464zM420 1566l99 280h192l-173 -280h-118zM704 1566l104 280h190l-170 -280h-124z" />
    <glyph glyph-name="odblacute" unicode="&#x151;" 
d="M53 531q0 275 115.5 415t292.5 140q174 0 291 -140t117 -404q0 -286 -115 -426t-293 -140q-175 0 -291.5 140.5t-116.5 414.5zM204 531q0 -206 75 -306.5t186 -100.5q104 0 178.5 101.5t74.5 305.5q0 205 -75 305.5t-186 100.5q-105 0 -179 -101t-74 -305zM220 1194
l99 280h192l-173 -280h-118zM504 1194l104 280h190l-170 -280h-124z" />
    <glyph glyph-name="OE" unicode="&#x152;" horiz-adv-x="1679" 
d="M1626 173v-173h-707v212q-55 -118 -136.5 -177.5t-189.5 -59.5q-211 0 -337 172q-150 206 -150 589q0 256 67 430t171 249.5t249 75.5q108 0 189.5 -55.5t136.5 -167.5v198h682v-173h-533v-448h491v-172h-491v-500h558zM590 1334q-131 0 -225.5 -141.5t-94.5 -459.5
q0 -317 95 -459.5t229 -142.5q128 0 222 142.5t94 459.5q0 316 -94.5 458.5t-225.5 142.5z" />
    <glyph glyph-name="oe" unicode="&#x153;" horiz-adv-x="1585" 
d="M805 175q-62 -99 -143.5 -149t-182.5 -50q-178 0 -293.5 140t-115.5 404q0 188 53 314.5t146 189t214 62.5q107 0 193 -55t129 -148q55 98 138 150.5t180 52.5q177 0 291 -148.5t111 -454.5h-642q3 -171 78 -265t181 -94q79 0 139 55t86 167l147 -26
q-37 -171 -135.5 -257.5t-240.5 -86.5q-107 0 -194.5 52t-138.5 147zM221 533q0 -193 65 -293q75 -116 195 -116q100 0 176 105.5t76 306.5q0 199 -76 300.5t-184 101.5q-115 0 -183.5 -113t-68.5 -292zM888 631h482q-10 154 -76 230.5t-161 76.5q-96 0 -166 -80t-79 -227z
" />
    <glyph glyph-name="Racute" unicode="&#x154;" horiz-adv-x="1212" 
d="M129 0v1466h533q167 0 246.5 -41t130.5 -136.5t51 -221.5q0 -166 -86.5 -269t-251.5 -131q67 -40 102 -81q71 -84 125 -187l210 -399h-200l-160 305q-93 179 -140.5 241t-92 83.5t-124.5 21.5h-184v-651h-159zM288 819h342q112 0 170 27t92 85t34 135q0 111 -65 174.5
t-193 63.5h-380v-485zM465 1566l109 280h193l-180 -280h-122z" />
    <glyph glyph-name="racute" unicode="&#x155;" horiz-adv-x="559" 
d="M108 0v1062h133v-161q51 112 93.5 148.5t95.5 36.5q74 0 151 -58l-50 -167q-55 39 -107 39q-47 0 -86 -33t-55 -92q-28 -103 -28 -219v-556h-147zM250 1194l109 280h193l-180 -280h-122z" />
    <glyph glyph-name="Rcedilla" unicode="&#x156;" horiz-adv-x="1212" 
d="M129 0v1466h533q167 0 246.5 -41t130.5 -136.5t51 -221.5q0 -166 -86.5 -269t-251.5 -131q67 -40 102 -81q71 -84 125 -187l210 -399h-200l-160 305q-93 179 -140.5 241t-92 83.5t-124.5 21.5h-184v-651h-159zM288 819h342q112 0 170 27t92 85t34 135q0 111 -65 174.5
t-193 63.5h-380v-485zM462 -154l12 74q79 0 121 -6q61 -9 97 -49.5t36 -98.5q0 -78 -62.5 -132.5t-170.5 -54.5q-71 0 -122 12l9 117q53 -4 81 -4q67 0 97.5 21t30.5 54q0 31 -27.5 48.5t-101.5 18.5z" />
    <glyph glyph-name="rcedilla" unicode="&#x157;" horiz-adv-x="559" 
d="M108 0v1062h133v-161q51 112 93.5 148.5t95.5 36.5q74 0 151 -58l-50 -167q-55 39 -107 39q-47 0 -86 -33t-55 -92q-28 -103 -28 -219v-556h-147zM262 -154l12 74q79 0 121 -6q61 -9 97 -49.5t36 -98.5q0 -78 -62.5 -132.5t-170.5 -54.5q-71 0 -122 12l9 117q53 -4 81 -4
q67 0 97.5 21t30.5 54q0 31 -27.5 48.5t-101.5 18.5z" />
    <glyph glyph-name="Rcaron" unicode="&#x158;" horiz-adv-x="1212" 
d="M129 0v1466h533q167 0 246.5 -41t130.5 -136.5t51 -221.5q0 -166 -86.5 -269t-251.5 -131q67 -40 102 -81q71 -84 125 -187l210 -399h-200l-160 305q-93 179 -140.5 241t-92 83.5t-124.5 21.5h-184v-651h-159zM288 819h342q112 0 170 27t92 85t34 135q0 111 -65 174.5
t-193 63.5h-380v-485zM573 1677l91 170h167l-184 -280h-158l-177 280h169z" />
    <glyph glyph-name="rcaron" unicode="&#x159;" horiz-adv-x="559" 
d="M108 0v1062h133v-161q51 112 93.5 148.5t95.5 36.5q74 0 151 -58l-50 -167q-55 39 -107 39q-47 0 -86 -33t-55 -92q-28 -103 -28 -219v-556h-147zM346 1304l91 170h167l-184 -280h-158l-177 280h169z" />
    <glyph glyph-name="Sacute" unicode="&#x15a;" horiz-adv-x="1120" 
d="M76 471l150 16q12 -121 54.5 -188.5t121.5 -108.5t178 -41q142 0 220.5 69.5t78.5 180.5q0 65 -28.5 113.5t-86 79.5t-248.5 87q-170 50 -242 101t-112 129.5t-40 177.5q0 178 115 291t310 113q134 0 234.5 -53t156 -152t59.5 -233l-153 -14q-12 143 -85.5 212t-206.5 69
q-135 0 -206 -60.5t-71 -156.5q0 -89 52 -138t234 -99q178 -49 250 -85q110 -56 166 -147.5t56 -218.5q0 -126 -59 -229.5t-160.5 -157.5t-244.5 -54q-223 0 -355.5 134t-137.5 363zM421 1566l109 280h193l-180 -280h-122z" />
    <glyph glyph-name="sacute" unicode="&#x15b;" horiz-adv-x="840" 
d="M52 317l146 28q13 -112 71 -166.5t154 -54.5t148.5 47.5t52.5 120.5q0 63 -45 98q-31 24 -150 60q-172 53 -230 90t-90 99t-32 141q0 136 87 221t241 85q97 0 170.5 -35t112.5 -94t54 -169l-144 -24q-20 174 -189 174q-96 0 -143 -38.5t-47 -98.5q0 -59 45 -93
q27 -20 160 -64q183 -59 237 -93.5t84 -94t30 -141.5q0 -152 -96.5 -246t-263.5 -94q-313 0 -363 342zM293 1194l109 280h193l-180 -280h-122z" />
    <glyph glyph-name="Scircumflex" unicode="&#x15c;" horiz-adv-x="1120" 
d="M76 471l150 16q12 -121 54.5 -188.5t121.5 -108.5t178 -41q142 0 220.5 69.5t78.5 180.5q0 65 -28.5 113.5t-86 79.5t-248.5 87q-170 50 -242 101t-112 129.5t-40 177.5q0 178 115 291t310 113q134 0 234.5 -53t156 -152t59.5 -233l-153 -14q-12 143 -85.5 212t-206.5 69
q-135 0 -206 -60.5t-71 -156.5q0 -89 52 -138t234 -99q178 -49 250 -85q110 -56 166 -147.5t56 -218.5q0 -126 -59 -229.5t-160.5 -157.5t-244.5 -54q-223 0 -355.5 134t-137.5 363zM563 1737l-92 -170h-169l177 280h158l184 -280h-167z" />
    <glyph glyph-name="scircumflex" unicode="&#x15d;" horiz-adv-x="840" 
d="M52 317l146 28q13 -112 71 -166.5t154 -54.5t148.5 47.5t52.5 120.5q0 63 -45 98q-31 24 -150 60q-172 53 -230 90t-90 99t-32 141q0 136 87 221t241 85q97 0 170.5 -35t112.5 -94t54 -169l-144 -24q-20 174 -189 174q-96 0 -143 -38.5t-47 -98.5q0 -59 45 -93
q27 -20 160 -64q183 -59 237 -93.5t84 -94t30 -141.5q0 -152 -96.5 -246t-263.5 -94q-313 0 -363 342zM432 1364l-92 -170h-169l177 280h158l184 -280h-167z" />
    <glyph glyph-name="Scedilla" unicode="&#x15e;" horiz-adv-x="1120" 
d="M76 471l150 16q12 -121 54.5 -188.5t121.5 -108.5t178 -41q142 0 220.5 69.5t78.5 180.5q0 65 -28.5 113.5t-86 79.5t-248.5 87q-170 50 -242 101t-112 129.5t-40 177.5q0 178 115 291t310 113q134 0 234.5 -53t156 -152t59.5 -233l-153 -14q-12 143 -85.5 212t-206.5 69
q-135 0 -206 -60.5t-71 -156.5q0 -89 52 -138t234 -99q178 -49 250 -85q110 -56 166 -147.5t56 -218.5q0 -126 -59 -229.5t-160.5 -157.5t-244.5 -54q-223 0 -355.5 134t-137.5 363zM440 -154l43 177h110l-28 -107q68 -10 104.5 -51t36.5 -99q0 -78 -62.5 -132.5
t-170.5 -54.5q-71 0 -122 12l9 117q53 -4 81 -4q67 0 97.5 21t30.5 54q0 31 -27.5 48.5t-101.5 18.5z" />
    <glyph glyph-name="scedilla" unicode="&#x15f;" horiz-adv-x="840" 
d="M52 317l146 28q13 -112 71 -166.5t154 -54.5t148.5 47.5t52.5 120.5q0 63 -45 98q-31 24 -150 60q-172 53 -230 90t-90 99t-32 141q0 136 87 221t241 85q97 0 170.5 -35t112.5 -94t54 -169l-144 -24q-20 174 -189 174q-96 0 -143 -38.5t-47 -98.5q0 -59 45 -93
q27 -20 160 -64q183 -59 237 -93.5t84 -94t30 -141.5q0 -152 -96.5 -246t-263.5 -94q-313 0 -363 342zM289 -154l43 177h110l-28 -107q68 -10 104.5 -51t36.5 -99q0 -78 -62.5 -132.5t-170.5 -54.5q-71 0 -122 12l9 117q53 -4 81 -4q67 0 97.5 21t30.5 54q0 31 -27.5 48.5
t-101.5 18.5z" />
    <glyph glyph-name="Scaron" unicode="&#x160;" horiz-adv-x="1120" 
d="M76 471l150 16q12 -121 54.5 -188.5t121.5 -108.5t178 -41q142 0 220.5 69.5t78.5 180.5q0 65 -28.5 113.5t-86 79.5t-248.5 87q-170 50 -242 101t-112 129.5t-40 177.5q0 178 115 291t310 113q134 0 234.5 -53t156 -152t59.5 -233l-153 -14q-12 143 -85.5 212t-206.5 69
q-135 0 -206 -60.5t-71 -156.5q0 -89 52 -138t234 -99q178 -49 250 -85q110 -56 166 -147.5t56 -218.5q0 -126 -59 -229.5t-160.5 -157.5t-244.5 -54q-223 0 -355.5 134t-137.5 363zM542 1677l91 170h167l-184 -280h-158l-177 280h169z" />
    <glyph glyph-name="scaron" unicode="&#x161;" horiz-adv-x="840" 
d="M52 317l146 28q13 -112 71 -166.5t154 -54.5t148.5 47.5t52.5 120.5q0 63 -45 98q-31 24 -150 60q-172 53 -230 90t-90 99t-32 141q0 136 87 221t241 85q97 0 170.5 -35t112.5 -94t54 -169l-144 -24q-20 174 -189 174q-96 0 -143 -38.5t-47 -98.5q0 -59 45 -93
q27 -20 160 -64q183 -59 237 -93.5t84 -94t30 -141.5q0 -152 -96.5 -246t-263.5 -94q-313 0 -363 342zM407 1304l91 170h167l-184 -280h-158l-177 280h169z" />
    <glyph glyph-name="Tcedilla" unicode="&#x162;" horiz-adv-x="1026" 
d="M438 0v1293h-396v173h953v-173h-398v-1293h-159zM445 -305v184h151v-184q0 -161 -123 -227l-37 69q78 43 84 158h-75z" />
    <glyph glyph-name="tcedilla" unicode="&#x163;" horiz-adv-x="467" 
d="M437 161l20 -159q-61 -16 -110 -16q-77 0 -124 30.5t-64.5 83.5t-17.5 211v611h-108v140h108v263l147 108v-371h149v-140h-149v-621q0 -86 13 -111q19 -36 71 -36q25 0 65 7zM205 -305v184h151v-184q0 -161 -123 -227l-37 69q78 43 84 158h-75z" />
    <glyph glyph-name="Tcaron" unicode="&#x164;" horiz-adv-x="1026" 
d="M438 0v1293h-396v173h953v-173h-398v-1293h-159zM523 1677l91 170h167l-184 -280h-158l-177 280h169z" />
    <glyph glyph-name="tcaron" unicode="&#x165;" horiz-adv-x="629" 
d="M437 161l20 -159q-61 -16 -110 -16q-77 0 -124 30.5t-64.5 83.5t-17.5 211v611h-108v140h108v263l147 108v-371h149v-140h-149v-621q0 -86 13 -111q19 -36 71 -36q25 0 65 7zM477 1295v184h151v-184q0 -161 -123 -227l-37 69q78 43 84 158h-75z" />
    <glyph glyph-name="Tbar" unicode="&#x166;" horiz-adv-x="1026" 
d="M438 0v803h-178v148h178v342h-396v173h953v-173h-398v-342h175v-148h-175v-803h-159z" />
    <glyph glyph-name="tbar" unicode="&#x167;" horiz-adv-x="468" 
d="M48 1062h108v263l147 108v-371h149v-140h-149v-171h193v-148h-193v-302q0 -86 13 -111q19 -36 71 -36q25 0 65 7l20 -159q-61 -16 -110 -16q-77 0 -124 30.5t-64.5 83.5t-17.5 211v292h-172v148h172v171h-108v140z" />
    <glyph glyph-name="Utilde" unicode="&#x168;" horiz-adv-x="1212" 
d="M915 1466h160v-847q0 -213 -41.5 -349.5t-151 -215.5t-278.5 -79q-238 0 -356.5 142t-118.5 502v847h159v-846q0 -199 31 -288t101.5 -135.5t171.5 -46.5q170 0 246.5 96t76.5 374v846zM323 1568q-1 107 48 168q48 60 118 60q52 0 139 -54q48 -30 77 -30q27 0 40.5 17.5
t19.5 69.5h107q-3 -115 -48.5 -171.5t-113.5 -56.5q-50 0 -135 56q-55 36 -80 36q-27 0 -45 -23.5t-18 -71.5h-109z" />
    <glyph glyph-name="utilde" unicode="&#x169;" 
d="M679 0v156q-51 -90 -120 -135t-156 -45q-103 0 -176 55.5t-97.5 140.5t-24.5 232v658h147v-589q0 -164 16.5 -219.5t61 -89t101.5 -33.5q106 0 174 87q58 75 58 275v569h148v-1062h-132zM187 1195q-1 107 48 168q48 60 118 60q52 0 139 -54q48 -30 77 -30q27 0 40.5 17.5
t19.5 69.5h107q-3 -115 -48.5 -171.5t-113.5 -56.5q-50 0 -135 56q-55 36 -80 36q-27 0 -45 -23.5t-18 -71.5h-109z" />
    <glyph glyph-name="Umacron" unicode="&#x16a;" horiz-adv-x="1212" 
d="M915 1466h160v-847q0 -213 -41.5 -349.5t-151 -215.5t-278.5 -79q-238 0 -356.5 142t-118.5 502v847h159v-846q0 -199 31 -288t101.5 -135.5t171.5 -46.5q170 0 246.5 96t76.5 374v846zM348 1564v148h512v-148h-512z" />
    <glyph glyph-name="umacron" unicode="&#x16b;" 
d="M679 0v156q-51 -90 -120 -135t-156 -45q-103 0 -176 55.5t-97.5 140.5t-24.5 232v658h147v-589q0 -164 16.5 -219.5t61 -89t101.5 -33.5q106 0 174 87q58 75 58 275v569h148v-1062h-132zM199 1195v148h512v-148h-512z" />
    <glyph glyph-name="Ubreve" unicode="&#x16c;" horiz-adv-x="1212" 
d="M915 1466h160v-847q0 -213 -41.5 -349.5t-151 -215.5t-278.5 -79q-238 0 -356.5 142t-118.5 502v847h159v-846q0 -199 31 -288t101.5 -135.5t171.5 -46.5q170 0 246.5 96t76.5 374v846zM743 1825h101q-13 -129 -78 -194t-165 -65t-164.5 65t-77.5 194h101
q23 -135 137 -135q64 0 99 32t47 103z" />
    <glyph glyph-name="ubreve" unicode="&#x16d;" 
d="M679 0v156q-51 -90 -120 -135t-156 -45q-103 0 -176 55.5t-97.5 140.5t-24.5 232v658h147v-589q0 -164 16.5 -219.5t61 -89t101.5 -33.5q106 0 174 87q58 75 58 275v569h148v-1062h-132zM604 1452h101q-13 -129 -78 -194t-165 -65t-164.5 65t-77.5 194h101
q23 -135 137 -135q64 0 99 32t47 103z" />
    <glyph glyph-name="Uring" unicode="&#x16e;" horiz-adv-x="1212" 
d="M915 1466h160v-847q0 -213 -41.5 -349.5t-151 -215.5t-278.5 -79q-238 0 -356.5 142t-118.5 502v847h159v-846q0 -199 31 -288t101.5 -135.5t171.5 -46.5q170 0 246.5 96t76.5 374v846zM453 1754q0 75 44.5 127t103.5 52q58 0 102.5 -52t44.5 -131q0 -80 -44 -131.5
t-103 -51.5t-103.5 52t-44.5 135zM516 1753q0 -49 26 -80t60 -31t60.5 31t26.5 78t-26 78t-60 31q-35 0 -61 -31t-26 -76z" />
    <glyph glyph-name="uring" unicode="&#x16f;" 
d="M679 0v156q-51 -90 -120 -135t-156 -45q-103 0 -176 55.5t-97.5 140.5t-24.5 232v658h147v-589q0 -164 16.5 -219.5t61 -89t101.5 -33.5q106 0 174 87q58 75 58 275v569h148v-1062h-132zM311 1342q0 75 44.5 127t103.5 52q58 0 102.5 -52t44.5 -131q0 -80 -44 -131.5
t-103 -51.5t-103.5 52t-44.5 135zM374 1341q0 -49 26 -80t60 -31t60.5 31t26.5 78t-26 78t-60 31q-35 0 -61 -31t-26 -76z" />
    <glyph glyph-name="Udblacute" unicode="&#x170;" horiz-adv-x="1212" 
d="M915 1466h160v-847q0 -213 -41.5 -349.5t-151 -215.5t-278.5 -79q-238 0 -356.5 142t-118.5 502v847h159v-846q0 -199 31 -288t101.5 -135.5t171.5 -46.5q170 0 246.5 96t76.5 374v846zM380 1566l99 280h192l-173 -280h-118zM664 1566l104 280h190l-170 -280h-124z" />
    <glyph glyph-name="udblacute" unicode="&#x171;" 
d="M679 0v156q-51 -90 -120 -135t-156 -45q-103 0 -176 55.5t-97.5 140.5t-24.5 232v658h147v-589q0 -164 16.5 -219.5t61 -89t101.5 -33.5q106 0 174 87q58 75 58 275v569h148v-1062h-132zM223 1194l99 280h192l-173 -280h-118zM507 1194l104 280h190l-170 -280h-124z" />
    <glyph glyph-name="Uogonek" unicode="&#x172;" horiz-adv-x="1212" 
d="M915 1466h160v-847q0 -213 -41.5 -349.5t-151 -215.5t-278.5 -79q-238 0 -356.5 142t-118.5 502v847h159v-846q0 -199 31 -288t101.5 -135.5t171.5 -46.5q170 0 246.5 96t76.5 374v846zM571 24h101q-31 -89 -31 -165q0 -69 34 -110t84 -41q62 0 137 46v-119
q-96 -60 -179 -60q-79 0 -129.5 58t-50.5 165q0 85 34 226z" />
    <glyph glyph-name="uogonek" unicode="&#x173;" 
d="M679 0v156q-51 -90 -120 -135t-156 -45q-103 0 -176 55.5t-97.5 140.5t-24.5 232v658h147v-589q0 -164 16.5 -219.5t61 -89t101.5 -33.5q106 0 174 87q58 75 58 275v569h148v-1062h-132zM704 24h101q-31 -89 -31 -165q0 -69 34 -110t84 -41q62 0 137 46v-119
q-96 -60 -179 -60q-79 0 -129.5 58t-50.5 165q0 85 34 226z" />
    <glyph glyph-name="Wcircumflex" unicode="&#x174;" horiz-adv-x="1585" 
d="M342 0l-319 1466h163l183 -961q29 -148 51 -300l54 271l229 990h192l172 -742q63 -271 94 -519q23 143 59 319l189 942h160l-330 -1466h-153l-254 1117l-38 172q-17 -96 -35 -172l-255 -1117h-162zM800 1737l-92 -170h-169l177 280h158l184 -280h-167z" />
    <glyph glyph-name="wcircumflex" unicode="&#x175;" horiz-adv-x="1212" 
d="M268 0l-266 1062h153l138 -613l51 -228l46 219l138 622h152l130 -616l44 -203l50 205l149 614h144l-273 -1062h-153l-139 636l-33 181l-176 -817h-155zM623 1364l-92 -170h-169l177 280h158l184 -280h-167z" />
    <glyph glyph-name="Ycircumflex" unicode="&#x176;" horiz-adv-x="1120" 
d="M468 0v621l-463 845h194l236 -442q70 -131 123 -248q53 115 131 259l233 431h185l-480 -845v-621h-159zM547 1737l-92 -170h-169l177 280h158l184 -280h-167z" />
    <glyph glyph-name="ycircumflex" unicode="&#x177;" horiz-adv-x="840" 
d="M104 -409l-16 169q49 -16 84 -16q47 0 77.5 19t50.5 59q7 14 58 176l-331 1064h159l182 -615q34 -115 63 -246q25 124 60 242l186 619h148l-331 -1080q-65 -210 -102.5 -280.5t-85 -101.5t-107.5 -31q-42 0 -95 22zM442 1364l-92 -170h-169l177 280h158l184 -280h-167z
" />
    <glyph glyph-name="Ydieresis" unicode="&#x178;" horiz-adv-x="1120" 
d="M468 0v621l-463 845h194l236 -442q70 -131 123 -248q53 115 131 259l233 431h185l-480 -845v-621h-159zM319 1642v205h154v-205h-154zM625 1642v205h154v-205h-154z" />
    <glyph glyph-name="Zacute" unicode="&#x179;" horiz-adv-x="1026" 
d="M36 0v180l616 939q64 98 125 174h-672v173h861v-173l-674 -1017l-73 -103h767v-173h-950zM438 1566l109 280h193l-180 -280h-122z" />
    <glyph glyph-name="zacute" unicode="&#x17a;" horiz-adv-x="840" 
d="M33 0v146l555 776q-95 -6 -167 -6h-355v146h712v-119l-472 -674l-91 -123q99 9 186 9h403v-155h-771zM282 1194l109 280h193l-180 -280h-122z" />
    <glyph glyph-name="Zdot" unicode="&#x17b;" horiz-adv-x="1026" 
d="M36 0v180l616 939q64 98 125 174h-672v173h861v-173l-674 -1017l-73 -103h767v-173h-950zM447 1565v224h183v-224h-183z" />
    <glyph glyph-name="zdot" unicode="&#x17c;" horiz-adv-x="840" 
d="M33 0v146l555 776q-95 -6 -167 -6h-355v146h712v-119l-472 -674l-91 -123q99 9 186 9h403v-155h-771zM315 1194v224h183v-224h-183z" />
    <glyph glyph-name="Zcaron" unicode="&#x17d;" horiz-adv-x="1026" 
d="M36 0v180l616 939q64 98 125 174h-672v173h861v-173l-674 -1017l-73 -103h767v-173h-950zM540 1677l91 170h167l-184 -280h-158l-177 280h169z" />
    <glyph glyph-name="zcaron" unicode="&#x17e;" horiz-adv-x="840" 
d="M33 0v146l555 776q-95 -6 -167 -6h-355v146h712v-119l-472 -674l-91 -123q99 9 186 9h403v-155h-771zM411 1304l91 170h167l-184 -280h-158l-177 280h169z" />
    <glyph glyph-name="longs" unicode="&#x17f;" horiz-adv-x="373" 
d="M112 0v1175q0 187 66.5 251.5t177.5 64.5q61 0 134 -18l-22 -157q-41 10 -84 10q-68 0 -97 -35.5t-29 -130.5v-1160h-146z" />
    <glyph glyph-name="florin" unicode="&#x192;" 
d="M35 -405l28 155q83 -22 125 -22q44 0 68 28t37 124l145 1042h-164l19 140h165l20 133q20 135 47.5 188.5t74 81t111.5 27.5t176 -38l-29 -153q-84 24 -125 24q-47 0 -70 -28t-38 -132l-16 -103h167l-20 -140h-168l-156 -1092q-22 -150 -72.5 -205.5t-140.5 -55.5
q-78 0 -184 26z" />
    <glyph glyph-name="Aringacute" unicode="&#x1fa;" horiz-adv-x="1120" 
d="M-2 0l462 1466h171l492 -1466h-182l-140 444h-502l-132 -444h-169zM345 602h407l-125 406q-58 187 -85 304q-23 -141 -65 -280zM414 1709q0 75 44.5 127t103.5 52q58 0 102.5 -52t44.5 -131q0 -80 -44 -131.5t-103 -51.5t-103.5 52t-44.5 135zM477 1708q0 -49 26 -80
t60 -31t60.5 31t26.5 78t-26 78t-60 31q-35 0 -61 -31t-26 -76zM478 1944l109 280h193l-180 -280h-122z" />
    <glyph glyph-name="aringacute" unicode="&#x1fb;" 
d="M676 131q-74 -77 -154 -116t-166 -39q-136 0 -217 82t-81 221q0 92 38 163t104 111t200 59q180 26 264 62l1 46q0 109 -39 153q-55 64 -169 64q-103 0 -154 -42.5t-75 -159.5l-145 24q31 171 125.5 249t270.5 78q137 0 215 -51.5t98.5 -127.5t20.5 -222v-240
q0 -252 9.5 -317.5t37.5 -127.5h-154q-23 55 -30 131zM664 533q-81 -40 -241 -68q-93 -16 -130 -36.5t-57.5 -58t-20.5 -86.5q0 -76 47 -121.5t130 -45.5q79 0 143.5 41t96.5 109.5t32 199.5v66zM305 1382q0 75 44.5 127t103.5 52q58 0 102.5 -52t44.5 -131
q0 -80 -44 -131.5t-103 -51.5t-103.5 52t-44.5 135zM368 1381q0 -49 26 -80t60 -31t60.5 31t26.5 78t-26 78t-60 31q-35 0 -61 -31t-26 -76zM382 1642l109 280h193l-180 -280h-122z" />
    <glyph glyph-name="AEacute" unicode="&#x1fc;" horiz-adv-x="1679" 
d="M1 0l578 1466h987v-173h-605v-451h562v-172h-562v-497h627v-173h-786v423h-465l-164 -423h-172zM405 595h397v698h-120zM902 1567l109 280h193l-180 -280h-122z" />
    <glyph glyph-name="aeacute" unicode="&#x1fd;" horiz-adv-x="1493" 
d="M1419 325q-42 -173 -141.5 -261t-242.5 -88q-101 0 -180 47t-144 151q-164 -198 -362 -198q-133 0 -214.5 85t-81.5 218q0 90 41 163.5t110.5 112.5t233.5 65q123 20 207 49l1 41q0 129 -44.5 178t-148.5 49q-109 0 -159.5 -42t-73.5 -162l-143 21q34 178 125.5 255
t254.5 77q121 0 192 -36t106 -107q108 143 279 143q112 0 196 -59t138 -188t54 -294l-1 -60h-629q1 -148 29.5 -213t90 -106.5t132.5 -41.5q80 0 139.5 58t81.5 167zM792 633h479q-12 160 -76 232t-159 72q-102 0 -169 -78t-75 -226zM647 533q-65 -35 -263 -73
q-90 -17 -125 -50q-50 -48 -50 -124q0 -75 45.5 -121.5t123.5 -46.5q95 0 166 57t92 146q12 50 11 212zM552 1194l109 280h193l-180 -280h-122z" />
    <glyph glyph-name="Oslashacute" unicode="&#x1fe;" horiz-adv-x="1307" 
d="M1029 1332l137 188l82 -84l-145 -198q74 -134 101.5 -244t27.5 -260q0 -240 -78 -411.5t-209.5 -259.5t-289.5 -88q-102 0 -185.5 33.5t-178.5 120.5l-138 -188l-81 84l144 197q-81 153 -107.5 257t-26.5 248q0 243 78.5 417t207.5 260.5t292 86.5q103 0 187.5 -34.5
t181.5 -124.5zM930 1197q-77 76 -135.5 102t-134.5 26q-179 0 -296.5 -149.5t-117.5 -445.5q0 -111 15 -188.5t58 -179.5zM998 1094l-610 -832q65 -66 128.5 -93.5t138.5 -27.5q175 0 293.5 151t118.5 437q0 206 -69 365zM521 1567l109 280h193l-180 -280h-122z" />
    <glyph glyph-name="oslashacute" unicode="&#x1ff;" horiz-adv-x="1026" 
d="M761 999l81 128l79 -70l-88 -138q53 -89 72 -163q24 -97 24 -225q0 -277 -116 -416t-299 -139q-125 0 -225 80l-86 -135l-77 71l89 141q-53 74 -72 148q-30 111 -30 235q0 286 115 428t290 142q63 0 119 -19.5t124 -67.5zM678 867q-75 70 -157 70q-106 0 -181.5 -101
t-75.5 -301q0 -153 43 -255zM739 770l-367 -583q63 -63 144 -63q112 0 187 100.5t75 309.5q0 73 -8 122t-31 114zM393 1194l109 280h193l-180 -280h-122z" />
    <glyph glyph-name="circumflex" unicode="&#x2c6;" horiz-adv-x="559" 
d="M281 1364l-92 -170h-169l177 280h158l184 -280h-167z" />
    <glyph glyph-name="caron" unicode="&#x2c7;" horiz-adv-x="559" 
d="M294 1304l91 170h167l-184 -280h-158l-177 280h169z" />
    <glyph glyph-name="macron" unicode="&#x2c9;" horiz-adv-x="559" 
d="M24 1227v148h512v-148h-512z" />
    <glyph glyph-name="breve" unicode="&#x2d8;" horiz-adv-x="559" 
d="M421 1464h101q-13 -129 -78 -194t-165 -65t-164.5 65t-77.5 194h101q23 -135 137 -135q64 0 99 32t47 103z" />
    <glyph glyph-name="dotaccent" unicode="&#x2d9;" horiz-adv-x="559" 
d="M188 1194v224h183v-224h-183z" />
    <glyph glyph-name="ring" unicode="&#x2da;" horiz-adv-x="559" 
d="M133 1338q0 75 44.5 127t103.5 52q58 0 102.5 -52t44.5 -131q0 -80 -44 -131.5t-103 -51.5t-103.5 52t-44.5 135zM196 1337q0 -49 26 -80t60 -31t60.5 31t26.5 78t-26 78t-60 31q-35 0 -61 -31t-26 -76z" />
    <glyph glyph-name="ogonek" unicode="&#x2db;" horiz-adv-x="559" 
d="M184 24h101q-31 -89 -31 -165q0 -69 34 -110t84 -41q62 0 137 46v-119q-96 -60 -179 -60q-79 0 -129.5 58t-50.5 165q0 85 34 226z" />
    <glyph glyph-name="tilde" unicode="&#x2dc;" horiz-adv-x="559" 
d="M6 1219q-1 107 48 168q48 60 118 60q52 0 139 -54q48 -30 77 -30q27 0 40.5 17.5t19.5 69.5h107q-3 -115 -48.5 -171.5t-113.5 -56.5q-50 0 -135 56q-55 36 -80 36q-27 0 -45 -23.5t-18 -71.5h-109z" />
    <glyph glyph-name="hungarumlaut" unicode="&#x2dd;" horiz-adv-x="559" 
d="M48 1194l99 280h192l-173 -280h-118zM332 1194l104 280h190l-170 -280h-124z" />
    <glyph glyph-name="tonos" unicode="&#x384;" horiz-adv-x="559" 
d="M182 1194l109 280h193l-180 -280h-122z" />
    <glyph glyph-name="dieresistonos" unicode="&#x385;" horiz-adv-x="559" 
d="M176 1198l109 277h151l-164 -277h-96zM436 1198v191h142v-191h-142zM-18 1198v191h141v-191h-141z" />
    <glyph glyph-name="Alphatonos" unicode="&#x386;" horiz-adv-x="1120" 
d="M-2 0l462 1466h171l492 -1466h-182l-140 444h-502l-132 -444h-169zM345 602h407l-125 406q-58 187 -85 304q-23 -141 -65 -280zM14 1194l109 280h193l-180 -280h-122z" />
    <glyph glyph-name="anoteleia" unicode="&#x387;" horiz-adv-x="682" 
d="M348 637v205h168v-205h-168z" />
    <glyph glyph-name="Epsilontonos" unicode="&#x388;" horiz-adv-x="1365" 
d="M377 0v1466h869v-173h-710v-449h665v-172h-665v-499h738v-173h-897zM30 1194l109 280h193l-180 -280h-122z" />
    <glyph glyph-name="Etatonos" unicode="&#x389;" horiz-adv-x="1469" 
d="M397 0v1466h159v-602h625v602h159v-1466h-159v691h-625v-691h-159zM34 1194l109 280h193l-180 -280h-122z" />
    <glyph glyph-name="Iotatonos" unicode="&#x38a;" horiz-adv-x="711" 
d="M392 0v1466h159v-1466h-159zM34 1194l109 280h193l-180 -280h-122z" />
    <glyph glyph-name="Omicrontonos" unicode="&#x38c;" horiz-adv-x="1437" 
d="M201 714q0 375 165 576.5t411 201.5q159 0 290 -90t207.5 -261.5t76.5 -408.5q0 -326 -148 -531q-163 -226 -427 -226q-266 0 -428 232q-147 210 -147 507zM365 711q0 -271 119.5 -420.5t290.5 -149.5q175 0 293.5 151t118.5 444q0 189 -61 338q-47 114 -141.5 182.5
t-206.5 68.5q-180 0 -296.5 -150t-116.5 -464zM30 1194l109 280h193l-180 -280h-122z" />
    <glyph glyph-name="Upsilontonos" unicode="&#x38e;" horiz-adv-x="1480" 
d="M836 0v621l-463 845h194l236 -442q70 -131 123 -248q53 115 131 259l233 431h185l-480 -845v-621h-159zM34 1194l109 280h193l-180 -280h-122z" />
    <glyph glyph-name="Omegatonos" unicode="&#x38f;" horiz-adv-x="1392" 
d="M204 0v172h262q-248 254 -248 621q0 310 148.5 504t388.5 194q252 0 393.5 -204.5t141.5 -493.5q0 -365 -250 -621h262v-172h-469v162q293 167 293 600q0 250 -105 406.5t-266 156.5q-164 0 -268.5 -154t-104.5 -399q0 -438 289 -610v-162h-467zM26 1194l109 280h193
l-180 -280h-122z" />
    <glyph glyph-name="iotadieresistonos" unicode="&#x390;" horiz-adv-x="467" 
d="M166 0v1062h147v-1062h-147zM128 1198l109 277h151l-164 -277h-96zM388 1198v191h142v-191h-142zM-66 1198v191h141v-191h-141z" />
    <glyph glyph-name="Alpha" unicode="&#x391;" horiz-adv-x="1120" 
d="M-2 0l462 1466h171l492 -1466h-182l-140 444h-502l-132 -444h-169zM345 602h407l-125 406q-58 187 -85 304q-23 -141 -65 -280z" />
    <glyph glyph-name="Beta" unicode="&#x392;" horiz-adv-x="1120" 
d="M124 0v1466h451q137 0 217 -42.5t131 -132.5t51 -199q0 -101 -44 -182t-124 -130q105 -38 165.5 -129.5t60.5 -225.5q0 -133 -54.5 -233.5t-145.5 -146t-250 -45.5h-458zM283 850h260q102 0 145 14q62 21 95.5 70.5t33.5 134.5q0 79 -30.5 131.5t-81 72.5t-181.5 20h-241
v-443zM283 173h299q99 0 146 18q68 26 103.5 85.5t35.5 149.5q0 83 -34 140.5t-91.5 84t-180.5 26.5h-278v-504z" />
    <glyph glyph-name="Gamma" unicode="&#x393;" horiz-adv-x="897" 
d="M132 1467h729v-174h-570v-1293h-159v1467z" />
    <glyph glyph-name="Delta" unicode="&#x394;" horiz-adv-x="1145" 
d="M1135 0h-1125l463 1466h170zM489 1032l-258 -860h668l-260 836q-54 177 -84 305q-21 -133 -66 -281z" />
    <glyph glyph-name="Epsilon" unicode="&#x395;" horiz-adv-x="1120" 
d="M133 0v1466h869v-173h-710v-449h665v-172h-665v-499h738v-173h-897z" />
    <glyph glyph-name="Zeta" unicode="&#x396;" horiz-adv-x="1026" 
d="M36 0v180l616 939q64 98 125 174h-672v173h861v-173l-674 -1017l-73 -103h767v-173h-950z" />
    <glyph glyph-name="Eta" unicode="&#x397;" horiz-adv-x="1212" 
d="M129 0v1466h159v-602h625v602h159v-1466h-159v691h-625v-691h-159z" />
    <glyph glyph-name="Theta" unicode="&#x398;" horiz-adv-x="1229" 
d="M622 1503q147 0 261 -78t189.5 -249t75.5 -445q0 -205 -54 -384.5t-176.5 -283t-299.5 -103.5q-259 0 -397.5 210.5t-138.5 563.5q0 337 133.5 553t406.5 216zM622 1345q-181 0 -276 -156.5t-95 -451.5q0 -305 94.5 -462t266.5 -157q368 0 368 627q0 283 -95 441.5
t-263 158.5zM391 829h449v-167h-449v167z" />
    <glyph glyph-name="Iota" unicode="&#x399;" horiz-adv-x="467" 
d="M160 0v1466h159v-1466h-159z" />
    <glyph glyph-name="Kappa" unicode="&#x39a;" horiz-adv-x="1120" 
d="M124 0v1466h159v-727l597 727h216l-505 -594l527 -872h-210l-428 742l-197 -234v-508h-159z" />
    <glyph glyph-name="Lambda" unicode="&#x39b;" horiz-adv-x="1120" 
d="M481 1466h162l467 -1466h-172l-313 1065q-35 112 -64 240q-30 -130 -63 -240l-326 -1065h-162z" />
    <glyph glyph-name="Mu" unicode="&#x39c;" horiz-adv-x="1399" 
d="M125 0v1466h239l285 -1038l57 -217q21 81 64 235l288 1020h214v-1466h-153v1227l-350 -1227h-143l-348 1248v-1248h-153z" />
    <glyph glyph-name="Nu" unicode="&#x39d;" horiz-adv-x="1212" 
d="M125 0v1466h163l632 -1151v1151h152v-1466h-163l-631 1152v-1152h-153z" />
    <glyph glyph-name="Xi" unicode="&#x39e;" horiz-adv-x="1092" 
d="M113 1294v172h868v-172h-868zM188 647v172h715v-172h-715zM90 0v172h914v-172h-914z" />
    <glyph glyph-name="Omicron" unicode="&#x39f;" horiz-adv-x="1307" 
d="M85 714q0 375 165 576.5t411 201.5q159 0 290 -90t207.5 -261.5t76.5 -408.5q0 -326 -148 -531q-163 -226 -427 -226q-266 0 -428 232q-147 210 -147 507zM249 711q0 -271 119.5 -420.5t290.5 -149.5q175 0 293.5 151t118.5 444q0 189 -61 338q-47 114 -141.5 182.5
t-206.5 68.5q-180 0 -296.5 -150t-116.5 -464z" />
    <glyph glyph-name="Pi" unicode="&#x3a0;" horiz-adv-x="1212" 
d="M295 0h-160v1466h944v-1466h-159v1294h-625v-1294z" />
    <glyph glyph-name="Rho" unicode="&#x3a1;" horiz-adv-x="1120" 
d="M130 0v1466h453q160 0 236 -28q104 -38 166 -141t62 -253q0 -198 -101 -323t-349 -125h-308v-596h-159zM289 769h311q147 0 215 66.5t68 200.5q0 87 -33.5 149t-81 85t-171.5 23h-308v-524z" />
    <glyph glyph-name="Sigma" unicode="&#x3a3;" horiz-adv-x="1012" 
d="M80 1466h817v-172h-645l410 -532l-410 -590h680v-172h-852v201l393 561l-393 510v194z" />
    <glyph glyph-name="Tau" unicode="&#x3a4;" horiz-adv-x="1026" 
d="M438 0v1293h-396v173h953v-173h-398v-1293h-159z" />
    <glyph glyph-name="Upsilon" unicode="&#x3a5;" horiz-adv-x="1120" 
d="M468 0v621l-463 845h194l236 -442q70 -131 123 -248q53 115 131 259l233 431h185l-480 -845v-621h-159z" />
    <glyph glyph-name="Phi" unicode="&#x3a6;" horiz-adv-x="1357" 
d="M601 1503h159v-194q527 -23 527 -585q0 -565 -527 -587v-312h-159v312q-530 23 -530 587q0 563 530 585v194zM601 1155q-358 -4 -358 -432q0 -409 358 -434v866zM760 1155v-866q183 4 269.5 117.5t86.5 317.5q0 423 -356 431z" />
    <glyph glyph-name="Chi" unicode="&#x3a7;" horiz-adv-x="1120" 
d="M8 0l465 764l-410 702h189l219 -376q67 -116 96 -180q39 78 95 167l243 389h172l-422 -691l455 -775h-196l-303 523q-25 44 -52 98q-41 -80 -58 -110l-302 -511h-191z" />
    <glyph glyph-name="Psi" unicode="&#x3a8;" horiz-adv-x="1352" 
d="M78 1016v450h160v-413q0 -205 100 -318.5t258 -113.5v845h160v-845q356 0 356 452v393h160v-434q0 -275 -132 -427t-384 -152v-453h-160v453q-234 0 -376 155.5t-142 407.5z" />
    <glyph glyph-name="Ohm" unicode="&#x3a9;" horiz-adv-x="1274" 
d="M88 0v172h262q-248 254 -248 621q0 310 148.5 504t388.5 194q252 0 393.5 -204.5t141.5 -493.5q0 -365 -250 -621h262v-172h-469v162q293 167 293 600q0 250 -105 406.5t-266 156.5q-164 0 -268.5 -154t-104.5 -399q0 -438 289 -610v-162h-467z" />
    <glyph glyph-name="Iotadieresis" unicode="&#x3aa;" horiz-adv-x="467" 
d="M160 0v1466h159v-1466h-159zM2 1642v205h154v-205h-154zM308 1642v205h154v-205h-154z" />
    <glyph glyph-name="Upsilondieresis" unicode="&#x3ab;" horiz-adv-x="1120" 
d="M468 0v621l-463 845h194l236 -442q70 -131 123 -248q53 115 131 259l233 431h185l-480 -845v-621h-159zM319 1642v205h154v-205h-154zM625 1642v205h154v-205h-154z" />
    <glyph glyph-name="alphatonos" unicode="&#x3ac;" horiz-adv-x="1013" 
d="M751 192q-112 -220 -305 -220q-124 0 -215.5 75t-133 201t-41.5 262q0 260 106.5 415t288.5 155q201 0 296 -197l36 180h160q-58 -258 -58 -514q0 -301 69 -549h-165q-26 112 -38 192zM479 942q-126 0 -188.5 -113.5t-62.5 -297.5q0 -197 65.5 -309t185.5 -112
q252 0 252 422q0 203 -67.5 306.5t-184.5 103.5zM364 1194l109 280h193l-180 -280h-122z" />
    <glyph glyph-name="epsilontonos" unicode="&#x3ad;" horiz-adv-x="729" 
d="M420 618h31v-145h-27q-221 0 -221 -176q0 -75 45.5 -123.5t111.5 -48.5q111 0 213 131l107 -111q-72 -89 -147 -128.5t-187 -39.5q-134 0 -214.5 89t-80.5 223q0 186 144 260q-121 80 -121 235q0 128 77.5 214.5t210.5 86.5q168 0 287 -143l-106 -104q-102 92 -189 92
q-64 0 -101.5 -42.5t-37.5 -103.5q0 -166 205 -166zM245 1194l109 280h193l-180 -280h-122z" />
    <glyph glyph-name="etatonos" unicode="&#x3ae;" 
d="M248 1061v-150q97 174 276 174q108 0 183 -59t95.5 -142t20.5 -231v-1061h-147v1053q0 184 -57.5 234.5t-126.5 50.5q-83 0 -156.5 -68t-73.5 -282v-580h-147v1061h133zM358 1194l109 280h193l-180 -280h-122z" />
    <glyph glyph-name="iotatonos" unicode="&#x3af;" horiz-adv-x="467" 
d="M166 0v1062h147v-1062h-147zM129 1194l109 280h193l-180 -280h-122z" />
    <glyph glyph-name="upsilondieresistonos" unicode="&#x3b0;" 
d="M113 414v647h147v-655q0 -126 58 -203.5t147 -77.5q92 0 150.5 79.5t58.5 219.5v637h147v-651q0 -199 -97 -316t-261 -117q-163 0 -256.5 115t-93.5 322zM367 1198l109 277h151l-164 -277h-96zM627 1198v191h142v-191h-142zM173 1198v191h141v-191h-141z" />
    <glyph glyph-name="alpha" unicode="&#x3b1;" horiz-adv-x="1013" 
d="M751 192q-112 -220 -305 -220q-124 0 -215.5 75t-133 201t-41.5 262q0 260 106.5 415t288.5 155q201 0 296 -197l36 180h160q-58 -258 -58 -514q0 -301 69 -549h-165q-26 112 -38 192zM479 942q-126 0 -188.5 -113.5t-62.5 -297.5q0 -197 65.5 -309t185.5 -112
q252 0 252 422q0 203 -67.5 306.5t-184.5 103.5z" />
    <glyph glyph-name="beta" unicode="&#x3b2;" horiz-adv-x="944" 
d="M588 805q144 -22 221.5 -124.5t77.5 -260.5q0 -190 -97 -317.5t-249 -127.5q-189 0 -283 160v-543h-147v1440q0 218 100.5 338.5t267.5 120.5q149 0 242.5 -107.5t93.5 -253.5q0 -122 -60 -210.5t-167 -114.5zM428 733h-41v131q287 0 287 248q0 100 -58 165.5t-145 65.5
q-66 0 -120 -39.5t-73.5 -97.5t-19.5 -207v-452q0 -148 20 -230t85.5 -145t146.5 -63q98 0 161.5 82.5t63.5 218.5q0 146 -81 234.5t-226 88.5z" />
    <glyph glyph-name="gamma" unicode="&#x3b3;" horiz-adv-x="840" 
d="M346 0l-326 1061h156l244 -836l248 836h151l-325 -1061v-408h-148v408z" />
    <glyph glyph-name="delta" unicode="&#x3b4;" 
d="M143 1337v129h658v-145h-461q76 -92 210 -208.5t192.5 -182t96.5 -163t38 -239.5q0 -257 -110.5 -404t-293.5 -147q-192 0 -303 146.5t-111 392.5q0 235 99 379.5t266 153.5q-96 85 -281 288zM467 909q-112 0 -184 -108.5t-72 -286.5q0 -174 74.5 -281.5t185.5 -107.5
q113 0 183.5 104.5t70.5 286.5q0 183 -71.5 288t-186.5 105z" />
    <glyph glyph-name="epsilon" unicode="&#x3b5;" horiz-adv-x="729" 
d="M420 618h31v-145h-27q-221 0 -221 -176q0 -75 45.5 -123.5t111.5 -48.5q111 0 213 131l107 -111q-72 -89 -147 -128.5t-187 -39.5q-134 0 -214.5 89t-80.5 223q0 186 144 260q-121 80 -121 235q0 128 77.5 214.5t210.5 86.5q168 0 287 -143l-106 -104q-102 92 -189 92
q-64 0 -101.5 -42.5t-37.5 -103.5q0 -166 205 -166z" />
    <glyph glyph-name="zeta" unicode="&#x3b6;" horiz-adv-x="737" 
d="M193 1321v145h534v-123q-243 -192 -380.5 -450.5t-137.5 -480.5q0 -105 32 -157.5t79 -68.5t131 -25t136 -33t88 -87t36 -141q0 -121 -78.5 -225.5t-241.5 -104.5l39 166q139 23 139 139q0 54 -33 87.5t-153.5 39.5t-185.5 51t-102.5 140t-37.5 227q0 221 129.5 470.5
t345.5 430.5h-339z" />
    <glyph glyph-name="eta" unicode="&#x3b7;" 
d="M248 1061v-150q97 174 276 174q108 0 183 -59t95.5 -142t20.5 -231v-1061h-147v1053q0 184 -57.5 234.5t-126.5 50.5q-83 0 -156.5 -68t-73.5 -282v-580h-147v1061h133z" />
    <glyph glyph-name="theta" unicode="&#x3b8;" 
d="M467 -23q-391 0 -391 756q0 758 391 758q393 0 393 -758q0 -756 -393 -756zM227 807h480q-8 277 -64.5 406.5t-175.5 129.5q-118 0 -175 -130.5t-65 -405.5zM707 662h-480q10 -331 79.5 -434t160.5 -103q227 0 240 537z" />
    <glyph glyph-name="iota" unicode="&#x3b9;" horiz-adv-x="467" 
d="M166 0v1062h147v-1062h-147z" />
    <glyph glyph-name="kappa" unicode="&#x3ba;" horiz-adv-x="836" 
d="M109 0v1061h147v-416l352 416h197l-391 -440l424 -621h-189l-340 500l-53 -62v-438h-147z" />
    <glyph glyph-name="lambda" unicode="&#x3bb;" horiz-adv-x="840" 
d="M664 0l-244 795l-244 -795h-156l324 1042l-129 424h156l448 -1466h-155z" />
    <glyph glyph-name="mu" unicode="&#x3bc;" 
d="M686 0v125q-75 -152 -221 -152q-122 0 -205 133v-514h-147v1469h147v-449q0 -98 8 -210t33 -158t66.5 -75.5t91.5 -29.5q64 0 117 41t75.5 114t22.5 247v520h147v-1061h-135z" />
    <glyph glyph-name="nu" unicode="&#x3bd;" horiz-adv-x="840" 
d="M352 0l-331 1062h156l187 -636q32 -108 56 -214q19 84 54 202l194 648h152l-330 -1062h-138z" />
    <glyph glyph-name="xi" unicode="&#x3be;" horiz-adv-x="643" 
d="M467 983h141v-149q-193 0 -295 -125t-102 -283q0 -197 164 -244q202 -58 266 -107.5t64 -187.5q0 -124 -86 -220.5t-244 -96.5l39 166q149 18 149 137q0 63 -39 87t-129 44q-210 46 -273 159.5t-63 256.5q0 146 69.5 267t197.5 192q-110 22 -167 100t-57 182
q0 144 101 236t252 92h161v-146h-143q-110 0 -169.5 -50t-59.5 -134q0 -176 223 -176z" />
    <glyph glyph-name="omicron" unicode="&#x3bf;" 
d="M53 531q0 275 115.5 415t292.5 140q174 0 291 -140t117 -404q0 -286 -115 -426t-293 -140q-175 0 -291.5 140.5t-116.5 414.5zM204 531q0 -206 75 -306.5t186 -100.5q104 0 178.5 101.5t74.5 305.5q0 205 -75 305.5t-186 100.5q-105 0 -179 -101t-74 -305z" />
    <glyph glyph-name="pi" unicode="&#x3c0;" horiz-adv-x="1139" 
d="M766 915h-363v-915h-147v915h-229v146h1085v-146h-199v-915h-147v915z" />
    <glyph glyph-name="rho" unicode="&#x3c1;" horiz-adv-x="958" 
d="M258 -408h-147v934q0 273 99.5 416t285.5 143q179 0 291 -151t112 -402q0 -252 -106.5 -403.5t-278.5 -151.5q-161 0 -256 123v-508zM748 522q0 199 -68 307.5t-182 108.5q-238 0 -238 -420q0 -189 62 -291t170 -102q120 0 188 104t68 293z" />
    <glyph glyph-name="sigma1" unicode="&#x3c2;" horiz-adv-x="793" 
d="M299 -418l37 166q46 -12 82 -12q75 0 123.5 39.5t48.5 101.5q0 38 -25 67t-128 61q-376 116 -376 484q0 251 146 423.5t360 172.5q123 0 215 -32l-37 -152q-95 37 -182 37q-158 0 -259 -120.5t-101 -311.5q0 -243 273 -338q165 -58 215 -125.5t50 -153.5
q0 -139 -87.5 -229t-229.5 -90q-65 0 -125 12z" />
    <glyph glyph-name="sigma" unicode="&#x3c3;" horiz-adv-x="1117" 
d="M806 912q117 -136 117 -383q0 -254 -114 -405.5t-317 -151.5q-209 0 -322.5 153t-113.5 403q0 260 117 406t295 146q35 0 129 -8q36 -4 108 -8h380v-152h-279zM496 955q-271 0 -271 -442q0 -187 68.5 -296t193.5 -109q133 0 199.5 111t66.5 318q0 191 -65.5 304.5
t-191.5 113.5z" />
    <glyph glyph-name="tau" unicode="&#x3c4;" horiz-adv-x="641" 
d="M614 915h-211v-915h-147v915h-229v146h587v-146z" />
    <glyph glyph-name="upsilon" unicode="&#x3c5;" 
d="M113 414v647h147v-655q0 -126 58 -203.5t147 -77.5q92 0 150.5 79.5t58.5 219.5v637h147v-651q0 -199 -97 -316t-261 -117q-163 0 -256.5 115t-93.5 322z" />
    <glyph glyph-name="phi" unicode="&#x3c6;" horiz-adv-x="1090" 
d="M477 -408v383q-187 20 -302.5 185t-115.5 397q0 228 102.5 378.5t248.5 147.5l-29 -155q-170 -70 -170 -363q0 -165 69 -280.5t197 -151.5v660q0 184 47.5 238t149.5 54q178 0 267 -160t89 -341q0 -225 -105 -389t-300 -220v-383h-148zM625 764v-625q115 27 184.5 151.5
t69.5 303.5q0 160 -50.5 252t-119.5 92q-43 0 -63.5 -37t-20.5 -137z" />
    <glyph glyph-name="chi" unicode="&#x3c7;" horiz-adv-x="877" 
d="M348 332l-311 729h162l239 -588l248 588h162l-320 -723l336 -746h-168l-258 613l-262 -613h-164z" />
    <glyph glyph-name="psi" unicode="&#x3c8;" horiz-adv-x="1223" 
d="M113 520v541h147v-549q0 -213 69 -295.5t208 -89.5v934h147v-934q140 8 209.5 92.5t69.5 294.5v547h147v-541q0 -189 -38.5 -300.5t-140.5 -175t-247 -69.5v-383h-147v383q-148 6 -250 73t-138 175.5t-36 296.5z" />
    <glyph glyph-name="omega" unicode="&#x3c9;" horiz-adv-x="1286" 
d="M571 463v332h148v-332q0 -167 48 -256.5t128 -89.5q76 0 129 103.5t53 266.5q0 251 -121 574h142q131 -277 131 -545q0 -255 -87.5 -398t-232.5 -143q-185 0 -266 240q-83 -240 -264 -240q-145 0 -232.5 143t-87.5 398q0 269 129 545h144q-121 -329 -121 -574
q0 -162 53 -266t129 -104q81 0 129.5 89.5t48.5 256.5z" />
    <glyph glyph-name="iotadieresis" unicode="&#x3ca;" horiz-adv-x="467" 
d="M166 0v1062h147v-1062h-147zM4 1270v205h154v-205h-154zM310 1270v205h154v-205h-154z" />
    <glyph glyph-name="upsilondieresis" unicode="&#x3cb;" 
d="M113 414v647h147v-655q0 -126 58 -203.5t147 -77.5q92 0 150.5 79.5t58.5 219.5v637h147v-651q0 -199 -97 -316t-261 -117q-163 0 -256.5 115t-93.5 322zM235 1270v205h154v-205h-154zM541 1270v205h154v-205h-154z" />
    <glyph glyph-name="omicrontonos" unicode="&#x3cc;" 
d="M53 531q0 275 115.5 415t292.5 140q174 0 291 -140t117 -404q0 -286 -115 -426t-293 -140q-175 0 -291.5 140.5t-116.5 414.5zM204 531q0 -206 75 -306.5t186 -100.5q104 0 178.5 101.5t74.5 305.5q0 205 -75 305.5t-186 100.5q-105 0 -179 -101t-74 -305zM353 1194
l109 280h193l-180 -280h-122z" />
    <glyph glyph-name="upsilontonos" unicode="&#x3cd;" 
d="M113 414v647h147v-655q0 -126 58 -203.5t147 -77.5q92 0 150.5 79.5t58.5 219.5v637h147v-651q0 -199 -97 -316t-261 -117q-163 0 -256.5 115t-93.5 322zM340 1194l109 280h193l-180 -280h-122z" />
    <glyph glyph-name="omegatonos" unicode="&#x3ce;" horiz-adv-x="1286" 
d="M571 463v332h148v-332q0 -167 48 -256.5t128 -89.5q76 0 129 103.5t53 266.5q0 251 -121 574h142q131 -277 131 -545q0 -255 -87.5 -398t-232.5 -143q-185 0 -266 240q-83 -240 -264 -240q-145 0 -232.5 143t-87.5 398q0 269 129 545h144q-121 -329 -121 -574
q0 -162 53 -266t129 -104q81 0 129.5 89.5t48.5 256.5zM520 1194l109 280h193l-180 -280h-122z" />
    <glyph glyph-name="afii10023" unicode="&#x401;" horiz-adv-x="1120" 
d="M133 0v1466h869v-173h-710v-449h665v-172h-665v-499h738v-173h-897zM338 1642v205h154v-205h-154zM644 1642v205h154v-205h-154z" />
    <glyph glyph-name="afii10051" unicode="&#x402;" horiz-adv-x="1453" 
d="M42 1466h960v-173h-401v-456q208 99 361 99q191 0 307.5 -141.5t116.5 -343.5q0 -188 -99.5 -332t-275.5 -144q-90 0 -194 33l27 164q61 -37 129 -37q104 0 177.5 75.5t73.5 234.5q0 148 -77 238.5t-224 90.5q-137 0 -322 -94v-680h-159v1293h-400v173z" />
    <glyph glyph-name="afii10052" unicode="&#x403;" horiz-adv-x="897" 
d="M132 1467h729v-174h-570v-1293h-159v1467zM368 1567l109 280h193l-180 -280h-122z" />
    <glyph glyph-name="afii10053" unicode="&#x404;" horiz-adv-x="1207" 
d="M693 843v-173h-446q9 -248 112.5 -390t264.5 -142q286 0 360 372l153 -49q-97 -486 -501 -486q-276 0 -415 223.5t-139 550.5q0 207 65.5 373.5t192 267.5t299.5 101q185 0 311 -111.5t172 -315.5l-156 -50q-70 307 -328 307q-158 0 -260 -122t-125 -356h440z" />
    <glyph glyph-name="afii10054" unicode="&#x405;" horiz-adv-x="1120" 
d="M76 471l150 16q12 -121 54.5 -188.5t121.5 -108.5t178 -41q142 0 220.5 69.5t78.5 180.5q0 65 -28.5 113.5t-86 79.5t-248.5 87q-170 50 -242 101t-112 129.5t-40 177.5q0 178 115 291t310 113q134 0 234.5 -53t156 -152t59.5 -233l-153 -14q-12 143 -85.5 212t-206.5 69
q-135 0 -206 -60.5t-71 -156.5q0 -89 52 -138t234 -99q178 -49 250 -85q110 -56 166 -147.5t56 -218.5q0 -126 -59 -229.5t-160.5 -157.5t-244.5 -54q-223 0 -355.5 134t-137.5 363z" />
    <glyph glyph-name="afii10055" unicode="&#x406;" horiz-adv-x="467" 
d="M160 0v1466h159v-1466h-159z" />
    <glyph glyph-name="afii10056" unicode="&#x407;" horiz-adv-x="467" 
d="M160 0v1466h159v-1466h-159zM2 1642v205h154v-205h-154zM308 1642v205h154v-205h-154z" />
    <glyph glyph-name="afii10057" unicode="&#x408;" horiz-adv-x="840" 
d="M45 416l143 24q6 -168 52 -230t127 -62q57 0 100.5 31.5t58.5 79.5q21 65 21 197v1010h159v-999q0 -270 -88.5 -381t-249.5 -111q-157 0 -234 100q-89 114 -89 341z" />
    <glyph glyph-name="afii10058" unicode="&#x409;" horiz-adv-x="1775" 
d="M966 1466v-626h287q245 0 352.5 -105.5t107.5 -307.5q0 -131 -55 -238t-139.5 -148t-242.5 -41h-470v1293h-434v-755q0 -225 -17.5 -333.5t-75 -169t-141.5 -60.5q-55 0 -128 25l27 171q39 -20 67 -20q53 0 81 48t28 235v1032h753zM966 165h317q92 0 141 22.5t83 81
t34 152.5q0 95 -39 155t-102 78.5t-221 18.5h-213v-508z" />
    <glyph glyph-name="afii10059" unicode="&#x40a;" horiz-adv-x="1696" 
d="M887 1466v-626h267q173 0 267 -34.5t153.5 -137t59.5 -241.5q0 -133 -55 -238t-137 -147t-254 -42h-460v673h-435v-673h-159v1466h159v-626h435v626h159zM887 165h298q102 0 151.5 18t88 78t38.5 157q0 93 -36 153t-103.5 81t-243.5 21h-193v-508z" />
    <glyph glyph-name="afii10060" unicode="&#x40b;" horiz-adv-x="1434" 
d="M41 1466h962v-173h-401v-451q224 94 360 94q142 0 237 -72.5t127.5 -183.5t32.5 -294v-386h-159v379q0 206 -57.5 299.5t-191.5 93.5q-139 0 -349 -92v-680h-160v1293h-401v173z" />
    <glyph glyph-name="afii10061" unicode="&#x40c;" horiz-adv-x="977" 
d="M132 1466h159v-642q110 0 153.5 51t113.5 248q53 153 88.5 215t95 96.5t160.5 34.5q29 0 59 -3v-169l-32 1l-36 1q-65 0 -103 -37.5t-92 -199.5q-59 -181 -100.5 -231.5t-102.5 -80.5q117 -39 230 -262l247 -488h-197l-201 398q-95 189 -152 239t-115 50q-7 0 -16 -1
v-686h-159v1466zM393 1566l109 280h193l-180 -280h-122z" />
    <glyph glyph-name="afii10062" unicode="&#x40e;" horiz-adv-x="1066" 
d="M8 1466h160l393 -898l342 898h159l-451 -1140q-87 -218 -141.5 -282t-149.5 -64q-65 0 -154 35v166q64 -45 135 -45q59 0 101 45t93 208zM689 1824h101q-13 -129 -78 -194t-165 -65t-164.5 65t-77.5 194h101q23 -135 137 -135q64 0 99 32t47 103z" />
    <glyph glyph-name="afii10145" unicode="&#x40f;" horiz-adv-x="1207" 
d="M674 0v-407h-141v407h-402v1466h159v-1293h627v1293h159v-1466h-402z" />
    <glyph glyph-name="afii10017" unicode="&#x410;" horiz-adv-x="1120" 
d="M-2 0l462 1466h171l492 -1466h-182l-140 444h-502l-132 -444h-169zM345 602h407l-125 406q-58 187 -85 304q-23 -141 -65 -280z" />
    <glyph glyph-name="afii10018" unicode="&#x411;" horiz-adv-x="1102" 
d="M137 1466h780v-173h-621v-452h287q160 0 253 -37t150 -139t57 -239q0 -129 -53 -234t-138 -148.5t-245 -43.5h-470v1466zM296 165h318q123 0 190.5 58.5t67.5 197.5q0 94 -38.5 154t-103 79.5t-221.5 19.5h-213v-509z" />
    <glyph glyph-name="afii10019" unicode="&#x412;" horiz-adv-x="1120" 
d="M124 0v1466h451q137 0 217 -42.5t131 -132.5t51 -199q0 -101 -44 -182t-124 -130q105 -38 165.5 -129.5t60.5 -225.5q0 -133 -54.5 -233.5t-145.5 -146t-250 -45.5h-458zM283 850h260q102 0 145 14q62 21 95.5 70.5t33.5 134.5q0 79 -30.5 131.5t-81 72.5t-181.5 20h-241
v-443zM283 173h299q99 0 146 18q68 26 103.5 85.5t35.5 149.5q0 83 -34 140.5t-91.5 84t-180.5 26.5h-278v-504z" />
    <glyph glyph-name="afii10020" unicode="&#x413;" horiz-adv-x="897" 
d="M132 1467h729v-174h-570v-1293h-159v1467z" />
    <glyph glyph-name="afii10021" unicode="&#x414;" horiz-adv-x="1137" 
d="M239 1466h731v-1293h108v-515h-142v342h-794v-342h-142v515h93q146 266 146 1079v214zM811 1293h-419v-75q0 -185 -26.5 -507.5t-108.5 -537.5h554v1120z" />
    <glyph glyph-name="afii10022" unicode="&#x415;" horiz-adv-x="1120" 
d="M133 0v1466h869v-173h-710v-449h665v-172h-665v-499h738v-173h-897z" />
    <glyph glyph-name="afii10024" unicode="&#x416;" horiz-adv-x="1550" 
d="M857 1466v-642q118 2 160.5 51t112.5 248q59 167 100 230.5t95.5 88t186.5 24.5h21v-169l-31 1l-36 1q-74 0 -111 -46.5t-84 -190.5q-61 -183 -102.5 -233t-100.5 -79q118 -40 229 -262l248 -488h-198l-201 398q-91 182 -148 235t-141 53v-686h-163v686q-101 0 -156 -66
t-134 -222l-201 -398h-197l248 488q113 223 229 262q-64 32 -105 85t-98 227q-51 156 -88 196.5t-111 40.5l-63 -2v169h20q135 0 188 -24.5t95 -89t100 -229.5q70 -198 112.5 -247.5t160.5 -51.5v642h163z" />
    <glyph glyph-name="afii10025" unicode="&#x417;" horiz-adv-x="1014" 
d="M64 414l152 48q16 -105 91 -213t200 -108q121 0 196.5 77t75.5 193q0 122 -77.5 193t-209.5 71h-76v169q110 0 166.5 15t103 77.5t46.5 146.5q0 90 -58.5 164t-168.5 74q-87 0 -149.5 -50.5t-91 -139t-28.5 -149.5l-152 42q56 467 423 467q177 0 279.5 -120t102.5 -279
q0 -202 -158 -318q92 -31 153.5 -126t61.5 -229q0 -191 -121.5 -317.5t-316.5 -126.5q-342 0 -444 439z" />
    <glyph glyph-name="afii10026" unicode="&#x418;" horiz-adv-x="1207" 
d="M132 1466h144v-1161l640 1161h160v-1466h-144v1158l-641 -1158h-159v1466z" />
    <glyph glyph-name="afii10027" unicode="&#x419;" horiz-adv-x="1207" 
d="M132 1466h144v-1161l640 1161h160v-1466h-144v1158l-641 -1158h-159v1466zM769 1824h101q-13 -129 -78 -194t-165 -65t-164.5 65t-77.5 194h101q23 -135 137 -135q64 0 99 32t47 103z" />
    <glyph glyph-name="afii10028" unicode="&#x41a;" horiz-adv-x="977" 
d="M132 1466h159v-642q110 0 153.5 51t113.5 248q53 153 88.5 215t95 96.5t160.5 34.5q29 0 59 -3v-169l-32 1l-36 1q-65 0 -103 -37.5t-92 -199.5q-59 -181 -100.5 -231.5t-102.5 -80.5q117 -39 230 -262l247 -488h-197l-201 398q-95 189 -152 239t-115 50q-7 0 -16 -1
v-686h-159v1466z" />
    <glyph glyph-name="afii10029" unicode="&#x41b;" horiz-adv-x="1102" 
d="M217 1466h753v-1466h-160v1293h-434v-755q0 -225 -17.5 -333.5t-75 -169t-141.5 -60.5q-55 0 -128 25l27 171q39 -20 67 -20q53 0 81 48t28 235v1032z" />
    <glyph glyph-name="afii10030" unicode="&#x41c;" horiz-adv-x="1399" 
d="M125 0v1466h239l285 -1038l57 -217q21 81 64 235l288 1020h214v-1466h-153v1227l-350 -1227h-143l-348 1248v-1248h-153z" />
    <glyph glyph-name="afii10031" unicode="&#x41d;" horiz-adv-x="1212" 
d="M129 0v1466h159v-602h625v602h159v-1466h-159v691h-625v-691h-159z" />
    <glyph glyph-name="afii10032" unicode="&#x41e;" horiz-adv-x="1307" 
d="M85 714q0 375 165 576.5t411 201.5q159 0 290 -90t207.5 -261.5t76.5 -408.5q0 -326 -148 -531q-163 -226 -427 -226q-266 0 -428 232q-147 210 -147 507zM249 711q0 -271 119.5 -420.5t290.5 -149.5q175 0 293.5 151t118.5 444q0 189 -61 338q-47 114 -141.5 182.5
t-206.5 68.5q-180 0 -296.5 -150t-116.5 -464z" />
    <glyph glyph-name="afii10033" unicode="&#x41f;" horiz-adv-x="1212" 
d="M295 0h-160v1466h944v-1466h-159v1294h-625v-1294z" />
    <glyph glyph-name="afii10034" unicode="&#x420;" horiz-adv-x="1120" 
d="M130 0v1466h453q160 0 236 -28q104 -38 166 -141t62 -253q0 -198 -101 -323t-349 -125h-308v-596h-159zM289 769h311q147 0 215 66.5t68 200.5q0 87 -33.5 149t-81 85t-171.5 23h-308v-524z" />
    <glyph glyph-name="afii10035" unicode="&#x421;" horiz-adv-x="1212" 
d="M983 514l160 -49q-53 -247 -185.5 -368.5t-322.5 -121.5q-167 0 -285.5 81.5t-194 261.5t-75.5 425q0 242 75.5 409.5t204.5 253t288 85.5q174 0 299 -108.5t175 -318.5l-156 -45q-80 306 -321 306q-120 0 -208 -61.5t-140.5 -191.5t-52.5 -329q0 -301 106 -451.5
t282 -150.5q130 0 224.5 92.5t126.5 280.5z" />
    <glyph glyph-name="afii10036" unicode="&#x422;" horiz-adv-x="1026" 
d="M438 0v1293h-396v173h953v-173h-398v-1293h-159z" />
    <glyph glyph-name="afii10037" unicode="&#x423;" horiz-adv-x="1066" 
d="M8 1466h160l393 -898l342 898h159l-451 -1140q-87 -218 -141.5 -282t-149.5 -64q-65 0 -154 35v166q64 -45 135 -45q59 0 101 45t93 208z" />
    <glyph glyph-name="afii10038" unicode="&#x424;" horiz-adv-x="1276" 
d="M564 1290v176h149v-176q229 -15 362.5 -168t133.5 -382t-132 -382.5t-364 -168.5v-189h-149v189q-214 10 -355.5 158.5t-141.5 392.5t141.5 392t355.5 158zM713 1124v-768q147 11 239.5 105t92.5 279q0 174 -88.5 274t-243.5 110zM564 1123q-149 -8 -241 -107.5
t-92 -275.5t92 -276t241 -107v766z" />
    <glyph glyph-name="afii10039" unicode="&#x425;" horiz-adv-x="1120" 
d="M8 0l465 764l-410 702h189l219 -376q67 -116 96 -180q39 78 95 167l243 389h172l-422 -691l455 -775h-196l-303 523q-25 44 -52 98q-41 -80 -58 -110l-302 -511h-191z" />
    <glyph glyph-name="afii10040" unicode="&#x426;" horiz-adv-x="1243" 
d="M131 1466h159v-1293h627v1293h159v-1293h110v-580h-141v407h-914v1466z" />
    <glyph glyph-name="afii10041" unicode="&#x427;" horiz-adv-x="1120" 
d="M988 0h-159v591q-214 -97 -375 -97q-123 0 -218.5 69.5t-129.5 179t-34 292.5v431h159v-413q0 -215 62 -303t184 -88q166 0 352 91v713h159v-1466z" />
    <glyph glyph-name="afii10042" unicode="&#x428;" horiz-adv-x="1540" 
d="M132 1466h159v-1293h399v1293h160v-1293h399v1293h159v-1466h-1276v1466z" />
    <glyph glyph-name="afii10043" unicode="&#x429;" horiz-adv-x="1575" 
d="M132 1466h159v-1293h399v1293h160v-1293h399v1293h159v-1293h109v-580h-142v407h-1243v1466z" />
    <glyph glyph-name="afii10044" unicode="&#x42a;" horiz-adv-x="1330" 
d="M0 1466h525v-626h287q160 0 253 -37.5t150 -139.5t57 -239q0 -167 -94.5 -295.5t-354.5 -128.5h-458v1293h-365v173zM525 165h291q148 0 216.5 60.5t68.5 198.5q0 92 -40.5 152.5t-104 78.5t-219.5 18h-212v-508z" />
    <glyph glyph-name="afii10045" unicode="&#x42b;" horiz-adv-x="1569" 
d="M135 1466h159v-626h287q158 0 252 -37t151 -138.5t57 -238.5q0 -169 -94.5 -297.5t-354.5 -128.5h-457v1466zM294 165h291q148 0 216.5 60.5t68.5 200.5q0 92 -40.5 151.5t-103.5 77.5t-219 18h-213v-508zM1264 0v1466h159v-1466h-159z" />
    <glyph glyph-name="afii10046" unicode="&#x42c;" horiz-adv-x="1102" 
d="M135 1466h159v-626h287q158 0 252 -37t151 -138.5t57 -238.5q0 -169 -94.5 -297.5t-354.5 -128.5h-457v1466zM294 165h291q148 0 216.5 60.5t68.5 200.5q0 92 -40.5 151.5t-103.5 77.5t-219 18h-213v-508z" />
    <glyph glyph-name="afii10047" unicode="&#x42d;" horiz-adv-x="1207" 
d="M514 843h440q-24 240 -127 359t-258 119q-258 0 -328 -307l-155 50q45 204 171.5 315.5t311.5 111.5q261 0 408.5 -216.5t147.5 -525.5q0 -324 -138.5 -549t-410.5 -225q-409 0 -506 486l153 49q47 -217 138.5 -294.5t221.5 -77.5q164 0 266.5 145t110.5 387h-446v173z
" />
    <glyph glyph-name="afii10048" unicode="&#x42e;" horiz-adv-x="1696" 
d="M135 1466h159v-658h232q17 312 167.5 497.5t373.5 185.5q227 0 386 -195t159 -555q0 -357 -153 -561.5t-396 -204.5q-236 0 -373 187.5t-161 473.5h-235v-636h-159v1466zM685 726q0 -278 105.5 -431.5t274.5 -153.5q175 0 279 154t104 443q0 279 -102.5 434t-276.5 155
q-173 0 -278.5 -156.5t-105.5 -444.5z" />
    <glyph glyph-name="afii10049" unicode="&#x42f;" horiz-adv-x="1212" 
d="M1083 0v1466h-533q-167 0 -246.5 -41t-130.5 -136.5t-51 -221.5q0 -166 86.5 -269t251.5 -131q-67 -40 -102 -81q-71 -84 -125 -187l-210 -399h200l160 305q93 179 140.5 241t92 83.5t124.5 21.5h184v-651h159zM924 819h-342q-112 0 -170 27t-92 85t-34 135
q0 111 65 174.5t193 63.5h380v-485z" />
    <glyph glyph-name="afii10065" unicode="&#x430;" 
d="M676 131q-74 -77 -154 -116t-166 -39q-136 0 -217 82t-81 221q0 92 38 163t104 111t200 59q180 26 264 62l1 46q0 109 -39 153q-55 64 -169 64q-103 0 -154 -42.5t-75 -159.5l-145 24q31 171 125.5 249t270.5 78q137 0 215 -51.5t98.5 -127.5t20.5 -222v-240
q0 -252 9.5 -317.5t37.5 -127.5h-154q-23 55 -30 131zM664 533q-81 -40 -241 -68q-93 -16 -130 -36.5t-57.5 -58t-20.5 -86.5q0 -76 47 -121.5t130 -45.5q79 0 143.5 41t96.5 109.5t32 199.5v66z" />
    <glyph glyph-name="afii10066" unicode="&#x431;" horiz-adv-x="962" 
d="M749 1500h131q-9 -110 -40 -151.5t-78 -52.5t-183 -11q-179 0 -246.5 -41.5t-97.5 -138t-34 -245.5q111 202 298 202q175 0 286 -145t111 -387q0 -231 -103 -392.5t-299 -161.5q-146 0 -233.5 79.5t-136.5 219.5t-49 469q0 430 116.5 576t360.5 146q151 0 171.5 7
t25.5 27zM742 535q0 178 -68.5 278t-177.5 100q-123 0 -189 -109t-66 -302q0 -191 75 -286t182 -95q104 0 174 112t70 302z" />
    <glyph glyph-name="afii10067" unicode="&#x432;" horiz-adv-x="892" 
d="M111 1062h340q116 0 177.5 -22t110 -90.5t48.5 -169.5q0 -152 -104 -227q143 -64 143 -256q0 -123 -73 -210t-249 -87h-393v1062zM258 615h158q94 0 129.5 12t63.5 48.5t28 89.5q0 84 -49.5 116t-166.5 32h-163v-298zM258 148h195q125 0 173 38.5t48 119.5
q0 86 -50.5 123.5t-185.5 37.5h-180v-319z" />
    <glyph glyph-name="afii10068" unicode="&#x433;" horiz-adv-x="613" 
d="M112 1062h501v-149h-354v-913h-147v1062z" />
    <glyph glyph-name="afii10069" unicode="&#x434;" horiz-adv-x="979" 
d="M228 1062h606v-914h94v-449h-121v301h-685v-301h-122v449h78q153 254 150 914zM350 913q-16 -518 -131 -765h468v765h-337z" />
    <glyph glyph-name="afii10070" unicode="&#x435;" 
d="M704 342l152 -23q-38 -170 -137.5 -256.5t-246.5 -86.5q-185 0 -299.5 140.5t-114.5 405.5q0 275 115.5 419.5t292.5 144.5q169 0 282 -142t113 -411l-1 -48h-650q9 -179 83 -270t180 -91q166 0 231 218zM219 633h486q-10 138 -59 206q-71 99 -181 99q-99 0 -169 -82.5
t-77 -222.5z" />
    <glyph glyph-name="afii10072" unicode="&#x436;" horiz-adv-x="1123" 
d="M638 1062v-459q70 0 98.5 33t83.5 192q44 127 71.5 167.5t61.5 53.5t120 13h22v-149l-44 1q-44 0 -64.5 -15t-36.5 -66q-50 -161 -79 -207t-92 -81q96 -31 187 -216l162 -329h-162l-158 329q-49 101 -85.5 131.5t-84.5 30.5v-491h-151v491q-49 0 -85 -29.5t-86 -132.5
l-158 -329h-162l162 329q92 186 187 216q-61 34 -89.5 76t-81.5 212q-15 50 -35.5 65.5t-65.5 15.5l-44 -1v149h22q89 0 126 -16t62.5 -59.5t79.5 -201.5q42 -121 70 -151.5t98 -30.5v459h151z" />
    <glyph glyph-name="afii10073" unicode="&#x437;" horiz-adv-x="769" 
d="M304 480v141q94 1 127.5 9t63.5 47.5t30 100.5q0 74 -39.5 117t-102.5 43q-125 0 -175 -179l-140 28q67 299 317 299q138 0 217.5 -92.5t79.5 -222.5q0 -125 -103 -207q131 -87 131 -267q0 -143 -85 -232t-238 -89q-297 0 -346 323l138 36q19 -101 77 -157.5t132 -56.5
q76 0 125 51.5t49 131.5q0 64 -31 108.5t-65.5 56.5t-113.5 12z" />
    <glyph glyph-name="afii10074" unicode="&#x438;" horiz-adv-x="939" 
d="M111 1062h147v-810l410 810h159v-1062h-147v805l-410 -805h-159v1062z" />
    <glyph glyph-name="afii10075" unicode="&#x439;" 
d="M111 1062h147v-810l410 810h159v-1062h-147v805l-410 -805h-159v1062zM605 1464h101q-13 -129 -78 -194t-165 -65t-164.5 65t-77.5 194h101q23 -135 137 -135q64 0 99 32t47 103z" />
    <glyph glyph-name="afii10076" unicode="&#x43a;" horiz-adv-x="734" 
d="M110 1062h147v-459q71 0 99.5 33.5t83.5 191.5q43 127 70.5 167.5t62 53.5t120.5 13h22v-149l-44 1q-47 0 -67 -17t-34 -64q-50 -161 -79 -207t-92 -81q95 -31 187 -216l162 -329h-162l-158 329q-48 100 -84.5 131t-86.5 31v-491h-147v1062z" />
    <glyph glyph-name="afii10077" unicode="&#x43b;" horiz-adv-x="979" 
d="M182 1062h686v-1062h-147v913h-391v-529q0 -181 -9.5 -243t-55 -105t-129.5 -43q-52 0 -117 7v151q104 1 123 7t29.5 30.5t10.5 173.5v700z" />
    <glyph glyph-name="afii10078" unicode="&#x43c;" horiz-adv-x="1155" 
d="M115 1062h230l229 -850l253 850h213v-1062h-148v855l-257 -855h-132l-244 896v-896h-144v1062z" />
    <glyph glyph-name="afii10079" unicode="&#x43d;" horiz-adv-x="927" 
d="M111 1062h147v-442h410v442h147v-1062h-147v471h-410v-471h-147v1062z" />
    <glyph glyph-name="afii10080" unicode="&#x43e;" 
d="M53 531q0 275 115.5 415t292.5 140q174 0 291 -140t117 -404q0 -286 -115 -426t-293 -140q-175 0 -291.5 140.5t-116.5 414.5zM204 531q0 -206 75 -306.5t186 -100.5q104 0 178.5 101.5t74.5 305.5q0 205 -75 305.5t-186 100.5q-105 0 -179 -101t-74 -305z" />
    <glyph glyph-name="afii10081" unicode="&#x43f;" horiz-adv-x="910" 
d="M112 1062h687v-1062h-147v913h-393v-913h-147v1062z" />
    <glyph glyph-name="afii10082" unicode="&#x440;" 
d="M108 -407v1469h135v-138q50 86 111 124t140 38q103 0 186 -61t133.5 -185.5t50.5 -299.5q0 -271 -113.5 -417.5t-266.5 -146.5q-68 0 -127 35t-102 99v-517h-147zM241 525q0 -206 69 -303.5t167 -97.5q94 0 165 101t71 312q0 208 -69 308t-168 100q-89 0 -162 -107.5
t-73 -312.5z" />
    <glyph glyph-name="afii10083" unicode="&#x441;" horiz-adv-x="840" 
d="M679 389l145 -23q-25 -190 -125.5 -290t-241.5 -100q-171 0 -281.5 140.5t-110.5 415.5q0 277 111.5 415.5t286.5 138.5q135 0 227.5 -84t118.5 -252l-143 -27q-21 108 -73 161.5t-125 53.5q-109 0 -180.5 -96.5t-71.5 -306.5q0 -217 68.5 -314t175.5 -97
q84 0 143.5 64.5t75.5 200.5z" />
    <glyph glyph-name="afii10084" unicode="&#x442;" horiz-adv-x="769" 
d="M31 1062h708v-149h-280v-913h-148v913h-280v149z" />
    <glyph glyph-name="afii10085" unicode="&#x443;" horiz-adv-x="840" 
d="M104 -409l-16 169q49 -16 84 -16q47 0 77.5 19t50.5 59q7 14 58 176l-331 1064h159l182 -615q34 -115 63 -246q25 124 60 242l186 619h148l-331 -1080q-65 -210 -102.5 -280.5t-85 -101.5t-107.5 -31q-42 0 -95 22z" />
    <glyph glyph-name="afii10086" unicode="&#x444;" horiz-adv-x="1382" 
d="M618 1466h148v-507q91 127 219 127q149 0 242.5 -153t93.5 -400q0 -250 -98 -403.5t-243 -153.5q-119 0 -214 116v-499h-148v499q-89 -116 -214 -116q-150 0 -246 158t-96 408q0 177 50.5 302.5t124.5 183.5t167 58q130 0 214 -127v507zM765 514q0 -392 191 -392
q92 0 154 105t62 312q0 202 -59 301t-151 99q-197 0 -197 -425zM212 532q0 -218 64.5 -313t151.5 -95q191 0 191 394q0 420 -202 420q-86 0 -145.5 -99.5t-59.5 -306.5z" />
    <glyph glyph-name="afii10087" unicode="&#x445;" horiz-adv-x="840" 
d="M12 0l318 552l-294 510h184l134 -249q37 -69 61 -119q37 68 66 117l147 251h176l-301 -500l324 -562h-181l-179 330l-47 89l-229 -419h-179z" />
    <glyph glyph-name="afii10088" unicode="&#x446;" horiz-adv-x="962" 
d="M113 1062h147v-914h409v914h148v-914h95v-555h-122v407h-677v1062z" />
    <glyph glyph-name="afii10089" unicode="&#x447;" horiz-adv-x="875" 
d="M56 1062h147v-201q0 -132 14 -192.5t63 -101t117 -40.5q85 0 219 54v481h147v-1062h-147v428q-137 -52 -255 -52q-129 0 -217 101.5t-88 306.5v278z" />
    <glyph glyph-name="afii10090" unicode="&#x448;" horiz-adv-x="1347" 
d="M116 1062h147v-913h337v913h148v-913h336v913h147v-1062h-1115v1062z" />
    <glyph glyph-name="afii10091" unicode="&#x449;" horiz-adv-x="1382" 
d="M115 1062h147v-914h337v914h148v-914h336v914h147v-914h98v-555h-122v407h-1091v1062z" />
    <glyph glyph-name="afii10092" unicode="&#x44a;" horiz-adv-x="1049" 
d="M0 1062h422v-415h188q172 0 276 -82.5t104 -243.5q0 -127 -80 -224t-266 -97h-369v913h-275v149zM422 146h155q169 0 214.5 53.5t45.5 121.5q0 87 -52.5 131.5t-187.5 44.5h-175v-351z" />
    <glyph glyph-name="afii10093" unicode="&#x44b;" horiz-adv-x="1249" 
d="M108 1062h147v-415h188q202 0 291 -95t89 -230q0 -128 -80.5 -225t-265.5 -97h-369v1062zM255 148h155q169 0 215 54t46 119q0 85 -53 131t-188 46h-175v-350zM970 0v1062h147v-1062h-147z" />
    <glyph glyph-name="afii10094" unicode="&#x44c;" horiz-adv-x="875" 
d="M108 1062h147v-415h188q202 0 291 -95t89 -230q0 -128 -80.5 -225t-265.5 -97h-369v1062zM255 148h155q169 0 215 54t46 119q0 85 -53 131t-188 46h-175v-350z" />
    <glyph glyph-name="afii10095" unicode="&#x44d;" horiz-adv-x="857" 
d="M337 618h307q-12 135 -74.5 227t-163.5 92q-172 0 -207 -217l-144 28q16 146 108.5 242t238.5 96q183 0 288.5 -148.5t105.5 -407.5q0 -253 -103.5 -403.5t-276.5 -150.5q-162 0 -258 109t-118 280l145 23q33 -264 221 -264q211 0 238 346h-307v148z" />
    <glyph glyph-name="afii10096" unicode="&#x44e;" horiz-adv-x="1259" 
d="M112 1062h147v-444h179q44 468 376 468q172 0 274.5 -146t102.5 -405q0 -272 -101.5 -415.5t-278.5 -143.5q-166 0 -261.5 132t-111.5 362h-179v-470h-147v1062zM816 933q-110 0 -169.5 -101.5t-59.5 -284.5q0 -217 60 -320t163 -103q95 0 162.5 89t67.5 310
q0 410 -224 410z" />
    <glyph glyph-name="afii10097" unicode="&#x44f;" horiz-adv-x="910" 
d="M797 1062v-1062h-147v414h-86q-75 0 -114 -24t-113 -158l-128 -232h-183l159 286q73 131 145 148q-126 22 -187 111.5t-61 206.5q0 146 82.5 228t228.5 82h404zM650 913h-210q-132 0 -170 -50.5t-38 -116.5q0 -96 56.5 -140t198.5 -44h163v351z" />
    <glyph glyph-name="afii10071" unicode="&#x451;" 
d="M704 342l152 -23q-38 -170 -137.5 -256.5t-246.5 -86.5q-185 0 -299.5 140.5t-114.5 405.5q0 275 115.5 419.5t292.5 144.5q169 0 282 -142t113 -411l-1 -48h-650q9 -179 83 -270t180 -91q166 0 231 218zM219 633h486q-10 138 -59 206q-71 99 -181 99q-99 0 -169 -82.5
t-77 -222.5zM238 1270v205h154v-205h-154zM544 1270v205h154v-205h-154z" />
    <glyph glyph-name="afii10099" unicode="&#x452;" 
d="M114 1217h-110v119h110v130h147v-130h281v-119h-281v-278q100 147 264 147q139 0 218.5 -90t79.5 -323v-731q0 -233 -60.5 -303t-158.5 -70q-61 0 -115 19l27 153q44 -14 70 -14q52 0 71 41.5t19 177.5v727q0 258 -182 258q-99 0 -166 -77.5t-67 -272.5v-581h-147v1217z
" />
    <glyph glyph-name="afii10100" unicode="&#x453;" horiz-adv-x="613" 
d="M112 1062h501v-149h-354v-913h-147v1062zM319 1194l109 280h193l-180 -280h-122z" />
    <glyph glyph-name="afii10101" unicode="&#x454;" horiz-adv-x="857" 
d="M521 618v-148h-307q26 -346 238 -346q186 0 221 264l145 -23q-23 -174 -119.5 -281.5t-253.5 -107.5q-180 0 -281.5 152.5t-101.5 402.5q0 268 109 411.5t285 143.5q145 0 237.5 -95t109.5 -243l-144 -28q-36 217 -208 217q-98 0 -160.5 -88t-76.5 -231h307z" />
    <glyph glyph-name="afii10102" unicode="&#x455;" horiz-adv-x="840" 
d="M52 317l146 28q13 -112 71 -166.5t154 -54.5t148.5 47.5t52.5 120.5q0 63 -45 98q-31 24 -150 60q-172 53 -230 90t-90 99t-32 141q0 136 87 221t241 85q97 0 170.5 -35t112.5 -94t54 -169l-144 -24q-20 174 -189 174q-96 0 -143 -38.5t-47 -98.5q0 -59 45 -93
q27 -20 160 -64q183 -59 237 -93.5t84 -94t30 -141.5q0 -152 -96.5 -246t-263.5 -94q-313 0 -363 342z" />
    <glyph glyph-name="afii10103" unicode="&#x456;" horiz-adv-x="373" 
d="M108 1259v207h147v-207h-147zM108 0v1062h147v-1062h-147z" />
    <glyph glyph-name="afii10104" unicode="&#x457;" horiz-adv-x="467" 
d="M166 0v1062h147v-1062h-147zM8 1270v205h154v-205h-154zM314 1270v205h154v-205h-154z" />
    <glyph glyph-name="afii10105" unicode="&#x458;" horiz-adv-x="373" 
d="M107 1257v209h147v-209h-147zM-80 -412l28 153q44 -14 69 -14q47 0 68.5 37t21.5 182v1116h147v-1120q0 -217 -55.5 -295t-162.5 -78q-60 0 -116 19z" />
    <glyph glyph-name="afii10106" unicode="&#x459;" horiz-adv-x="1522" 
d="M896 1062v-415h188q201 0 290.5 -95t89.5 -230q0 -129 -80.5 -225.5t-266.5 -96.5h-368v913h-410v-529q0 -226 -39 -308t-170 -82q-23 0 -114 6v148q59 -11 91 -11q51 0 68 38.5t17 186.5v700h704zM896 148h155q138 0 199 40t61 133q0 87 -53.5 132t-186.5 45h-175v-350z
" />
    <glyph glyph-name="afii10107" unicode="&#x45a;" horiz-adv-x="1364" 
d="M738 620h188q179 0 279.5 -81.5t100.5 -229.5q0 -132 -84 -220.5t-262 -88.5h-369v471h-337v-471h-147v1062h147v-442h337v442h147v-442zM738 141h155q169 0 215 50.5t46 112.5q0 67 -44.5 117t-196.5 50h-175v-330z" />
    <glyph glyph-name="afii10108" unicode="&#x45b;" 
d="M114 1336v130h147v-130h281v-119h-281v-278q100 147 264 147q139 0 218.5 -90t79.5 -323v-673h-147v673q0 258 -182 258q-99 0 -166 -77.5t-67 -272.5v-581h-147v1217h-110v119h110z" />
    <glyph glyph-name="afii10109" unicode="&#x45c;" horiz-adv-x="734" 
d="M110 1062h147v-459q71 0 99.5 33.5t83.5 191.5q43 127 70.5 167.5t62 53.5t120.5 13h22v-149l-44 1q-47 0 -67 -17t-34 -64q-50 -161 -79 -207t-92 -81q95 -31 187 -216l162 -329h-162l-158 329q-48 100 -84.5 131t-86.5 31v-491h-147v1062zM272 1194l109 280h193
l-180 -280h-122z" />
    <glyph glyph-name="afii10110" unicode="&#x45e;" horiz-adv-x="840" 
d="M104 -409l-16 169q49 -16 84 -16q47 0 77.5 19t50.5 59q7 14 58 176l-331 1064h159l182 -615q34 -115 63 -246q25 124 60 242l186 619h148l-331 -1080q-65 -210 -102.5 -280.5t-85 -101.5t-107.5 -31q-42 0 -95 22zM571 1464h101q-13 -129 -78 -194t-165 -65t-164.5 65
t-77.5 194h101q23 -135 137 -135q64 0 99 32t47 103z" />
    <glyph glyph-name="afii10193" unicode="&#x45f;" horiz-adv-x="927" 
d="M524 0v-407h-122v407h-291v1062h147v-914h410v914h147v-1062h-291z" />
    <glyph glyph-name="afii10050" unicode="&#x490;" horiz-adv-x="831" 
d="M689 1466v341h142v-514h-540v-1293h-159v1466h557z" />
    <glyph glyph-name="afii10098" unicode="&#x491;" horiz-adv-x="553" 
d="M431 1062v301h122v-450h-293v-913h-147v1062h318z" />
    <glyph glyph-name="Wgrave" unicode="&#x1e80;" horiz-adv-x="1585" 
d="M342 0l-319 1466h163l183 -961q29 -148 51 -300l54 271l229 990h192l172 -742q63 -271 94 -519q23 143 59 319l189 942h160l-330 -1466h-153l-254 1117l-38 172q-17 -96 -35 -172l-255 -1117h-162zM930 1567h-119l-189 280h198z" />
    <glyph glyph-name="wgrave" unicode="&#x1e81;" horiz-adv-x="1212" 
d="M268 0l-266 1062h153l138 -613l51 -228l46 219l138 622h152l130 -616l44 -203l50 205l149 614h144l-273 -1062h-153l-139 636l-33 181l-176 -817h-155zM708 1194h-119l-189 280h198z" />
    <glyph glyph-name="Wacute" unicode="&#x1e82;" horiz-adv-x="1585" 
d="M342 0l-319 1466h163l183 -961q29 -148 51 -300l54 271l229 990h192l172 -742q63 -271 94 -519q23 143 59 319l189 942h160l-330 -1466h-153l-254 1117l-38 172q-17 -96 -35 -172l-255 -1117h-162zM669 1567l109 280h193l-180 -280h-122z" />
    <glyph glyph-name="wacute" unicode="&#x1e83;" horiz-adv-x="1212" 
d="M268 0l-266 1062h153l138 -613l51 -228l46 219l138 622h152l130 -616l44 -203l50 205l149 614h144l-273 -1062h-153l-139 636l-33 181l-176 -817h-155zM521 1194l109 280h193l-180 -280h-122z" />
    <glyph glyph-name="Wdieresis" unicode="&#x1e84;" horiz-adv-x="1585" 
d="M342 0l-319 1466h163l183 -961q29 -148 51 -300l54 271l229 990h192l172 -742q63 -271 94 -519q23 143 59 319l189 942h160l-330 -1466h-153l-254 1117l-38 172q-17 -96 -35 -172l-255 -1117h-162zM558 1643v205h154v-205h-154zM864 1643v205h154v-205h-154z" />
    <glyph glyph-name="wdieresis" unicode="&#x1e85;" horiz-adv-x="1212" 
d="M268 0l-266 1062h153l138 -613l51 -228l46 219l138 622h152l130 -616l44 -203l50 205l149 614h144l-273 -1062h-153l-139 636l-33 181l-176 -817h-155zM364 1270v205h154v-205h-154zM670 1270v205h154v-205h-154z" />
    <glyph glyph-name="Ygrave" unicode="&#x1ef2;" horiz-adv-x="1120" 
d="M468 0v621l-463 845h194l236 -442q70 -131 123 -248q53 115 131 259l233 431h185l-480 -845v-621h-159zM686 1567h-119l-189 280h198z" />
    <glyph glyph-name="ygrave" unicode="&#x1ef3;" horiz-adv-x="840" 
d="M104 -409l-16 169q49 -16 84 -16q47 0 77.5 19t50.5 59q7 14 58 176l-331 1064h159l182 -615q34 -115 63 -246q25 124 60 242l186 619h148l-331 -1080q-65 -210 -102.5 -280.5t-85 -101.5t-107.5 -31q-42 0 -95 22zM546 1194h-119l-189 280h198z" />
    <glyph glyph-name="endash" unicode="&#x2013;" 
d="M-6 458v145h934v-145h-934z" />
    <glyph glyph-name="emdash" unicode="&#x2014;" horiz-adv-x="1679" 
d="M0 458v145h1679v-145h-1679z" />
    <glyph glyph-name="afii00208" unicode="&#x2015;" horiz-adv-x="1679" 
d="M1466 467h-1257v145h1257v-145z" />
    <glyph glyph-name="underscoredbl" unicode="&#x2017;" horiz-adv-x="1024" 
d="M1042 -284h-1059v84h1059v-84zM1042 -442h-1059v84h1059v-84z" />
    <glyph glyph-name="quoteleft" unicode="&#x2018;" horiz-adv-x="373" 
d="M260 1195v-209h-158v165q0 141 33.5 209t101.5 106l37 -71q-42 -21 -65 -64.5t-26 -135.5h77z" />
    <glyph glyph-name="quoteright" unicode="&#x2019;" horiz-adv-x="373" 
d="M98 1256v210h159v-165q0 -142 -34 -210t-102 -105l-36 70q86 44 90 200h-77z" />
    <glyph glyph-name="quotesinglbase" unicode="&#x201a;" horiz-adv-x="373" 
d="M98 0v209h159v-165q0 -141 -34 -209t-102 -106l-36 71q86 44 90 200h-77z" />
    <glyph glyph-name="quotereversed" unicode="&#x201b;" horiz-adv-x="373" 
d="M260 1257h-77q3 -92 26 -135.5t65 -64.5l-37 -71q-68 38 -101.5 106t-33.5 209v165h158v-209z" />
    <glyph glyph-name="quotedblleft" unicode="&#x201c;" horiz-adv-x="559" 
d="M481 1195v-209h-159v165q0 141 34 209t101 106l37 -71q-42 -21 -65 -65t-26 -135h78zM226 1195v-209h-158v165q0 141 33.5 209t101.5 106l37 -71q-42 -21 -65 -64.5t-26 -135.5h77z" />
    <glyph glyph-name="quotedblright" unicode="&#x201d;" horiz-adv-x="559" 
d="M71 1256v210h159v-165q0 -142 -34 -210t-102 -105l-36 70q86 44 90 200h-77zM325 1256v210h159v-165q0 -142 -33.5 -210t-101.5 -105l-37 70q41 21 64.5 66t26.5 134h-78z" />
    <glyph glyph-name="quotedblbase" unicode="&#x201e;" horiz-adv-x="559" 
d="M71 0v209h159v-165q0 -141 -34 -209t-102 -106l-36 71q86 44 90 200h-77zM325 0v209h159v-165q0 -141 -33.5 -209t-101.5 -106l-37 71q41 21 64.5 66t26.5 134h-78z" />
    <glyph glyph-name="dagger" unicode="&#x2020;" 
d="M385 -346v1212h-328v160h328v406h147v-406h330v-160h-330v-1212h-147z" />
    <glyph glyph-name="daggerdbl" unicode="&#x2021;" 
d="M387 -346v370h-330v161h330v725h-330v161h330v375h147v-375h331v-161h-331v-725h331v-161h-331v-370h-147z" />
    <glyph glyph-name="bullet" unicode="&#x2022;" horiz-adv-x="588" 
d="M92 718q0 109 62.5 181t145.5 72t145 -72t62 -181q0 -110 -62.5 -182t-144.5 -72q-83 0 -145.5 72.5t-62.5 181.5z" />
    <glyph glyph-name="ellipsis" unicode="&#x2026;" horiz-adv-x="1679" 
d="M196 0v205h168v-205h-168zM756 0v205h168v-205h-168zM1316 0v205h168v-205h-168z" />
    <glyph glyph-name="perthousand" unicode="&#x2030;" horiz-adv-x="1679" 
d="M262 -54l493 1545h108l-493 -1545h-108zM30 1099q0 199 65.5 289.5t167.5 90.5q105 0 171.5 -91t66.5 -297q0 -204 -65 -293.5t-169 -89.5q-103 0 -170 92.5t-67 298.5zM152 1091q0 -150 32 -204t88 -54q47 0 74 47q34 62 34 213t-32 206.5t-84 55.5q-50 0 -77 -49
q-35 -63 -35 -215zM625 336q0 200 65.5 290t167.5 90q105 0 171.5 -91t66.5 -297q0 -204 -65 -293t-169 -89q-103 0 -170 92.5t-67 297.5zM747 328q0 -150 31.5 -204t88.5 -54q47 0 77.5 54.5t30.5 206.5q0 151 -32 206t-85 55q-49 0 -76 -48q-35 -64 -35 -216zM1178 336
q0 200 65.5 290t167.5 90q105 0 171.5 -91t66.5 -297q0 -204 -65 -293t-169 -89q-103 0 -170 92.5t-67 297.5zM1300 328q0 -150 32 -204t88 -54q47 0 77.5 54.5t30.5 206.5q0 151 -32 206t-84 55q-50 0 -77 -48q-35 -64 -35 -216z" />
    <glyph glyph-name="minute" unicode="&#x2032;" horiz-adv-x="322" 
d="M109 947l-38 274v245h168v-245l-39 -274h-91z" />
    <glyph glyph-name="second" unicode="&#x2033;" horiz-adv-x="596" 
d="M117 947l-41 279v240h168v-240l-37 -279h-90zM388 947l-39 279v240h168v-240l-40 -279h-89z" />
    <glyph glyph-name="guilsinglleft" unicode="&#x2039;" horiz-adv-x="559" 
d="M238 527l217 -455h-122l-258 455l258 457h122z" />
    <glyph glyph-name="guilsinglright" unicode="&#x203a;" horiz-adv-x="559" 
d="M320 530l-217 454h122l258 -454l-258 -458h-122z" />
    <glyph glyph-name="exclamdbl" unicode="&#x203c;" 
d="M197 364l-45 777v325h183v-325l-42 -777h-96zM159 0v205h169v-205h-169zM633 364l-45 777v325h183v-325l-42 -777h-96zM595 0v205h169v-205h-169z" />
    <glyph glyph-name="radicalex" unicode="&#x203e;" 
d="M-42 1869h1018v-74h-1018v74z" />
    <glyph glyph-name="fraction" unicode="&#x2044;" horiz-adv-x="281" 
d="M-373 -57l903 1548h128l-902 -1548h-129z" />
    <glyph glyph-name="fraction" unicode="&#x2215;" horiz-adv-x="281" 
d="M-373 -57l903 1548h128l-902 -1548h-129z" />
    <glyph glyph-name="nsuperior" unicode="&#x207f;" horiz-adv-x="612" 
d="M67 805v665h106v-69q68 83 171 83q74 0 123 -37.5t64.5 -91t15.5 -145.5v-405h-116v401q0 83 -24.5 120t-84.5 37q-139 0 -139 -196v-362h-116z" />
    <glyph glyph-name="franc" unicode="&#x20a3;" horiz-adv-x="1032" 
d="M138 268h-138v131h138v1067h811v-173h-652v-454h564v-173h-564v-267h291v-131h-291v-268h-159v268z" />
    <glyph glyph-name="afii08941" unicode="&#x20a4;" 
d="M208 517h-210v148h193l-28 134h-165v148h134q-14 72 -14 126q0 191 106.5 304.5t265.5 113.5q144 0 242.5 -97t121.5 -282l-147 -27q-13 123 -75.5 190.5t-143.5 67.5q-88 0 -150 -69t-62 -176q0 -69 15 -151h219v-148h-191l28 -134h163v-148h-146q0 -31 -34.5 -128.5
t-111.5 -197.5q65 22 118 22q68 0 153 -25q140 -41 191 -41q60 0 157 56l48 -165q-123 -64 -197 -64q-34 0 -70 8q-24 6 -107 37q-86 32 -113 38q-37 9 -71 9q-132 0 -250 -94l-57 173q86 57 137 157.5t51 214.5z" />
    <glyph glyph-name="peseta" unicode="&#x20a7;" horiz-adv-x="1952" 
d="M130 1466h379q172 0 271.5 -104t108.5 -298h76v310l149 -1v-309h262q66 28 143 28q94 0 167 -37t120.5 -107.5t48.5 -184.5l-154 1q-10 170 -174 170q-72 0 -119 -35t-47 -91q0 -57 48 -92.5t172 -71.5q171 -50 239 -125.5t68 -205.5q0 -156 -108 -247.5t-250 -91.5
q-185 0 -284 157l-1 -131q-45 -16 -76 -16q-67 0 -114 25.5t-68.5 67t-21.5 131.5v711h-84q-24 -111 -80 -186.5t-136.5 -105t-244.5 -29.5h-131v-598h-159v1466zM289 1295v-528h108q133 0 198 26.5t98.5 89t33.5 148.5q0 87 -34 151.5t-88 88.5t-148 24h-168zM1114 919
v-655q-1 -30 -1 -31q0 -82 74 -82q20 0 43 10q-33 83 -35 177l149 -1q5 -106 64.5 -158t136.5 -52t136 49.5t59 117.5q0 47 -33 83.5t-168 80.5q-138 45 -195.5 81t-93 97t-35.5 143t26 139z" />
    <glyph glyph-name="Euro" unicode="&#x20ac;" 
d="M874 1225q-102 100 -233 100q-143 0 -249 -104.5t-130 -284.5h559l-22 -135h-551v-131h528l-22 -135h-488q28 -190 127.5 -292t247.5 -102q143 0 233 99v-207q-100 -58 -231 -58q-445 0 -541 560h-125l23 135h86q-2 24 -2 61v70h-107l23 135h96q40 263 190.5 409
t366.5 146q144 0 256 -82z" />
    <glyph glyph-name="afii61248" unicode="&#x2105;" horiz-adv-x="1553" 
d="M491 1012l116 -19q-13 -132 -80.5 -206.5t-167.5 -74.5q-118 0 -190 101t-72 298q0 184 74.5 282t191.5 98q196 0 235 -242l-115 -24q-24 151 -118 151q-65 0 -106 -69t-41 -201q0 -135 37.5 -206.5t105.5 -71.5q112 0 130 184zM232 -57l903 1548h128l-902 -1548h-129z
M909 373q0 192 77 290.5t196 98.5q115 0 194 -96t79 -293t-78.5 -293.5t-194.5 -96.5q-115 0 -194 96t-79 294zM1030 373q0 -132 43 -203t109 -71q68 0 110 72t42 202q0 131 -43 202.5t-109 71.5q-68 0 -110 -73t-42 -201z" />
    <glyph glyph-name="afii61289" unicode="&#x2113;" horiz-adv-x="715" 
d="M28 422l177 235v455q0 222 60 300.5t171 78.5q107 0 165 -70t58 -165q0 -96 -61 -230t-224 -361v-415q0 -83 13 -107.5t43 -24.5q52 0 199 107v-162q-104 -87 -225 -87q-97 0 -148 59t-51 182v225l-79 -98zM374 899q91 157 118 223.5t27 128.5q0 60 -22.5 90t-53.5 30
q-42 0 -55.5 -50.5t-13.5 -194.5v-227z" />
    <glyph glyph-name="afii61352" unicode="&#x2116;" horiz-adv-x="1802" 
d="M131 1466h160l588 -1136v1136h151v-1466h-159l-591 1131v-1131h-149v1466zM1140 785q0 176 82 281.5t216 105.5q131 0 212 -104.5t81 -294.5q0 -185 -82.5 -293t-216.5 -108q-95 0 -162 55t-98.5 135.5t-31.5 222.5zM1284 779q0 -141 46 -205.5t107 -64.5q63 0 107 70
t44 194q0 140 -48 202.5t-105 62.5q-61 0 -106 -65.5t-45 -193.5zM1156 266h559v-148h-559v148z" />
    <glyph glyph-name="trademark" unicode="&#x2122;" horiz-adv-x="1679" 
d="M402 651v694h-217v121h546v-121h-218v-694h-111zM806 651v815h164l169 -651l163 651h160v-815h-101v684l-173 -684h-100l-180 694v-694h-102z" />
    <glyph glyph-name="Ohm" unicode="&#x2126;" horiz-adv-x="1573" 
d="M496 160q-108 67 -165 130q-87 96 -134 225.5t-47 286.5q0 196 79.5 360.5t231 252.5t347.5 88q336 0 516 -254q131 -186 131 -448q0 -168 -54 -297.5t-141 -222.5q-53 -58 -149 -121l364 6v-166h-575v177q80 40 124 78q72 61 122 145t75.5 179t25.5 198
q0 138 -49.5 277.5t-150 212.5t-243.5 73q-191 0 -296 -120q-146 -169 -146 -440q0 -217 91 -372.5t251 -227.5v-180h-577v168z" />
    <glyph glyph-name="estimated" unicode="&#x212e;" horiz-adv-x="1229" 
d="M321 531v-371q120 -121 298 -121q254 0 395 246l72 -43q-117 -168 -231 -222t-236 -54q-232 0 -380.5 158.5t-148.5 406.5q0 249 148.5 407t380.5 158q214 0 366 -142.5t163 -422.5h-827zM917 605v297q-123 121 -300 121q-175 0 -296 -122v-296h596z" />
    <glyph glyph-name="oneeighth" unicode="&#x215b;" horiz-adv-x="1401" 
d="M270 733v554q-84 -81 -184 -113v123q51 20 113.5 73.5t100.5 113.5h89v-751h-119zM203 -57l903 1548h128l-902 -1548h-129zM1031 375q-102 47 -102 161q0 79 48.5 136t157.5 57q105 0 161.5 -54t56.5 -141q0 -113 -111 -159q131 -40 131 -185q0 -103 -64.5 -167
t-168.5 -64q-110 0 -172 65t-62 162q0 148 125 189zM1137 622q-44 0 -68 -29t-24 -67q0 -51 27 -75.5t68 -24.5q39 0 67.5 24.5t28.5 71.5q0 49 -28 74.5t-71 25.5zM1137 319q-54 0 -84 -35t-30 -86q0 -127 117 -127q58 0 88 37.5t30 83.5q0 58 -34.5 92.5t-86.5 34.5z" />
    <glyph glyph-name="threeeighths" unicode="&#x215c;" horiz-adv-x="1401" 
d="M86 929l120 15q17 -62 48 -87t78 -25q55 0 91.5 37.5t36.5 95.5q0 53 -31 81.5t-98 28.5l-27 -2l-18 -1l18 110q61 -1 94.5 27t33.5 75q0 40 -26.5 64.5t-71.5 24.5t-71.5 -21.5t-45.5 -80.5l-117 23q35 109 86.5 149.5t149.5 40.5q110 0 167 -50.5t57 -135.5
q0 -59 -30 -101t-83 -60q142 -43 142 -191q0 -99 -68 -165t-179 -66q-220 0 -256 214zM203 -57l903 1548h128l-902 -1548h-129zM1019 375q-102 47 -102 161q0 79 48.5 136t157.5 57q105 0 161.5 -54t56.5 -141q0 -113 -111 -159q131 -40 131 -185q0 -103 -64.5 -167
t-168.5 -64q-110 0 -172 65t-62 162q0 148 125 189zM1125 622q-44 0 -68 -29t-24 -67q0 -51 27 -75.5t68 -24.5q39 0 67.5 24.5t28.5 71.5q0 49 -28 74.5t-71 25.5zM1125 319q-54 0 -84 -35t-30 -86q0 -127 117 -127q58 0 88 37.5t30 83.5q0 58 -34.5 92.5t-86.5 34.5z" />
    <glyph glyph-name="fiveeighths" unicode="&#x215d;" horiz-adv-x="1401" 
d="M73 926l113 18q21 -104 114 -104q61 0 96 42t35 103q0 58 -32.5 100.5t-83.5 42.5q-52 0 -109 -63l-110 25l61 376h367v-120h-291l-27 -158q60 51 131 51q92 0 151.5 -74t59.5 -180q0 -119 -72 -194.5t-174 -75.5q-93 0 -152.5 57.5t-76.5 153.5zM203 -57l903 1548h128
l-902 -1548h-129zM1007 371q-102 47 -102 161q0 79 48.5 136t157.5 57q105 0 161.5 -54t56.5 -141q0 -113 -111 -159q131 -40 131 -185q0 -103 -64.5 -167t-168.5 -64q-110 0 -172 65t-62 162q0 148 125 189zM1113 618q-44 0 -68 -29t-24 -67q0 -51 27 -75.5t68 -24.5
q39 0 67.5 24.5t28.5 71.5q0 49 -28 74.5t-71 25.5zM1113 315q-54 0 -84 -35t-30 -86q0 -127 117 -127q58 0 88 37.5t30 83.5q0 58 -34.5 92.5t-86.5 34.5z" />
    <glyph glyph-name="seveneighths" unicode="&#x215e;" horiz-adv-x="1401" 
d="M188 733q18 317 205 613h-299v120h428v-80q-193 -289 -217 -653h-117zM203 -57l903 1548h128l-902 -1548h-129zM1007 375q-102 47 -102 161q0 79 48.5 136t157.5 57q105 0 161.5 -54t56.5 -141q0 -113 -111 -159q131 -40 131 -185q0 -103 -64.5 -167t-168.5 -64
q-110 0 -172 65t-62 162q0 148 125 189zM1113 622q-44 0 -68 -29t-24 -67q0 -51 27 -75.5t68 -24.5q39 0 67.5 24.5t28.5 71.5q0 49 -28 74.5t-71 25.5zM1113 319q-54 0 -84 -35t-30 -86q0 -127 117 -127q58 0 88 37.5t30 83.5q0 58 -34.5 92.5t-86.5 34.5z" />
    <glyph glyph-name="arrowleft" unicode="&#x2190;" horiz-adv-x="2048" 
d="M492 876h76q-59 -118 -88.5 -165.5t-106.5 -143.5h1595v-101h-1595q104 -108 198 -309h-78q-129 144 -222 218.5t-192 122.5v45q87 37 184 113t229 220z" />
    <glyph glyph-name="arrowup" unicode="&#x2191;" horiz-adv-x="1024" 
d="M153 926q145 133 220.5 230t112.5 183h46q47 -99 121.5 -192t218.5 -222v-77q-201 94 -309 197v-1474h-101v1474q-96 -76 -143.5 -106t-165.5 -89v76z" />
    <glyph glyph-name="arrowright" unicode="&#x2192;" horiz-adv-x="2048" 
d="M1555 876q133 -145 230 -220.5t183 -112.5v-45q-99 -48 -192 -122.5t-222 -218.5h-77q94 201 197 309h-1595v101h1595q-76 97 -106 144t-89 165h76z" />
    <glyph glyph-name="arrowdown" unicode="&#x2193;" horiz-adv-x="1024" 
d="M153 -16v76q119 -59 166 -89t143 -106v1474h101v-1474q108 103 309 197v-77q-144 -129 -218.5 -222t-121.5 -192h-46q-37 86 -112.5 183t-220.5 230z" />
    <glyph glyph-name="arrowboth" unicode="&#x2194;" horiz-adv-x="2048" 
d="M1968 540v-45q-94 -43 -185 -116t-221 -221h-80q69 172 194 311h-1305q125 -139 194 -311h-80q-130 148 -221 221t-185 116v45q94 44 185 116.5t221 221.5h80q-69 -172 -194 -311h1305q-125 139 -194 311h80q130 -149 221 -221.5t185 -116.5z" />
    <glyph glyph-name="arrowupdn" unicode="&#x2195;" horiz-adv-x="1024" 
d="M489 1463h45q44 -94 116.5 -185.5t220.5 -221.5v-80q-171 69 -311 195v-1306q140 126 311 194v-79q-148 -130 -220.5 -221.5t-116.5 -185.5h-45q-43 94 -116 185.5t-221 221.5v79q171 -68 311 -194v1306q-140 -126 -311 -195v80q148 130 221 221.5t116 185.5z" />
    <glyph glyph-name="arrowupdnbse" unicode="&#x21a8;" horiz-adv-x="1024" 
d="M489 1463h45q44 -94 116.5 -185.5t220.5 -221.5v-80q-171 69 -311 195v-1306q140 126 311 194v-79q-148 -130 -220.5 -221.5t-116.5 -185.5h-45q-43 94 -116 185.5t-221 221.5v79q171 -68 311 -194v1306q-140 -126 -311 -195v80q148 130 221 221.5t116 185.5zM154 -522
h717v-98h-717v98z" />
    <glyph glyph-name="partialdiff" unicode="&#x2202;" horiz-adv-x="1012" 
d="M426 1138l-135 60q70 157 168 225t192 68q76 0 137.5 -39.5t92.5 -90.5q47 -79 69.5 -187t22.5 -248q0 -288 -86.5 -512.5t-233.5 -331.5t-289 -107q-137 0 -222.5 91t-85.5 256q0 226 153 387q197 207 649 215q-4 168 -24 256t-68 135.5t-113 47.5q-62 0 -121 -49.5
t-106 -175.5zM854 796q-244 -14 -357.5 -68t-187 -176.5t-73.5 -248.5q0 -83 51 -137t119 -54q75 0 160 55q117 76 190.5 234.5t97.5 394.5z" />
    <glyph glyph-name="increment" unicode="&#x2206;" horiz-adv-x="1253" 
d="M1226 0h-1200l628 1387zM990 82l-399 967l-440 -967h839z" />
    <glyph glyph-name="product" unicode="&#x220f;" horiz-adv-x="1686" 
d="M161 1491h1362v-1922h-191v1748h-978v-1748h-193v1922z" />
    <glyph glyph-name="summation" unicode="&#x2211;" horiz-adv-x="1460" 
d="M139 1491h1237v-164h-988l607 -775l-649 -822h1040v-161h-1264v187l620 788l-603 772v175z" />
    <glyph glyph-name="minus" unicode="&#x2212;" horiz-adv-x="981" 
d="M886 639h-794v168h794v-168z" />
    <glyph glyph-name="periodcentered" unicode="&#x2219;" horiz-adv-x="467" 
d="M155 619v205h168v-205h-168z" />
    <glyph glyph-name="radical" unicode="&#x221a;" horiz-adv-x="1124" 
d="M1050 1869h74l-312 -1947l-496 1021l-198 -91l-34 64l301 151l405 -823z" />
    <glyph glyph-name="infinity" unicode="&#x221e;" horiz-adv-x="1460" 
d="M689 812q105 132 164 174q80 58 169 58q105 0 196.5 -76t91.5 -245q0 -118 -34 -185.5t-106 -108.5t-148 -41q-89 0 -169 57q-59 43 -164 175q-136 -171 -289 -171q-101 0 -173.5 76.5t-72.5 190.5q0 113 72.5 190t173.5 77q153 0 289 -171zM758 717q87 -135 159 -185
q46 -33 103 -33q76 0 127.5 56t51.5 158q0 106 -52.5 162t-130.5 56q-49 0 -92 -28q-58 -39 -166 -186zM620 716q-80 100 -128 128.5t-92 28.5q-58 0 -96.5 -41t-38.5 -113q0 -71 40 -113.5t97 -42.5q101 0 218 153z" />
    <glyph glyph-name="orthogonal" unicode="&#x221f;" horiz-adv-x="2005" 
d="M362 1279h100v-1179h1181v-100h-1281v1279z" />
    <glyph glyph-name="intersection" unicode="&#x2229;" horiz-adv-x="1479" 
d="M302 0h-110v560q0 248 6 314q12 119 44 195t102 149.5t173.5 119.5t219.5 46q112 0 214 -44t177 -119.5t107 -160.5t42 -212q4 -50 4 -288v-560h-109v566q0 218 -6 281q-11 111 -36.5 176.5t-80 123t-139 94.5t-174.5 37q-74 0 -143.5 -25.5t-119 -63t-80 -77
t-44.5 -74.5q-25 -60 -36 -146.5t-11 -325.5v-566z" />
    <glyph glyph-name="integral" unicode="&#x222b;" horiz-adv-x="561" 
d="M201 948l17 531q9 153 50 254q27 65 74.5 97.5t92.5 32.5q50 0 87.5 -33.5t37.5 -73.5q0 -47 -26.5 -75.5t-65.5 -28.5q-35 0 -76 36q-23 20 -40 20t-28.5 -14.5t-11.5 -49.5q0 -42 9 -145q37 -410 37 -665q0 -67 -16 -588q-8 -295 -90 -399q-54 -67 -134 -67
q-52 0 -85 34t-33 87q0 45 25.5 72t64.5 27q40 0 69 -32t49 -32q17 0 28 14t11 47q0 42 -9 120q-37 315 -37 831z" />
    <glyph glyph-name="approxequal" unicode="&#x2248;" horiz-adv-x="1124" 
d="M51 738v205q106 120 278 120q60 0 125.5 -17t188.5 -70q69 -30 103.5 -38.5t69.5 -8.5q65 0 134.5 39t123.5 98v-212q-64 -60 -129.5 -87t-147.5 -27q-60 0 -114 13.5t-173 66.5q-119 54 -198 54q-64 0 -120.5 -27.5t-140.5 -108.5zM51 376v205q106 120 278 120
q60 0 125.5 -17t188.5 -70q69 -29 103.5 -38t69.5 -9q65 0 134.5 39t123.5 98v-212q-64 -60 -129.5 -87t-147.5 -27q-60 0 -114 14t-173 67t-198 53q-64 0 -120.5 -27.5t-140.5 -108.5z" />
    <glyph glyph-name="notequal" unicode="&#x2260;" horiz-adv-x="1124" 
d="M495 417l-194 -445h-136l195 445h-282v168h356l122 277h-478v168h551l196 444h134l-195 -444h282v-168h-356l-121 -277h477v-168h-551z" />
    <glyph glyph-name="equivalence" unicode="&#x2261;" horiz-adv-x="979" 
d="M887 1085h-794v167h794v-167zM887 639h-794v168h794v-168zM887 194h-794v168h794v-168z" />
    <glyph glyph-name="lessequal" unicode="&#x2264;" horiz-adv-x="1124" 
d="M77 762v168l971 410v-180l-770 -315l770 -319v-179zM1046 106h-968v167h968v-167z" />
    <glyph glyph-name="greaterequal" unicode="&#x2265;" horiz-adv-x="1124" 
d="M1048 762l-971 -415v179l769 319l-769 315v180l971 -410v-168zM1046 106h-968v167h968v-167z" />
    <glyph glyph-name="house" unicode="&#x2302;" horiz-adv-x="1229" 
d="M153 0v634l461 519l462 -519v-634h-923zM234 81h761v519l-381 427l-380 -427v-519z" />
    <glyph glyph-name="revlogicalnot" unicode="&#x2310;" horiz-adv-x="981" 
d="M92 424v606h794v-168h-654v-438h-140z" />
    <glyph glyph-name="integraltp" unicode="&#x2320;" horiz-adv-x="1237" 
d="M691 -515h-145v1811q0 219 89.5 330t202.5 111q67 0 102.5 -32.5t35.5 -76.5q0 -40 -25.5 -66t-62.5 -26q-30 0 -57 15q-18 10 -41.5 46.5t-46.5 36.5q-17 0 -31 -12q-10 -8 -14 -27q-7 -33 -7 -139v-1971z" />
    <glyph glyph-name="integralbt" unicode="&#x2321;" horiz-adv-x="1237" 
d="M546 1737h145v-1811q0 -219 -89.5 -330t-202.5 -111q-67 0 -102.5 32.5t-35.5 76.5q0 40 25.5 66t61.5 26q31 0 59 -16q18 -10 41 -46t46 -36q17 0 31 11q10 8 14 29q7 32 7 138v1971z" />
    <glyph glyph-name="SF100000" unicode="&#x2500;" horiz-adv-x="1451" 
d="M1473 534h-1496v175h1496v-175z" />
    <glyph glyph-name="SF110000" unicode="&#x2502;" horiz-adv-x="1261" 
d="M448 -621v2485h175v-2485h-175z" />
    <glyph glyph-name="SF010000" unicode="&#x250c;" horiz-adv-x="1451" 
d="M1474 709v-175h-661v-1155h-175v1330h836z" />
    <glyph glyph-name="SF030000" unicode="&#x2510;" horiz-adv-x="1451" 
d="M637 534h-660v175h835v-1330h-175v1155z" />
    <glyph glyph-name="SF020000" unicode="&#x2514;" horiz-adv-x="1451" 
d="M638 534v1330h175v-1155h661v-175h-836z" />
    <glyph glyph-name="SF040000" unicode="&#x2518;" horiz-adv-x="1451" 
d="M812 534h-835v175h660v1155h175v-1330z" />
    <glyph glyph-name="SF080000" unicode="&#x251c;" horiz-adv-x="1451" 
d="M638 -621v2485h175v-1155h661v-175h-661v-1155h-175z" />
    <glyph glyph-name="SF090000" unicode="&#x2524;" horiz-adv-x="1451" 
d="M637 -621v1155h-660v175h660v1155h175v-2485h-175z" />
    <glyph glyph-name="SF060000" unicode="&#x252c;" horiz-adv-x="1451" 
d="M637 534h-660v175h1496v-175h-661v-1155h-175v1155z" />
    <glyph glyph-name="SF070000" unicode="&#x2534;" horiz-adv-x="1451" 
d="M1473 534h-1496v175h660v1155h175v-1155h661v-175z" />
    <glyph glyph-name="SF050000" unicode="&#x253c;" horiz-adv-x="1451" 
d="M637 534h-660v175h660v1155h175v-1155h661v-175h-661v-1155h-175v1155z" />
    <glyph glyph-name="SF430000" unicode="&#x2550;" horiz-adv-x="1451" 
d="M1496 724h-1496v175h1496v-175zM1496 344h-1496v175h1496v-175z" />
    <glyph glyph-name="SF240000" unicode="&#x2551;" horiz-adv-x="1451" 
d="M380 -621v2485h175v-2485h-175zM0 -621v2485h175v-2485h-175z" />
    <glyph glyph-name="SF510000" unicode="&#x2552;" horiz-adv-x="1451" 
d="M0 -621v1520h836v-175h-661v-205h661v-175h-661v-965h-175z" />
    <glyph glyph-name="SF520000" unicode="&#x2553;" horiz-adv-x="1451" 
d="M0 -621v1330h1026v-175h-471v-1155h-175v1140h-205v-1140h-175z" />
    <glyph glyph-name="SF390000" unicode="&#x2554;" horiz-adv-x="1451" 
d="M175 -621h-175v1520h1025v-175h-850v-1345zM555 344v-965h-175v1140h645v-175h-470z" />
    <glyph glyph-name="SF220000" unicode="&#x2555;" horiz-adv-x="1451" 
d="M660 344h-660v175h660v205h-660v175h835v-1520h-175v965z" />
    <glyph glyph-name="SF210000" unicode="&#x2556;" horiz-adv-x="1451" 
d="M470 -621l1 1155h-471v175h1025v-1330h-175v1155h-205v-1155h-175z" />
    <glyph glyph-name="SF250000" unicode="&#x2557;" horiz-adv-x="1451" 
d="M850 -621v1345h-850v175h1025v-1520h-175zM470 344h-470v175h645v-1140h-175v965z" />
    <glyph glyph-name="SF500000" unicode="&#x2558;" horiz-adv-x="1451" 
d="M0 344v1520h175v-965h661v-175h-661v-205h661v-175h-836z" />
    <glyph glyph-name="SF490000" unicode="&#x2559;" horiz-adv-x="1451" 
d="M1026 534h-1026v1330h175v-1155h205v1155h175v-1155h471v-175z" />
    <glyph glyph-name="SF380000" unicode="&#x255a;" horiz-adv-x="1451" 
d="M175 1864v-1345h850v-175h-1025v1520h175zM555 899h470v-175h-645v1140h175v-965z" />
    <glyph glyph-name="SF280000" unicode="&#x255b;" horiz-adv-x="1451" 
d="M835 344h-835v175h660v205h-660v175h660v965h175v-1520z" />
    <glyph glyph-name="SF270000" unicode="&#x255c;" horiz-adv-x="1451" 
d="M1025 534h-1025v175h470v1155h175v-1155h205v1155h175v-1330z" />
    <glyph glyph-name="SF260000" unicode="&#x255d;" horiz-adv-x="1451" 
d="M850 1864h175v-1520h-1025v175h850v1345zM470 899v965h175v-1140h-645v175h470z" />
    <glyph glyph-name="SF360000" unicode="&#x255e;" horiz-adv-x="1451" 
d="M0 -621v2485h175v-965h661v-175h-661v-205h661v-175h-661v-965h-175z" />
    <glyph glyph-name="SF370000" unicode="&#x255f;" horiz-adv-x="1451" 
d="M380 -621v2485h175v-1155h471v-175h-471v-1155h-175zM0 -621v2485h175v-2485h-175z" />
    <glyph glyph-name="SF420000" unicode="&#x2560;" horiz-adv-x="1451" 
d="M0 -621v2485h175v-2485h-175zM380 724v1140h175v-965h471v-175h-646zM380 -621v1140h646v-175h-471v-965h-175z" />
    <glyph glyph-name="SF190000" unicode="&#x2561;" horiz-adv-x="1451" 
d="M660 344h-660v175h661l-1 205h-660v175h660v965h175v-2485h-175v965z" />
    <glyph glyph-name="SF200000" unicode="&#x2562;" horiz-adv-x="1451" 
d="M470 -621l1 1155h-471v175h470v1155h175v-2485h-175zM850 -621v2485h175v-2485h-175z" />
    <glyph glyph-name="SF230000" unicode="&#x2563;" horiz-adv-x="1451" 
d="M850 -621v2485h175v-2485h-175zM645 1864v-1140h-645v175h470v965h175zM470 344h-470v175h645v-1140h-175v965z" />
    <glyph glyph-name="SF470000" unicode="&#x2564;" horiz-adv-x="1451" 
d="M1496 724h-1496v175h1496v-175zM660 344h-660v175h1496v-175h-661v-965h-175v965z" />
    <glyph glyph-name="SF480000" unicode="&#x2565;" horiz-adv-x="1451" 
d="M470 -621l1 1155h-471v175h1496v-175h-471v-1155h-175v1140h-205v-1140h-175z" />
    <glyph glyph-name="SF410000" unicode="&#x2566;" horiz-adv-x="1451" 
d="M1496 724h-1496v175h1496v-175zM470 344h-470v175h645v-1140h-175v965zM850 -621v1140h646v-175h-471v-965h-175z" />
    <glyph glyph-name="SF450000" unicode="&#x2567;" horiz-adv-x="1451" 
d="M1496 724h-1496v175h660v965h175v-965h661v-175zM1496 344h-1496v175h1496v-175z" />
    <glyph glyph-name="SF460000" unicode="&#x2568;" horiz-adv-x="1451" 
d="M1496 534h-1496v175h470v1155h175v-1155h205v1155h175v-1155h471v-175z" />
    <glyph glyph-name="SF400000" unicode="&#x2569;" horiz-adv-x="1451" 
d="M645 724h-645v175h470v965h175v-1140zM1496 724h-646v1140h175v-965h471v-175zM1496 344h-1496v175h1496v-175z" />
    <glyph glyph-name="SF540000" unicode="&#x256a;" horiz-adv-x="1451" 
d="M660 344h-660v175h660v205h-660v175h660v965h175v-965h661v-175h-661v-205h661v-175h-661v-965h-175v965z" />
    <glyph glyph-name="SF530000" unicode="&#x256b;" horiz-adv-x="1451" 
d="M470 -621l1 1155h-471v175h470v1155h175v-1155h205v1155h175v-1155h471v-175h-471v-1155h-175v1155h-205v-1155h-175z" />
    <glyph glyph-name="SF440000" unicode="&#x256c;" horiz-adv-x="1451" 
d="M1026 899h470v-175h-645v1140h175v-965zM470 899v965h175v-1140h-645v175h470zM470 344h-470v175h645v-1140h-175v965zM1026 344v-965h-175v1140h645v-175h-470z" />
    <glyph glyph-name="upblock" unicode="&#x2580;" horiz-adv-x="1451" 
d="M1496 621h-1496v1243h1496v-1243z" />
    <glyph glyph-name="dnblock" unicode="&#x2584;" horiz-adv-x="1451" 
d="M1496 -621h-1496v1242h1496v-1242z" />
    <glyph glyph-name="block" unicode="&#x2588;" horiz-adv-x="1451" 
d="M0 -621v2485h1496v-2485h-1496z" />
    <glyph glyph-name="lfblock" unicode="&#x258c;" horiz-adv-x="1451" 
d="M0 -621v2485h748v-2485h-748z" />
    <glyph glyph-name="rtblock" unicode="&#x2590;" horiz-adv-x="1451" 
d="M0 -621v2485h748v-2485h-748z" />
    <glyph glyph-name="ltshade" unicode="&#x2591;" horiz-adv-x="1451" 
d="M102 1864h125v-125h-125v125zM600 1864h125v-125h-125v125zM1099 1864h125v-125h-125v125zM351 1615h125v-125h-125v125zM850 1615h124v-125h-124v125zM1348 1615h125v-125h-125v125zM1099 1366h125v-125h-125v125zM600 1366h125v-125h-125v125zM102 1366h125v-125h-125
v125zM1348 1116h125v-124h-125v124zM850 1116h124v-124h-124v124zM351 1116h125v-124h-125v124zM102 867h125v-125h-125v125zM600 867h125v-125h-125v125zM1099 867h125v-125h-125v125zM1348 618h125v-125h-125v125zM850 618h124v-125h-124v125zM351 618h125v-125h-125v125z
M102 369h125v-125h-125v125zM600 369h125v-125h-125v125zM1099 369h125v-125h-125v125zM351 119h125v-124h-125v124zM850 119h124v-124h-124v124zM1348 119h125v-124h-125v124zM1099 -130h125v-125h-125v125zM600 -130h125v-125h-125v125zM102 -130h125v-125h-125v125z
M351 -379h125v-125h-125v125zM850 -379h124v-125h-124v125zM1348 -379h125v-125h-125v125z" />
    <glyph glyph-name="shade" unicode="&#x2592;" horiz-adv-x="1451" 
d="M103 1864h124v-125h-124v125zM352 1864h124v-125h-124v125zM601 1864h125v-125h-125v125zM850 1864h125v-125h-125v125zM1100 1864h124v-125h-124v125zM1349 1864h124v-125h-124v125zM-22 1615h125v-125h-125v125zM227 1615h125v-125h-125v125zM476 1615h125v-125h-125
v125zM726 1615h124v-125h-124v125zM975 1615h125v-125h-125v125zM1224 1615h125v-125h-125v125zM103 1366h124v-125h-124v125zM352 1366h124v-125h-124v125zM601 1366h125v-125h-125v125zM850 1366h125v-125h-125v125zM1100 1366h124v-125h-124v125zM1349 1366h124v-125
h-124v125zM227 1116h125v-124h-125v124zM476 1116h125v-124h-125v124zM726 1116h124v-124h-124v124zM975 1116h125v-124h-125v124zM1224 1116h125v-124h-125v124zM-22 1116h125v-124h-125v124zM103 867h124v-125h-124v125zM352 867h124v-125h-124v125zM601 867h125v-125
h-125v125zM850 867h125v-125h-125v125zM1100 867h124v-125h-124v125zM1349 867h124v-125h-124v125zM-22 618h125v-125h-125v125zM476 618h125v-125h-125v125zM726 618h124v-125h-124v125zM975 618h125v-125h-125v125zM1224 618h125v-125h-125v125zM227 618h125v-125h-125
v125zM1349 369h124v-125h-124v125zM1100 369h124v-125h-124v125zM850 369h125v-125h-125v125zM601 369h125v-125h-125v125zM352 369h124v-125h-124v125zM103 369h124v-125h-124v125zM-22 119h125v-124h-125v124zM227 119h125v-124h-125v124zM476 119h125v-124h-125v124z
M726 119h124v-124h-124v124zM975 119h125v-124h-125v124zM1224 119h125v-124h-125v124zM1349 -130h124v-125h-124v125zM1100 -130h124v-125h-124v125zM850 -130h125v-125h-125v125zM601 -130h125v-125h-125v125zM352 -130h124v-125h-124v125zM103 -130h124v-125h-124v125z
M-22 -379h125v-125h-125v125zM227 -379h125v-125h-125v125zM476 -379h125v-125h-125v125zM726 -379h124v-125h-124v125zM975 -379h125v-125h-125v125zM1224 -379h125v-125h-125v125z" />
    <glyph glyph-name="dkshade" unicode="&#x2593;" horiz-adv-x="1493" 
d="M1494 1490v-374h-124v-124h124v-374h-124v-125h124v-374h-124v-124h124v-374h-124v-125h124v-124h-1495v373h125v125h-125v374h125v125h-125v373h125v125h-125v374h125v125h-125v373h125v125h124v-125h125v125h124v-125h125v125h125v-125h124v125h125v-125h125v125h124
v-125h125v125h124v-249h-124v-125h124zM124 1615v-125h124v125h-124zM373 1615v-125h124v125h-124zM622 1615v-125h125v125h-125zM871 1615v-125h125v125h-125zM1121 1615v-125h124v125h-124zM1370 1366h-125v-125h125v125zM1121 1366h-125v-125h125v125zM871 1366h-124
v-125h124v125zM622 1366h-125v-125h125v125zM373 1366h-125v-125h125v125zM124 1116v-124h124v124h-124zM373 1116v-124h124v124h-124zM622 1116v-124h125v124h-125zM871 1116v-124h125v124h-125zM1121 1116v-124h124v124h-124zM373 867h-125v-125h125v125zM497 867v-125
h125v125h-125zM747 867v-125h124v125h-124zM996 867v-125h125v125h-125zM1245 867v-125h125v125h-125zM124 618v-125h124v125h-124zM622 618v-125h125v125h-125zM497 493v125h-124v-125h124zM871 618v-125h125v125h-125zM1121 618v-125h124v125h-124zM1370 244v125h-125
v-125h125zM1121 244v125h-125v-125h125zM871 244v125h-124v-125h124zM622 244v125h-125v-125h125zM373 244v125h-125v-125h125zM124 119v-124h124v124h-124zM373 119v-124h124v124h-124zM622 119v-124h125v124h-125zM871 119v-124h125v124h-125zM1121 119v-124h124v124h-124
zM1370 -255v125h-125v-125h125zM1121 -255v125h-125v-125h125zM871 -255v125h-124v-125h124zM622 -255v125h-125v-125h125zM373 -255v125h-125v-125h125zM124 -379v-125h124v125h-124zM373 -379v-125h124v125h-124zM622 -379v-125h125v125h-125zM871 -379v-125h125v125h-125
zM1121 -379v-125h124v125h-124z" />
    <glyph glyph-name="filledbox" unicode="&#x25a0;" horiz-adv-x="1237" 
d="M0 944h944v-944h-944v944z" />
    <glyph glyph-name="H22073" unicode="&#x25a1;" horiz-adv-x="1237" 
d="M146 944h944v-944h-944v944zM222 868v-792h792v792h-792z" />
    <glyph glyph-name="H18543" unicode="&#x25aa;" horiz-adv-x="726" 
d="M594 909v-464h-463v463z" />
    <glyph glyph-name="H18551" unicode="&#x25ab;" horiz-adv-x="726" 
d="M594 909v-464h-463v463zM518 833l-311 -1v-311h311v312z" />
    <glyph glyph-name="filledrect" unicode="&#x25ac;" horiz-adv-x="2048" 
d="M0 703h2047v-386h-2047v386z" />
    <glyph glyph-name="triagup" unicode="&#x25b2;" horiz-adv-x="2027" 
d="M0 0l710 1419l710 -1419h-1420z" />
    <glyph glyph-name="triagrt" unicode="&#x25ba;" horiz-adv-x="2027" 
d="M0 1417l1451 -724l-1451 -724v1448z" />
    <glyph glyph-name="triagdn" unicode="&#x25bc;" horiz-adv-x="2027" 
d="M1420 1388l-710 -1419l-710 1419h1420z" />
    <glyph glyph-name="triaglf" unicode="&#x25c4;" horiz-adv-x="2027" 
d="M1739 1417v-1448l-1451 724z" />
    <glyph glyph-name="lozenge" unicode="&#x25ca;" horiz-adv-x="1012" 
d="M549 1422l418 -713l-418 -709h-111l-391 709l391 713h111zM495 1325l-340 -616l340 -615l359 615z" />
    <glyph glyph-name="circle" unicode="&#x25cb;" horiz-adv-x="1237" 
d="M441 1018q110 0 216 -57t165 -163t59 -220q0 -183 -129 -312t-311 -129q-183 0 -312 129t-129 312q0 115 59 220.5t165 162.5t217 57zM441 942q-93 0 -180 -47t-136 -135t-49 -182q0 -151 107 -258t258 -107t257.5 107t106.5 258q0 94 -49 182t-136 135t-179 47z" />
    <glyph glyph-name="H18533" unicode="&#x25cf;" horiz-adv-x="1237" 
d="M619 1018q110 0 216 -57t165 -163t59 -220q0 -183 -129 -312t-311 -129q-183 0 -312 129t-129 312q0 115 59 220.5t165 162.5t217 57z" />
    <glyph glyph-name="invbullet" unicode="&#x25d8;" horiz-adv-x="1237" 
d="M0 0v980h980v-980h-980zM490 692q-84 0 -143 -59t-59 -143q0 -83 59.5 -142.5t142.5 -59.5q84 0 143 59.5t59 142.5q0 84 -59 143t-143 59z" />
    <glyph glyph-name="invcircle" unicode="&#x25d9;" horiz-adv-x="1237" 
d="M0 0v1155h1155v-1155h-1155zM577 1018q-111 0 -216.5 -57t-164.5 -163t-59 -221q0 -182 129 -311t311 -129q183 0 312 129t129 311q0 115 -59 221t-164.5 163t-217.5 57zM578 942q91 0 178.5 -47t136.5 -134.5t49 -183.5q0 -151 -106.5 -257.5t-257.5 -106.5
q-152 0 -258.5 106.5t-106.5 257.5q0 96 49 183.5t136.5 134.5t179.5 47z" />
    <glyph glyph-name="openbullet" unicode="&#x25e6;" horiz-adv-x="726" 
d="M363 928q104 0 177.5 -73.5t73.5 -177.5t-73.5 -177.5t-177.5 -73.5t-177.5 73.5t-73.5 177.5t73 177.5t178 73.5zM363 852q-73 0 -124 -51.5t-51 -123.5q0 -73 51.5 -124t123.5 -51t123.5 51t51.5 124q0 72 -51 123.5t-124 51.5z" />
    <glyph glyph-name="smileface" unicode="&#x263a;" horiz-adv-x="2091" 
d="M1046 1156q160 0 313 -82.5t239 -236t86 -319.5q0 -165 -84.5 -316.5t-236.5 -236t-317 -84.5q-166 0 -317.5 84.5t-236 236t-84.5 316.5q0 166 85.5 319.5t238.5 236t314 82.5zM1046 1063q-137 0 -267.5 -70.5t-204 -201.5t-73.5 -273q0 -141 72 -270.5t202 -201.5
t271 -72t271 72t202 201.5t72 270.5q0 142 -73.5 273t-204 201.5t-267.5 70.5zM801 731q34 0 57.5 -23.5t23.5 -57.5q0 -33 -23.5 -57t-57.5 -24q-33 0 -57 24t-24 57q0 34 24 57.5t57 23.5zM1290 731q34 0 57.5 -23.5t23.5 -57.5q0 -33 -23.5 -57t-57.5 -24q-33 0 -57 24
t-24 57q0 34 23.5 57.5t57.5 23.5zM752 313l62 36q79 -144 232 -144t231 144l63 -36q-50 -95 -123.5 -145t-170.5 -50q-98 0 -171 50t-123 145z" />
    <glyph glyph-name="invsmileface" unicode="&#x263b;" horiz-adv-x="2155" 
d="M1078 1156q160 0 313 -82.5t239 -236t86 -319.5q0 -165 -84.5 -316.5t-236.5 -236t-317 -84.5q-166 0 -317.5 84.5t-236 236t-84.5 316.5q0 166 85.5 319.5t238.5 236t314 82.5zM833 731q-33 0 -57 -23.5t-24 -57.5q0 -33 24 -57t57 -24q34 0 57.5 24t23.5 57
q0 34 -23.5 57.5t-57.5 23.5zM1322 731q-34 0 -57.5 -23.5t-23.5 -57.5q0 -33 24 -57t57 -24q34 0 57.5 24t23.5 57q0 34 -23.5 57.5t-57.5 23.5zM784 313q50 -95 123 -145t171 -50q97 0 170.5 50t123.5 145l-63 36q-78 -144 -231 -144t-232 144z" />
    <glyph glyph-name="sun" unicode="&#x263c;" horiz-adv-x="1877" 
d="M886 1621h76v-337q102 -7 181.5 -38.5t167.5 -102.5l290 284l52 -53l-286 -286q73 -95 103 -169q38 -96 40 -189h336v-69h-335q-19 -189 -143 -347l285 -291l-57 -50l-283 282q-98 -72 -171 -100.5t-180 -40.5v-337h-76v337q-112 15 -188.5 46t-156.5 92l-294 -278
l-51 51l285 286q-66 84 -100 166t-45 188h-336v69h336q9 106 42 185.5t102 163.5l-284 287l48 57l292 -282q101 70 179.5 100.5t170.5 38.5v337zM921 1211q-129 0 -252 -66t-191.5 -189.5t-68.5 -256.5t67.5 -255t189.5 -190t255 -68t255 68t190 190t68 255t-69 256.5
t-192 189.5t-252 66z" />
    <glyph glyph-name="female" unicode="&#x2640;" horiz-adv-x="1536" 
d="M796 461v-402h459v-59h-459v-439h-59v439h-460v59h460v402q-103 0 -225.5 65.5t-195 191t-72.5 265.5q0 136 69.5 261t193.5 194t261 69q136 0 260.5 -69.5t193.5 -194t69 -260.5q0 -209 -143.5 -360.5t-351.5 -161.5zM767 1451q-118 0 -230.5 -60.5t-175.5 -173.5
t-63 -235q0 -195 137.5 -332.5t331.5 -137.5q195 0 332.5 137.5t137.5 332.5q0 122 -63 235t-175.5 173.5t-231.5 60.5z" />
    <glyph glyph-name="male" unicode="&#x2642;" horiz-adv-x="1536" 
d="M1216 1620l36 -16l163 -666l-57 -15l-142 581l-358 -768q148 -75 224 -202t76 -272q0 -136 -69 -260.5t-193.5 -194t-261.5 -69.5q-136 0 -260.5 69.5t-193.5 194t-69 260.5q0 217 153.5 370t372.5 153q78 0 166 -27l360 771l-537 -265l-24 53zM634 731
q-118 0 -230.5 -60.5t-175.5 -173.5t-63 -235q0 -195 137.5 -332.5t331.5 -137.5q195 0 332.5 137.5t137.5 332.5q0 122 -63 235t-175.5 173.5t-231.5 60.5z" />
    <glyph glyph-name="spade" unicode="&#x2660;" horiz-adv-x="1088" 
d="M487 1231q26 -108 80 -193t192.5 -210.5t175.5 -193t37 -136.5q0 -95 -64 -159t-154 -64q-156 0 -255 190q1 -147 38.5 -233.5t119.5 -136t219 -58.5l7 -37h-792l7 37q184 0 285.5 107.5t97.5 320.5q-45 -95 -111.5 -142.5t-149.5 -47.5q-90 0 -155 65t-65 154
q0 74 32 133q45 83 157 174q140 115 217 229q56 83 81 201z" />
    <glyph glyph-name="club" unicode="&#x2663;" horiz-adv-x="1344" 
d="M1098 0h-848l8 34q165 35 219 69q81 51 132.5 151t51.5 210l-1 47q-61 -124 -148.5 -181t-178.5 -57q-116 0 -197 81t-81 199q0 116 74 195.5t168 79.5q60 0 163 -51q-42 69 -54.5 105t-12.5 77q0 115 79 193.5t198 78.5q117 0 197.5 -78.5t80.5 -189.5q0 -88 -69 -186
q84 40 101 45q27 8 61 8q100 0 173.5 -78.5t73.5 -194.5q0 -120 -80.5 -201.5t-193.5 -81.5q-62 0 -128.5 30.5t-116.5 81.5q-35 37 -87 125q4 -159 48.5 -251.5t136.5 -153.5q62 -41 223 -72z" />
    <glyph glyph-name="heart" unicode="&#x2665;" horiz-adv-x="1216" 
d="M547 -24q-31 118 -88.5 221.5t-222.5 321.5q-121 160 -149 203q-46 70 -66.5 128.5t-20.5 118.5q0 111 74 186t184 75q109 0 190 -78q61 -58 99 -173q36 127 113 189.5t170 62.5q109 0 184.5 -74t75.5 -176q0 -91 -43.5 -188t-170.5 -257q-164 -207 -231 -326t-98 -234z
" />
    <glyph glyph-name="diamond" unicode="&#x2666;" horiz-adv-x="1045" 
d="M457 1231q89 -151 229 -337.5t232 -289.5q-74 -78 -242 -302q-136 -182 -218 -326q-43 81 -178 269q-93 129 -280 359q101 115 260 328q118 158 197 299z" />
    <glyph glyph-name="musicalnote" unicode="&#x266a;" horiz-adv-x="1024" 
d="M486 1363h38q172 0 227 -14q79 -20 139 -77q45 -42 71 -118.5t26 -178.5v-103h-99v43q0 68 -28.5 115.5t-84.5 72.5q-73 32 -162 32h-28v-835q0 -121 -32 -188.5t-110 -108t-170 -40.5q-109 0 -172.5 61.5t-63.5 161.5q0 105 76 176.5t199 71.5q78 0 174 -46v975z" />
    <glyph glyph-name="musicalnotedbl" unicode="&#x266b;" horiz-adv-x="1536" 
d="M534 1271l796 248v-1108q0 -124 -31.5 -187t-107 -104t-170.5 -41q-109 0 -174 62.5t-65 161.5q0 100 77 172.5t199 72.5q40 0 70.5 -7t99.5 -36v724l-595 -185v-836q0 -121 -32 -188.5t-110 -107.5t-170 -40q-109 0 -172.5 61.5t-63.5 160.5q0 105 76 176.5t199 71.5
q78 0 174 -46v975z" />
    <glyph glyph-name="fi" unicode="&#xf001;" horiz-adv-x="840" 
d="M150 0v923h-131v139h131v103q0 173 62 249.5t171 76.5q81 0 150 -23l-24 -152q-43 9 -79 9q-76 0 -104 -36.5t-28 -157.5v-69h169v-139h-169v-923h-148zM578 1259v207h147v-207h-147zM578 0v1062h147v-1062h-147z" />
    <glyph glyph-name="fi" unicode="&#xfb01;" horiz-adv-x="840" 
d="M150 0v923h-131v139h131v103q0 173 62 249.5t171 76.5q81 0 150 -23l-24 -152q-43 9 -79 9q-76 0 -104 -36.5t-28 -157.5v-69h169v-139h-169v-923h-148zM578 1259v207h147v-207h-147zM578 0v1062h147v-1062h-147z" />
    <glyph glyph-name="fl" unicode="&#xf002;" horiz-adv-x="840" 
d="M149 0v923h-131v139h131v103q0 173 62 249.5t171 76.5q81 0 150 -23l-24 -152q-43 9 -79 9q-76 0 -104 -36.5t-28 -157.5v-69h169v-139h-169v-923h-148zM576 0v1466h147v-1466h-147z" />
    <glyph glyph-name="fl" unicode="&#xfb02;" horiz-adv-x="840" 
d="M149 0v923h-131v139h131v103q0 173 62 249.5t171 76.5q81 0 150 -23l-24 -152q-43 9 -79 9q-76 0 -104 -36.5t-28 -157.5v-69h169v-139h-169v-923h-148zM576 0v1466h147v-1466h-147z" />
    <glyph glyph-name="foursuperior" unicode="&#xf003;" horiz-adv-x="559" 
d="M332 733v154h-313v123l332 474h100v-489h85v-108h-85v-154h-119zM332 995v263l-188 -263h188z" />
    <glyph glyph-name="commaaccent" unicode="&#xf004;" horiz-adv-x="559" 
d="M205 -305v184h151v-184q0 -161 -123 -227l-37 69q78 43 84 158h-75z" />
    <glyph glyph-name="undercommaaccent" unicode="&#xf005;" horiz-adv-x="682" 
d="M177 -154l12 74q79 0 121 -6q61 -9 97 -49.5t36 -98.5q0 -78 -62.5 -132.5t-170.5 -54.5q-71 0 -122 12l9 117q53 -4 81 -4q67 0 97.5 21t30.5 54q0 31 -27.5 48.5t-101.5 18.5z" />
    <glyph glyph-name="fivesuperior" unicode="&#xf006;" horiz-adv-x="559" 
d="M45 926l113 18q21 -104 114 -104q61 0 96 42t35 103q0 58 -32.5 100.5t-83.5 42.5q-52 0 -109 -63l-110 25l61 376h367v-120h-291l-27 -158q60 51 131 51q92 0 151.5 -74t59.5 -180q0 -119 -72 -194.5t-174 -75.5q-93 0 -152.5 57.5t-76.5 153.5z" />
    <glyph glyph-name="sevensuperior" unicode="&#xf007;" horiz-adv-x="559" 
d="M156 733q18 317 205 613h-299v120h428v-80q-193 -289 -217 -653h-117z" />
    <glyph glyph-name="eightsuperior" unicode="&#xf008;" horiz-adv-x="559" 
d="M171 1131q-102 47 -102 161q0 79 48.5 136t157.5 57q105 0 161.5 -54t56.5 -141q0 -113 -111 -159q131 -40 131 -185q0 -103 -64.5 -167t-168.5 -64q-110 0 -172 65t-62 162q0 148 125 189zM277 1378q-44 0 -68 -29t-24 -67q0 -51 27 -75.5t68 -24.5q39 0 67.5 24.5
t28.5 71.5q0 49 -28 74.5t-71 25.5zM277 1075q-54 0 -84 -35t-30 -86q0 -127 117 -127q58 0 88 37.5t30 83.5q0 58 -34.5 92.5t-86.5 34.5z" />
    <glyph glyph-name="pi1" unicode="&#xf010;" horiz-adv-x="1124" 
d="M0 1063h1124v-158h-162v-905h-189v905h-426v-905h-188v905h-159v158z" />
    </font>
</defs>
</svg>
